<?xml version="1.0" encoding="UTF-8"?>
<!DOCTYPE svg PUBLIC "-//W3C//DTD SVG 1.1//EN" "http://www.w3.org/Graphics/SVG/1.1/DTD/svg11.dtd">
<!-- Creator: CorelDRAW -->
<svg xmlns="http://www.w3.org/2000/svg" xml:space="preserve" width="22mm" height="22mm" version="1.1" style="shape-rendering:geometricPrecision; text-rendering:geometricPrecision; image-rendering:optimizeQuality; fill-rule:evenodd; clip-rule:evenodd"
viewBox="0 0 21000 29700"
 xmlns:xlink="http://www.w3.org/1999/xlink"
 xmlns:xodm="http://www.corel.com/coreldraw/odm/2003">
 <defs>
  <style type="text/css">
   <![CDATA[
    .str0 {stroke:#969796;stroke-width:2.67;stroke-miterlimit:22.9256}
    .str1 {stroke:white;stroke-width:20;stroke-miterlimit:22.9256}
    .fil1 {fill:none}
    .fil2 {fill:white}
    .fil0 {fill:#457FCF}
   ]]>
  </style>
 </defs>
 <g id="Слой_x0020_1">
  <metadata id="CorelCorpID_0Corel-Layer"/>
  <circle class="fil0 str0" cx="10497.88" cy="14852.06" r="9679.96"/>
  <g id="_105553214526528">
   <polyline class="fil1 str1" points="9028.65,12266.17 9451.21,13283.27 6411.86,12311.25 7669.54,9397.67 8126.37,10414.78 8152.45,10467.83 "/>
   <path class="fil1 str1" d="M9028.65 12266.17c446.67,-220.42 949.57,-344.22 1481.37,-344.09 1850.15,0.45 3349.63,1500.66 3349.19,3350.81 -0.45,1850.15 -1500.66,3349.64 -3350.81,3349.19 -1850.15,-0.45 -3349.64,-1500.66 -3349.19,-3350.81 0.04,-162.15 11.6,-321.6 33.9,-477.58"/>
   <path class="fil1 str1" d="M8152.45 10467.83c718.2,-353.01 1526.91,-549.64 2381.49,-545.69 2954.67,13.66 5338.88,2419.99 5325.21,5374.67 -13.66,2954.69 -2420,5338.88 -5374.68,5325.21 -2954.67,-13.66 -5338.87,-2419.99 -5325.21,-5374.67 1.83,-394.98 46.42,-779.77 129.35,-1150"/>
   <line class="fil1 str1" x1="5288.59" y1="14097.34" x2="7193.11" y2= "14793.69" />
  </g>
  <path class="fil2 str1" d="M6411.86 12311.25l3039.35 972.02 -422.56 -1017.1c446.67,-220.42 949.57,-344.22 1481.37,-344.09 1850.15,0.45 3349.63,1500.66 3349.19,3350.81 -0.45,1850.15 -1500.66,3349.64 -3350.81,3349.19 -1850.15,-0.45 -3349.64,-1500.66 -3349.19,-3350.81 0.04,-162.15 11.6,-321.6 33.9,-477.58l-1904.5 -696.34c-82.93,370.23 -127.52,755.02 -129.35,1150 -13.66,2954.68 2370.54,5361.01 5325.21,5374.67 2954.68,13.67 5361.02,-2370.52 5374.68,-5325.21 13.67,-2954.68 -2370.54,-5361.01 -5325.21,-5374.67 -854.58,-3.95 -1663.29,192.68 -2381.49,545.69l-26.08 -53.05 -456.83 -1017.11 -1257.68 2913.58z"/>
 </g>
</svg>
