<?xml version="1.0" encoding="UTF-8"?>
<!DOCTYPE svg PUBLIC "-//W3C//DTD SVG 1.1//EN" "http://www.w3.org/Graphics/SVG/1.1/DTD/svg11.dtd">
<!-- Creator: CorelDRAW -->
<svg xmlns="http://www.w3.org/2000/svg" xml:space="preserve" width="22mm" height="22mm" version="1.1" style="shape-rendering:geometricPrecision; text-rendering:geometricPrecision; image-rendering:optimizeQuality; fill-rule:evenodd; clip-rule:evenodd"
viewBox="0 0 21000 29700"
 xmlns:xlink="http://www.w3.org/1999/xlink"
 xmlns:xodm="http://www.corel.com/coreldraw/odm/2003">
 <defs>
  <style type="text/css">
   <![CDATA[
    .str0 {stroke:#969796;stroke-width:2.67;stroke-miterlimit:22.9256}
    .str1 {stroke:white;stroke-width:20;stroke-miterlimit:22.9256}
    .fil1 {fill:none}
    .fil2 {fill:white}
    .fil0 {fill:#24508d}
   ]]>
  </style>
 </defs>
 <g id="Слой_x0020_1">
  <metadata id="CorelCorpID_0Corel-Layer"/>
  <circle class="fil0 str0" cx="10497.88" cy="14852.06" r="7743.97"/>
  <g id="_105553214828864">
   <polyline class="fil1 str1" points="9322.5,12783.35 9660.54,13597.03 7229.07,12819.41 8235.21,10488.55 8600.67,11302.24 8621.53,11344.67 "/>
   <path class="fil1 str1" d="M9322.5 12783.35c357.33,-176.34 759.65,-275.38 1185.09,-275.27 1480.12,0.35 2679.71,1200.52 2679.35,2680.64 -0.36,1480.12 -1200.53,2679.71 -2680.65,2679.36 -1480.12,-0.36 -2679.71,-1200.53 -2679.35,-2680.65 0.03,-129.72 9.29,-257.28 27.13,-382.07"/>
   <path class="fil1 str1" d="M8621.53 11344.67c574.57,-282.4 1221.54,-439.71 1905.2,-436.55 2363.73,10.93 4271.1,1935.99 4260.17,4299.74 -10.93,2363.75 -1936,4271.1 -4299.75,4260.17 -2363.74,-10.93 -4271.1,-1935.99 -4260.17,-4299.74 1.47,-315.99 37.14,-623.82 103.48,-920"/>
   <line class="fil1 str1" x1="6330.45" y1="14248.28" x2="7854.07" y2= "14805.36" />
  </g>
  <path class="fil2 str1" d="M7229.06 12819.41l2431.48 777.62 -338.04 -813.68c357.33,-176.34 759.65,-275.38 1185.09,-275.27 1480.12,0.36 2679.71,1200.52 2679.35,2680.64 -0.36,1480.12 -1200.52,2679.72 -2680.64,2679.36 -1480.12,-0.36 -2679.72,-1200.53 -2679.36,-2680.65 0.04,-129.72 9.28,-257.28 27.12,-382.07l-1523.6 -557.07c-66.34,296.19 -102.01,604.02 -103.48,920 -10.93,2363.75 1896.44,4288.81 4260.17,4299.74 2363.75,10.94 4288.82,-1896.42 4299.75,-4260.17 10.93,-2363.74 -1896.44,-4288.81 -4260.17,-4299.74 -683.67,-3.16 -1330.63,154.15 -1905.19,436.56l-20.87 -42.44 -365.46 -813.69 -1006.15 2330.86z"/>
 </g>
</svg>
