<?xml version="1.0" encoding="UTF-8"?>
<!DOCTYPE svg PUBLIC "-//W3C//DTD SVG 1.1//EN" "http://www.w3.org/Graphics/SVG/1.1/DTD/svg11.dtd">
<!-- Creator: CorelDRAW -->
<svg xmlns="http://www.w3.org/2000/svg" xml:space="preserve" width="20mm" height="20mm" version="1.1" style="shape-rendering:geometricPrecision; text-rendering:geometricPrecision; image-rendering:optimizeQuality; fill-rule:evenodd; clip-rule:evenodd"
viewBox="0 0 10000 10000"
 xmlns:xlink="http://www.w3.org/1999/xlink"
 xmlns:xodm="http://www.corel.com/coreldraw/odm/2003">
 <defs>
  <style type="text/css">
   <![CDATA[
    .str1 {stroke:white;stroke-width:13.33;stroke-miterlimit:22.9256}
    .str0 {stroke:#969796;stroke-width:13.33;stroke-miterlimit:22.9256}
    .fil1 {fill:white}
    .fil0 {fill:#969796}
   ]]>
  </style>
 </defs>
 <g id="Слой_x0020_1">
  <metadata id="CorelCorpID_0Corel-Layer"/>
  <circle class="fil0 str0" cx="4989.41" cy="5010.29" r="3666.67"/>
  <g id="_105553232260096">
   <rect class="fil1 str1" x="6789.19" y="3475.55" width="463.02" height="3050.87"/>
   <circle class="fil1 str1" cx="7020.7" cy="6526.42" r="231.51"/>
   <circle class="fil1 str1" cx="7020.7" cy="3475.55" r="231.51"/>
  </g>
  <path class="fil1 str1" d="M6146.81 5320.31l-1204.16 770.2 -1115.51 713.49c-126.37,80.82 -275.87,85.92 -407.44,13.89 -131.58,-72.03 -207.84,-200.72 -207.84,-350.72l0 -1483.7 0 -1483.69c0,-150 76.26,-278.69 207.84,-350.72 131.57,-72.04 281.07,-66.93 407.44,13.89l1115.51 713.49 1204.17 770.2c118.31,75.67 184.39,196.39 184.39,336.83 0,140.45 -66.09,261.16 -184.4,336.83z"/>
 </g>
</svg>
