<svg width="140" height="100" viewBox="0 0 100 55" fill="none" xmlns="http://www.w3.org/2000/svg">
<mask id="path-1-inside-1_8_119" fill="white">
<path d="M67.4481 27.5C67.4481 42.6878 55.4175 55 40.5771 55C25.7367 55 13.7061 42.6878 13.7061 27.5C13.7061 12.3122 25.7367 0 40.5771 0C55.4175 0 67.4481 12.3122 67.4481 27.5ZM22.9468 27.5C22.9468 37.4649 30.8401 45.543 40.5771 45.543C50.314 45.543 58.2074 37.4649 58.2074 27.5C58.2074 17.5351 50.314 9.45699 40.5771 9.45699C30.8401 9.45699 22.9468 17.5351 22.9468 27.5Z"/>
</mask>
<path d="M67.4481 27.5C67.4481 42.6878 55.4175 55 40.5771 55C25.7367 55 13.7061 42.6878 13.7061 27.5C13.7061 12.3122 25.7367 0 40.5771 0C55.4175 0 67.4481 12.3122 67.4481 27.5ZM22.9468 27.5C22.9468 37.4649 30.8401 45.543 40.5771 45.543C50.314 45.543 58.2074 37.4649 58.2074 27.5C58.2074 17.5351 50.314 9.45699 40.5771 9.45699C30.8401 9.45699 22.9468 17.5351 22.9468 27.5Z" fill="#3A8BEB" stroke="black" mask="url(#path-1-inside-1_8_119)"/>
<path d="M83.8399 7.69501L73.573 11.359C71.0046 12.2757 68.5612 13.5105 66.2999 15.0346C61.4367 18.3123 56.853 21.9867 52.5957 26.0201L39.687 38.25L1.92642 38.25L22.4772 31.8998C27.2193 30.4345 31.7787 28.4329 36.0669 25.9338L52.5525 16.3262L56.2554 14.4018C64.7806 9.97144 74.2454 7.67351 83.8399 7.69501Z" fill="#3A8BEB" stroke="black" stroke-width="0.5"/>
</svg>
