<svg width="829" height="469" viewBox="0 0 829 469" fill="none" xmlns="http://www.w3.org/2000/svg">
<rect width="829" height="469" fill="white"/>
<g clip-path="url(#clip0_29_211)">
<path d="M325.335 131.881L334.357 63.6783L442.112 131.493" stroke="black" stroke-width="2"/>
<path d="M612.796 270.37L640.892 257.269L612.745 239.499" stroke="black" stroke-width="2"/>
<path d="M297.97 331.112L285.619 422.935L482.288 331.227" stroke="black" stroke-width="2"/>
<path d="M297.97 331.113L325.88 128.317L297.97 331.113Z" stroke="black" stroke-dasharray="7 7"/>
<path d="M442.112 131.493L612.745 239.5L442.112 131.493Z" stroke="black" stroke-dasharray="7 7"/>
<path d="M482.288 331.227L640.891 257.269L482.288 331.227Z" stroke="black" stroke-dasharray="6 6"/>
<path d="M324.636 42.8331L484.386 385.418L324.636 42.8331Z" stroke="black" stroke-dasharray="20 5 2 5"/>
<path d="M482 331L612 331V270" stroke="black" stroke-width="2"/>
<path d="M612 239V131L442 131" stroke="black" stroke-width="2"/>
<path d="M324 131L212 131L312 131" stroke="black" stroke-width="2"/>
<path d="M212 331L297 331" stroke="black" stroke-width="2"/>
<path d="M612 239V270" stroke="black" stroke-dasharray="6 6"/>
<path d="M442 131L324 131" stroke="black" stroke-dasharray="6 6"/>
<path d="M297 331L482 331" stroke="black" stroke-dasharray="6 6"/>
<path d="M212 131C236 182.333 238.666 222 220 250C201.333 278 198.666 305 212 331" stroke="black" stroke-width="2"/>
<path d="M642 231L182 231" stroke="black" stroke-dasharray="20 5 2 5"/>
<path d="M412 131C356.771 131 312 175.771 312 231C312 286.228 356.771 331 412 331C467.228 331 512 286.228 512 231C512 175.771 467.228 131 412 131Z" stroke="black"/>
<path d="M412 261V201" stroke="black"/>
<path d="M423.42 221.636C423.42 222.557 423.254 223.352 422.922 224.023C422.589 224.693 422.134 225.21 421.554 225.574C420.974 225.938 420.313 226.119 419.568 226.119C418.824 226.119 418.162 225.938 417.582 225.574C417.003 225.21 416.547 224.693 416.214 224.023C415.882 223.352 415.716 222.557 415.716 221.636C415.716 220.716 415.882 219.92 416.214 219.25C416.547 218.58 417.003 218.062 417.582 217.699C418.162 217.335 418.824 217.153 419.568 217.153C420.313 217.153 420.974 217.335 421.554 217.699C422.134 218.062 422.589 218.58 422.922 219.25C423.254 219.92 423.42 220.716 423.42 221.636ZM422.398 221.636C422.398 220.881 422.271 220.243 422.018 219.723C421.768 219.203 421.429 218.81 421 218.543C420.574 218.276 420.097 218.142 419.568 218.142C419.04 218.142 418.561 218.276 418.132 218.543C417.706 218.81 417.366 219.203 417.114 219.723C416.864 220.243 416.739 220.881 416.739 221.636C416.739 222.392 416.864 223.03 417.114 223.55C417.366 224.07 417.706 224.463 418.132 224.73C418.561 224.997 419.04 225.131 419.568 225.131C420.097 225.131 420.574 224.997 421 224.73C421.429 224.463 421.768 224.07 422.018 223.55C422.271 223.03 422.398 222.392 422.398 221.636ZM428.112 217.273V226H427.055V218.381H427.004L424.874 219.795V218.722L427.055 217.273H428.112Z" fill="black"/>
</g>
<defs>
<clipPath id="clip0_29_211">
<rect width="536" height="394" fill="white" transform="matrix(-1 0 0 -1 662 429)"/>
</clipPath>
</defs>
</svg>
