<svg width="829" height="469" viewBox="0 0 829 469" fill="none" xmlns="http://www.w3.org/2000/svg">
<rect width="829" height="469" fill="white"/>
<g clip-path="url(#clip0_28_132)">
<path d="M379.465 89.3932L526.432 231.266H232.498L379.465 89.3932Z" stroke="black" stroke-width="0.65"/>
<path d="M526.432 231.266V120.921" stroke="black" stroke-width="0.65"/>
<path d="M526.432 404.667V262.794" stroke="black" stroke-width="0.65"/>
<path d="M526.432 404.667V262.794" stroke="black" stroke-width="0.65"/>
<path d="M222 262.794H547.427" stroke="black" stroke-width="0.65" stroke-dasharray="13 3.25 1.3 3.25"/>
<path d="M484.441 21.0839V441.449" stroke="black" stroke-width="0.65" stroke-dasharray="13 3.25 1.3 3.25"/>
<path d="M379.465 21.0839V441.449" stroke="black" stroke-width="0.65" stroke-dasharray="13 3.25 1.3 3.25"/>
<mask id="mask0_28_132" style="mask-type:luminance" maskUnits="userSpaceOnUse" x="222" y="262" width="420" height="211">
<path d="M641.906 262.794H222V472.976H641.906V262.794Z" fill="white"/>
</mask>
<g mask="url(#mask0_28_132)">
<path d="M379.465 409.922C460.632 409.922 526.432 344.05 526.432 262.794C526.432 181.537 460.632 115.666 379.465 115.666C298.297 115.666 232.498 181.537 232.498 262.794C232.498 344.05 298.297 409.922 379.465 409.922Z" stroke="black" stroke-width="0.65"/>
</g>
<mask id="mask1_28_132" style="mask-type:luminance" maskUnits="userSpaceOnUse" x="316" y="52" width="211" height="527">
<path d="M526.432 52.6113H316.479V578.068H526.432V52.6113Z" fill="white"/>
</mask>
<g mask="url(#mask1_28_132)">
<path d="M484.441 409.922C565.609 409.922 631.408 344.05 631.408 262.794C631.408 181.537 565.609 115.666 484.441 115.666C403.274 115.666 337.474 181.537 337.474 262.794C337.474 344.05 403.274 409.922 484.441 409.922Z" stroke="black" stroke-width="0.65"/>
</g>
<path d="M379.464 265.947C381.204 265.947 382.614 264.535 382.614 262.794C382.614 261.053 381.204 259.641 379.464 259.641C377.725 259.641 376.315 261.053 376.315 262.794C376.315 264.535 377.725 265.947 379.464 265.947Z" fill="#737373" stroke="black" stroke-width="0.65"/>
<path d="M484.441 265.947C486.18 265.947 487.59 264.535 487.59 262.794C487.59 261.053 486.18 259.641 484.441 259.641C482.701 259.641 481.292 261.053 481.292 262.794C481.292 264.535 482.701 265.947 484.441 265.947Z" fill="#737373" stroke="black" stroke-width="0.65"/>
<path d="M469.92 271.455H470.926V278.477C470.926 278.881 470.857 279.23 470.717 279.526C470.581 279.821 470.374 280.05 470.095 280.212C469.82 280.374 469.472 280.455 469.051 280.455C469.017 280.455 468.983 280.455 468.949 280.455C468.915 280.455 468.881 280.455 468.847 280.455V279.517C468.881 279.517 468.912 279.517 468.94 279.517C468.969 279.517 469 279.517 469.034 279.517C469.341 279.517 469.565 279.426 469.707 279.244C469.849 279.065 469.92 278.81 469.92 278.477V271.455ZM470.415 270.364C470.219 270.364 470.05 270.297 469.908 270.163C469.768 270.03 469.699 269.869 469.699 269.682C469.699 269.494 469.768 269.334 469.908 269.2C470.05 269.067 470.219 269 470.415 269C470.611 269 470.778 269.067 470.918 269.2C471.06 269.334 471.131 269.494 471.131 269.682C471.131 269.869 471.06 270.03 470.918 270.163C470.778 270.297 470.611 270.364 470.415 270.364ZM475.819 269.273V278H474.762V270.381H474.711L472.581 271.795V270.722L474.762 269.273H475.819Z" fill="black"/>
<path d="M469.92 76.4545H470.926V83.4773C470.926 83.8807 470.857 84.2301 470.717 84.5256C470.581 84.821 470.374 85.0497 470.095 85.2116C469.82 85.3736 469.472 85.4545 469.051 85.4545C469.017 85.4545 468.983 85.4545 468.949 85.4545C468.915 85.4545 468.881 85.4545 468.847 85.4545V84.517C468.881 84.517 468.912 84.517 468.94 84.517C468.969 84.517 469 84.517 469.034 84.517C469.341 84.517 469.565 84.4261 469.707 84.2443C469.849 84.0653 469.92 83.8097 469.92 83.4773V76.4545ZM470.415 75.3636C470.219 75.3636 470.05 75.2969 469.908 75.1634C469.768 75.0298 469.699 74.8693 469.699 74.6818C469.699 74.4943 469.768 74.3338 469.908 74.2003C470.05 74.0668 470.219 74 470.415 74C470.611 74 470.778 74.0668 470.918 74.2003C471.06 74.3338 471.131 74.4943 471.131 74.6818C471.131 74.8693 471.06 75.0298 470.918 75.1634C470.778 75.2969 470.611 75.3636 470.415 75.3636ZM472.751 83V82.233L475.632 79.0795C475.97 78.7102 476.248 78.3892 476.467 78.1165C476.686 77.8409 476.848 77.5824 476.953 77.3409C477.061 77.0966 477.115 76.8409 477.115 76.5739C477.115 76.267 477.041 76.0014 476.893 75.777C476.748 75.5526 476.549 75.3793 476.297 75.2571C476.044 75.1349 475.76 75.0739 475.444 75.0739C475.109 75.0739 474.816 75.1435 474.566 75.2827C474.319 75.419 474.127 75.6108 473.991 75.858C473.858 76.1051 473.791 76.3949 473.791 76.7273H472.785C472.785 76.2159 472.903 75.767 473.139 75.3807C473.375 74.9943 473.696 74.6932 474.102 74.4773C474.511 74.2614 474.97 74.1534 475.478 74.1534C475.99 74.1534 476.443 74.2614 476.838 74.4773C477.233 74.6932 477.542 74.9844 477.767 75.3509C477.991 75.7173 478.103 76.125 478.103 76.5739C478.103 76.8949 478.045 77.2088 477.929 77.5156C477.815 77.8196 477.616 78.1591 477.332 78.5341C477.051 78.9062 476.66 79.3608 476.16 79.8977L474.2 81.9943V82.0625H478.257V83H472.751Z" fill="black"/>
<path d="M364.92 278V271.455H365.926V278H364.92ZM365.432 270.364C365.236 270.364 365.067 270.297 364.925 270.163C364.786 270.03 364.716 269.869 364.716 269.682C364.716 269.494 364.786 269.334 364.925 269.2C365.067 269.067 365.236 269 365.432 269C365.628 269 365.795 269.067 365.935 269.2C366.077 269.334 366.148 269.494 366.148 269.682C366.148 269.869 366.077 270.03 365.935 270.163C365.795 270.297 365.628 270.364 365.432 270.364ZM370.819 269.273V278H369.762V270.381H369.711L367.581 271.795V270.722L369.762 269.273H370.819Z" fill="black"/>
<path d="M364.92 83V76.4545H365.926V83H364.92ZM365.432 75.3636C365.236 75.3636 365.067 75.2969 364.925 75.1634C364.786 75.0298 364.716 74.8693 364.716 74.6818C364.716 74.4943 364.786 74.3338 364.925 74.2003C365.067 74.0668 365.236 74 365.432 74C365.628 74 365.795 74.0668 365.935 74.2003C366.077 74.3338 366.148 74.4943 366.148 74.6818C366.148 74.8693 366.077 75.0298 365.935 75.1634C365.795 75.2969 365.628 75.3636 365.432 75.3636ZM367.751 83V82.233L370.632 79.0795C370.97 78.7102 371.248 78.3892 371.467 78.1165C371.686 77.8409 371.848 77.5824 371.953 77.3409C372.061 77.0966 372.115 76.8409 372.115 76.5739C372.115 76.267 372.041 76.0014 371.893 75.777C371.748 75.5526 371.549 75.3793 371.297 75.2571C371.044 75.1349 370.76 75.0739 370.444 75.0739C370.109 75.0739 369.816 75.1435 369.566 75.2827C369.319 75.419 369.127 75.6108 368.991 75.858C368.858 76.1051 368.791 76.3949 368.791 76.7273H367.785C367.785 76.2159 367.903 75.767 368.139 75.3807C368.375 74.9943 368.696 74.6932 369.102 74.4773C369.511 74.2614 369.97 74.1534 370.478 74.1534C370.99 74.1534 371.443 74.2614 371.838 74.4773C372.233 74.6932 372.542 74.9844 372.767 75.3509C372.991 75.7173 373.103 76.125 373.103 76.5739C373.103 76.8949 373.045 77.2088 372.929 77.5156C372.815 77.8196 372.616 78.1591 372.332 78.5341C372.051 78.9062 371.66 79.3608 371.16 79.8977L369.2 81.9943V82.0625H373.257V83H367.751Z" fill="black"/>
</g>
<defs>
<clipPath id="clip0_28_132">
<rect width="344" height="443" fill="white" transform="translate(222 13)"/>
</clipPath>
</defs>
</svg>
