<svg width="829" height="469" viewBox="0 0 829 469" fill="none" xmlns="http://www.w3.org/2000/svg">
<rect width="829" height="469" fill="white"/>
<path d="M183.868 64.2755H609.822Z" fill="#FFFEBA"/>
<path d="M183.868 64.2755H609.822" stroke="black" stroke-width="1.625"/>
<path d="M279.708 192.067H386.196Z" fill="#FFFEBA"/>
<path d="M279.708 192.067H386.196" stroke="black" stroke-width="1.625"/>
<path d="M279.708 229.339L386.196 213.365Z" fill="#FFFEBA"/>
<path d="M279.708 229.339L386.196 213.365" stroke="black" stroke-width="1.625"/>
<path d="M183.868 330.507L609.822 415.702Z" fill="#FFFEBA"/>
<path d="M183.868 330.507L609.822 415.702" stroke="black" stroke-width="1.625"/>
<path d="M183.868 330.507V64.2755Z" fill="#FFFEBA"/>
<path d="M183.868 330.507V64.2755" stroke="black" stroke-width="0.8125"/>
<path d="M609.822 64.2755V415.701Z" fill="#FFFEBA"/>
<path d="M609.822 64.2755V415.701" stroke="black" stroke-width="0.8125"/>
<path d="M279.708 192.067V229.339Z" fill="#FFFEBA"/>
<path d="M279.708 192.067V229.339" stroke="black" stroke-width="0.8125"/>
<path d="M386.196 192.067V213.365Z" fill="#FFFEBA"/>
<path d="M386.196 192.067V213.365" stroke="black" stroke-width="0.8125"/>
<path d="M183.868 64.2755C258.41 106.873 290.356 138.82 279.707 192.067" stroke="black" stroke-width="1.625"/>
<path d="M609.821 64.2755C439.44 106.873 418.142 138.82 386.196 192.067" stroke="black" stroke-width="1.625"/>
<path d="M183.868 330.507C237.112 309.209 279.707 255.962 279.707 229.339" stroke="black" stroke-width="1.625"/>
<path d="M609.821 415.701C513.982 309.209 471.387 255.962 386.196 213.365" stroke="black" stroke-width="1.625"/>
<path d="M389.39 259.157C391.155 259.157 392.585 257.727 392.585 255.962C392.585 254.198 391.155 252.768 389.39 252.768C387.626 252.768 386.196 254.198 386.196 255.962C386.196 257.727 387.626 259.157 389.39 259.157Z" fill="#B9B9B9" stroke="black" stroke-width="0.8125"/>
<path d="M325.497 99.4181C327.262 99.4181 328.692 97.9877 328.692 96.2233C328.692 94.4589 327.262 93.0285 325.497 93.0285C323.733 93.0285 322.303 94.4589 322.303 96.2233C322.303 97.9877 323.733 99.4181 325.497 99.4181Z" fill="#B9B9B9" stroke="black" stroke-width="0.8125"/>
<path d="M394.057 247V238.273H397.108C397.716 238.273 398.217 238.378 398.612 238.588C399.007 238.795 399.301 239.075 399.494 239.428C399.688 239.777 399.784 240.165 399.784 240.591C399.784 240.966 399.717 241.276 399.584 241.52C399.453 241.764 399.28 241.957 399.064 242.099C398.851 242.241 398.619 242.347 398.369 242.415V242.5C398.636 242.517 398.905 242.611 399.175 242.781C399.445 242.952 399.67 243.196 399.852 243.514C400.034 243.832 400.125 244.222 400.125 244.682C400.125 245.119 400.026 245.513 399.827 245.862C399.628 246.212 399.314 246.489 398.885 246.693C398.456 246.898 397.898 247 397.21 247H394.057ZM395.114 246.062H397.21C397.901 246.062 398.391 245.929 398.68 245.662C398.973 245.392 399.119 245.065 399.119 244.682C399.119 244.386 399.044 244.114 398.893 243.864C398.743 243.611 398.528 243.409 398.25 243.259C397.972 243.105 397.642 243.028 397.261 243.028H395.114V246.062ZM395.114 242.108H397.074C397.392 242.108 397.679 242.045 397.935 241.92C398.193 241.795 398.398 241.619 398.548 241.392C398.702 241.165 398.778 240.898 398.778 240.591C398.778 240.207 398.645 239.882 398.378 239.615C398.111 239.345 397.688 239.21 397.108 239.21H395.114V242.108ZM404.776 238.273V247H403.719V239.381H403.668L401.538 240.795V239.722L403.719 238.273H404.776Z" fill="black"/>
<path d="M330.415 89H329.307L332.511 80.2727H333.602L336.807 89H335.699L333.091 81.6534H333.023L330.415 89ZM330.824 85.5909H335.29V86.5284H330.824V85.5909ZM340.671 80.2727V89H339.614V81.3807H339.563L337.432 82.7955V81.7216L339.614 80.2727H340.671Z" fill="black"/>
<path d="M236.58 128.136C235.966 128.136 235.438 127.991 234.994 127.702C234.551 127.412 234.21 127.013 233.972 126.504C233.733 125.996 233.614 125.415 233.614 124.761C233.614 124.097 233.736 123.51 233.98 123.001C234.227 122.49 234.571 122.091 235.011 121.804C235.455 121.514 235.972 121.369 236.562 121.369C237.023 121.369 237.438 121.455 237.807 121.625C238.176 121.795 238.479 122.034 238.714 122.341C238.95 122.648 239.097 123.006 239.153 123.415H238.148C238.071 123.116 237.901 122.852 237.636 122.622C237.375 122.389 237.023 122.273 236.58 122.273C236.188 122.273 235.844 122.375 235.548 122.58C235.256 122.781 235.027 123.067 234.862 123.436C234.7 123.803 234.619 124.233 234.619 124.727C234.619 125.233 234.699 125.673 234.858 126.048C235.02 126.423 235.247 126.714 235.54 126.922C235.835 127.129 236.182 127.233 236.58 127.233C236.841 127.233 237.078 127.188 237.291 127.097C237.504 127.006 237.685 126.875 237.832 126.705C237.98 126.534 238.085 126.33 238.148 126.091H239.153C239.097 126.477 238.956 126.825 238.732 127.135C238.51 127.442 238.216 127.686 237.849 127.868C237.486 128.047 237.063 128.136 236.58 128.136ZM240.607 128V127.233L243.487 124.08C243.825 123.71 244.104 123.389 244.322 123.116C244.541 122.841 244.703 122.582 244.808 122.341C244.916 122.097 244.97 121.841 244.97 121.574C244.97 121.267 244.896 121.001 244.749 120.777C244.604 120.553 244.405 120.379 244.152 120.257C243.899 120.135 243.615 120.074 243.3 120.074C242.964 120.074 242.672 120.143 242.422 120.283C242.175 120.419 241.983 120.611 241.847 120.858C241.713 121.105 241.646 121.395 241.646 121.727H240.641C240.641 121.216 240.759 120.767 240.994 120.381C241.23 119.994 241.551 119.693 241.957 119.477C242.366 119.261 242.825 119.153 243.334 119.153C243.845 119.153 244.298 119.261 244.693 119.477C245.088 119.693 245.398 119.984 245.622 120.351C245.847 120.717 245.959 121.125 245.959 121.574C245.959 121.895 245.901 122.209 245.784 122.516C245.67 122.82 245.472 123.159 245.188 123.534C244.906 123.906 244.516 124.361 244.016 124.898L242.055 126.994V127.062H246.112V128H240.607Z" fill="black"/>
<path d="M236.58 265.136C235.966 265.136 235.438 264.991 234.994 264.702C234.551 264.412 234.21 264.013 233.972 263.504C233.733 262.996 233.614 262.415 233.614 261.761C233.614 261.097 233.736 260.51 233.98 260.001C234.227 259.49 234.571 259.091 235.011 258.804C235.455 258.514 235.972 258.369 236.562 258.369C237.023 258.369 237.438 258.455 237.807 258.625C238.176 258.795 238.479 259.034 238.714 259.341C238.95 259.648 239.097 260.006 239.153 260.415H238.148C238.071 260.116 237.901 259.852 237.636 259.622C237.375 259.389 237.023 259.273 236.58 259.273C236.188 259.273 235.844 259.375 235.548 259.58C235.256 259.781 235.027 260.067 234.862 260.436C234.7 260.803 234.619 261.233 234.619 261.727C234.619 262.233 234.699 262.673 234.858 263.048C235.02 263.423 235.247 263.714 235.54 263.922C235.835 264.129 236.182 264.233 236.58 264.233C236.841 264.233 237.078 264.188 237.291 264.097C237.504 264.006 237.685 263.875 237.832 263.705C237.98 263.534 238.085 263.33 238.148 263.091H239.153C239.097 263.477 238.956 263.825 238.732 264.135C238.51 264.442 238.216 264.686 237.849 264.868C237.486 265.047 237.063 265.136 236.58 265.136ZM243.675 256.273V265H242.618V257.381H242.567L240.436 258.795V257.722L242.618 256.273H243.675Z" fill="black"/>
<path d="M489.392 264.136C488.847 264.136 488.365 263.999 487.947 263.723C487.53 263.445 487.203 263.053 486.967 262.547C486.732 262.038 486.614 261.438 486.614 260.744C486.614 260.057 486.732 259.46 486.967 258.955C487.203 258.449 487.531 258.058 487.952 257.783C488.372 257.507 488.858 257.369 489.409 257.369C489.835 257.369 490.172 257.44 490.419 257.582C490.669 257.722 490.859 257.881 490.99 258.06C491.124 258.236 491.227 258.381 491.301 258.494H491.386V255.273H492.392V264H491.42V262.994H491.301C491.227 263.114 491.122 263.264 490.986 263.446C490.849 263.625 490.655 263.786 490.402 263.928C490.149 264.067 489.813 264.136 489.392 264.136ZM489.528 263.233C489.932 263.233 490.273 263.128 490.551 262.918C490.83 262.705 491.041 262.411 491.186 262.036C491.331 261.658 491.403 261.222 491.403 260.727C491.403 260.239 491.332 259.811 491.19 259.445C491.048 259.075 490.838 258.788 490.56 258.584C490.281 258.376 489.938 258.273 489.528 258.273C489.102 258.273 488.747 258.382 488.463 258.601C488.182 258.817 487.97 259.111 487.828 259.483C487.689 259.852 487.619 260.267 487.619 260.727C487.619 261.193 487.69 261.616 487.832 261.997C487.977 262.375 488.19 262.676 488.472 262.901C488.756 263.122 489.108 263.233 489.528 263.233ZM497.425 255.273V264H496.368V256.381H496.317L494.186 257.795V256.722L496.368 255.273H497.425Z" fill="black"/>
<path d="M472.392 128.136C471.847 128.136 471.365 127.999 470.947 127.723C470.53 127.445 470.203 127.053 469.967 126.547C469.732 126.038 469.614 125.438 469.614 124.744C469.614 124.057 469.732 123.46 469.967 122.955C470.203 122.449 470.531 122.058 470.952 121.783C471.372 121.507 471.858 121.369 472.409 121.369C472.835 121.369 473.172 121.44 473.419 121.582C473.669 121.722 473.859 121.881 473.99 122.06C474.124 122.236 474.227 122.381 474.301 122.494H474.386V119.273H475.392V128H474.42V126.994H474.301C474.227 127.114 474.122 127.264 473.986 127.446C473.849 127.625 473.655 127.786 473.402 127.928C473.149 128.067 472.813 128.136 472.392 128.136ZM472.528 127.233C472.932 127.233 473.273 127.128 473.551 126.918C473.83 126.705 474.041 126.411 474.186 126.036C474.331 125.658 474.403 125.222 474.403 124.727C474.403 124.239 474.332 123.811 474.19 123.445C474.048 123.075 473.838 122.788 473.56 122.584C473.281 122.376 472.938 122.273 472.528 122.273C472.102 122.273 471.747 122.382 471.463 122.601C471.182 122.817 470.97 123.111 470.828 123.483C470.689 123.852 470.619 124.267 470.619 124.727C470.619 125.193 470.69 125.616 470.832 125.997C470.977 126.375 471.19 126.676 471.472 126.901C471.756 127.122 472.108 127.233 472.528 127.233ZM477.357 128V127.233L480.237 124.08C480.575 123.71 480.854 123.389 481.072 123.116C481.291 122.841 481.453 122.582 481.558 122.341C481.666 122.097 481.72 121.841 481.72 121.574C481.72 121.267 481.646 121.001 481.499 120.777C481.354 120.553 481.155 120.379 480.902 120.257C480.649 120.135 480.365 120.074 480.05 120.074C479.714 120.074 479.422 120.143 479.172 120.283C478.925 120.419 478.733 120.611 478.597 120.858C478.463 121.105 478.396 121.395 478.396 121.727H477.391C477.391 121.216 477.509 120.767 477.744 120.381C477.98 119.994 478.301 119.693 478.707 119.477C479.116 119.261 479.575 119.153 480.084 119.153C480.595 119.153 481.048 119.261 481.443 119.477C481.838 119.693 482.148 119.984 482.372 120.351C482.597 120.717 482.709 121.125 482.709 121.574C482.709 121.895 482.651 122.209 482.534 122.516C482.42 122.82 482.222 123.159 481.938 123.534C481.656 123.906 481.266 124.361 480.766 124.898L478.805 126.994V127.062H482.862V128H477.357Z" fill="black"/>
</svg>
