<svg width="829" height="469" viewBox="0 0 829 469" fill="none" xmlns="http://www.w3.org/2000/svg">
<rect width="829" height="469" fill="white"/>
<g clip-path="url(#clip0_16_51)">
<path d="M60 87.5H210V237.5H60V87.5Z" fill="#FFFEBA" stroke="black" stroke-width="2"/>
<path d="M60 237.5H210L280 287.5H130L60 237.5Z" fill="#FFFEBA" stroke="black" stroke-width="2"/>
<path d="M170 112.5L280 137.5V267.5L170 242.5V112.5Z" fill="#FFFEBA" stroke="black" stroke-width="2"/>
<path d="M210 157.5L170 147.5H90L135 177.5L210 157.5Z" stroke="black"/>
<path d="M90 147.5V237.5L135 267.5L210 252.5V157.5" stroke="black"/>
<path d="M135 177.5V267.5" stroke="black"/>
<path d="M90 150.5C91.6569 150.5 93 149.157 93 147.5C93 145.843 91.6569 144.5 90 144.5C88.3431 144.5 87 145.843 87 147.5C87 149.157 88.3431 150.5 90 150.5Z" fill="#B9B9B9" stroke="black"/>
<path d="M135 270.5C136.657 270.5 138 269.157 138 267.5C138 265.843 136.657 264.5 135 264.5C133.343 264.5 132 265.843 132 267.5C132 269.157 133.343 270.5 135 270.5Z" fill="#B9B9B9" stroke="black"/>
<path d="M210 160.5C211.657 160.5 213 159.157 213 157.5C213 155.843 211.657 154.5 210 154.5C208.343 154.5 207 155.843 207 157.5C207 159.157 208.343 160.5 210 160.5Z" fill="#B9B9B9" stroke="black"/>
<path d="M135 180.5C136.657 180.5 138 179.157 138 177.5C138 175.843 136.657 174.5 135 174.5C133.343 174.5 132 175.843 132 177.5C132 179.157 133.343 180.5 135 180.5Z" fill="#B9B9B9" stroke="black"/>
<path d="M550 217.5V257.5" stroke="black" stroke-width="2"/>
<path d="M430 237.5H570" stroke="black"/>
<path d="M557.75 235.119C557.108 235.119 556.561 234.945 556.109 234.595C555.658 234.243 555.313 233.733 555.074 233.065C554.835 232.395 554.716 231.585 554.716 230.636C554.716 229.693 554.835 228.888 555.074 228.22C555.315 227.55 555.662 227.038 556.114 226.686C556.568 226.331 557.114 226.153 557.75 226.153C558.386 226.153 558.93 226.331 559.382 226.686C559.837 227.038 560.183 227.55 560.422 228.22C560.663 228.888 560.784 229.693 560.784 230.636C560.784 231.585 560.665 232.395 560.426 233.065C560.188 233.733 559.842 234.243 559.391 234.595C558.939 234.945 558.392 235.119 557.75 235.119ZM557.75 234.182C558.386 234.182 558.881 233.875 559.233 233.261C559.585 232.648 559.761 231.773 559.761 230.636C559.761 229.881 559.68 229.237 559.518 228.706C559.359 228.175 559.129 227.77 558.828 227.491C558.53 227.213 558.17 227.074 557.75 227.074C557.119 227.074 556.626 227.385 556.271 228.007C555.916 228.626 555.739 229.503 555.739 230.636C555.739 231.392 555.818 232.034 555.977 232.562C556.136 233.091 556.365 233.493 556.663 233.768C556.964 234.044 557.327 234.182 557.75 234.182Z" fill="black"/>
<path d="M415.67 235.455L417.239 238.131L418.807 235.455H419.966L417.852 238.727L419.966 242H418.807L417.239 239.46L415.67 242H414.511L416.591 238.727L414.511 235.455H415.67ZM422.135 238.364V242H421.695V238.825H421.674L420.786 239.415V238.967L421.695 238.364H422.135ZM423.181 242V241.68L424.381 240.366C424.522 240.213 424.638 240.079 424.729 239.965C424.821 239.85 424.888 239.743 424.932 239.642C424.977 239.54 424.999 239.434 424.999 239.322C424.999 239.195 424.969 239.084 424.907 238.99C424.847 238.897 424.764 238.825 424.658 238.774C424.553 238.723 424.435 238.697 424.303 238.697C424.164 238.697 424.042 238.726 423.938 238.784C423.835 238.841 423.755 238.921 423.698 239.024C423.642 239.127 423.614 239.248 423.614 239.386H423.195C423.195 239.173 423.244 238.986 423.343 238.825C423.441 238.664 423.575 238.539 423.744 238.449C423.914 238.359 424.106 238.314 424.317 238.314C424.531 238.314 424.719 238.359 424.884 238.449C425.048 238.539 425.177 238.66 425.271 238.813C425.364 238.966 425.411 239.135 425.411 239.322C425.411 239.456 425.387 239.587 425.338 239.715C425.291 239.842 425.208 239.983 425.09 240.139C424.973 240.294 424.81 240.484 424.602 240.707L423.785 241.581V241.609H425.475V242H423.181Z" fill="black"/>
<path d="M42.6705 231.455L44.2386 234.131L45.8068 231.455H46.9659L44.8523 234.727L46.9659 238H45.8068L44.2386 235.46L42.6705 238H41.5114L43.5909 234.727L41.5114 231.455H42.6705ZM49.1353 234.364V238H48.695V234.825H48.6737L47.7859 235.415V234.967L48.695 234.364H49.1353ZM50.1811 238V237.68L51.3814 236.366C51.5223 236.213 51.6383 236.079 51.7294 235.965C51.8205 235.85 51.888 235.743 51.9318 235.642C51.9768 235.54 51.9993 235.434 51.9993 235.322C51.9993 235.195 51.9685 235.084 51.907 234.99C51.8466 234.897 51.7637 234.825 51.6584 234.774C51.553 234.723 51.4347 234.697 51.3033 234.697C51.1636 234.697 51.0417 234.726 50.9375 234.784C50.8345 234.841 50.7546 234.921 50.6978 235.024C50.6422 235.127 50.6143 235.248 50.6143 235.386H50.1953C50.1953 235.173 50.2444 234.986 50.3427 234.825C50.4409 234.664 50.5747 234.539 50.744 234.449C50.9144 234.359 51.1056 234.314 51.3175 234.314C51.5305 234.314 51.7193 234.359 51.8839 234.449C52.0484 234.539 52.1774 234.66 52.271 234.813C52.3645 234.966 52.4112 235.135 52.4112 235.322C52.4112 235.456 52.387 235.587 52.3384 235.715C52.2911 235.842 52.2082 235.983 52.0898 236.139C51.9727 236.294 51.8099 236.484 51.6016 236.707L50.7848 237.581V237.609H52.4751V238H50.1811Z" fill="black"/>
<path d="M72.5852 94.2727V103H71.5284V95.2102H67.1307V103H66.0739V94.2727H72.5852ZM74.5636 103V102.233L77.4442 99.0795C77.7823 98.7102 78.0607 98.3892 78.2795 98.1165C78.4982 97.8409 78.6602 97.5824 78.7653 97.3409C78.8732 97.0966 78.9272 96.8409 78.9272 96.5739C78.9272 96.267 78.8533 96.0014 78.7056 95.777C78.5607 95.5526 78.3619 95.3793 78.109 95.2571C77.8562 95.1349 77.5721 95.0739 77.2567 95.0739C76.9215 95.0739 76.6289 95.1435 76.3789 95.2827C76.1317 95.419 75.94 95.6108 75.8036 95.858C75.6701 96.1051 75.6033 96.3949 75.6033 96.7273H74.5977C74.5977 96.2159 74.7156 95.767 74.9513 95.3807C75.1871 94.9943 75.5082 94.6932 75.9144 94.4773C76.3235 94.2614 76.7823 94.1534 77.2908 94.1534C77.8022 94.1534 78.2553 94.2614 78.6502 94.4773C79.0451 94.6932 79.3548 94.9844 79.5792 95.3509C79.8036 95.7173 79.9158 96.125 79.9158 96.5739C79.9158 96.8949 79.8576 97.2088 79.7411 97.5156C79.6275 97.8196 79.4286 98.1591 79.1445 98.5341C78.8633 98.9062 78.4727 99.3608 77.9727 99.8977L76.0124 101.994V102.062H80.0692V103H74.5636Z" fill="black"/>
<path d="M150.585 274.273V283H149.528V275.21H145.131V283H144.074V274.273H150.585ZM155.632 274.273V283H154.575V275.381H154.524L152.393 276.795V275.722L154.575 274.273H155.632Z" fill="black"/>
<path d="M269.585 142.273V151H268.528V143.21H264.131V151H263.074V142.273H269.585ZM271.359 149.21V148.341L275.194 142.273H275.825V143.619H275.399L272.501 148.205V148.273H277.666V149.21H271.359ZM275.467 151V148.946V148.541V142.273H276.473V151H275.467Z" fill="black"/>
<path d="M135.415 170H134.307L137.511 161.273H138.602L141.807 170H140.699L138.091 162.653H138.023L135.415 170ZM135.824 166.591H140.29V167.528H135.824V166.591Z" fill="black"/>
<path d="M83.4148 139H82.3068L85.5114 130.273H86.6023L89.8068 139H88.6989L86.0909 131.653H86.0227L83.4148 139ZM83.8239 135.591H88.2898V136.528H83.8239V135.591ZM91.0128 139V138.233L93.8935 135.08C94.2315 134.71 94.5099 134.389 94.7287 134.116C94.9474 133.841 95.1094 133.582 95.2145 133.341C95.3224 133.097 95.3764 132.841 95.3764 132.574C95.3764 132.267 95.3026 132.001 95.1548 131.777C95.0099 131.553 94.8111 131.379 94.5582 131.257C94.3054 131.135 94.0213 131.074 93.706 131.074C93.3707 131.074 93.0781 131.143 92.8281 131.283C92.581 131.419 92.3892 131.611 92.2528 131.858C92.1193 132.105 92.0526 132.395 92.0526 132.727H91.0469C91.0469 132.216 91.1648 131.767 91.4006 131.381C91.6364 130.994 91.9574 130.693 92.3636 130.477C92.7727 130.261 93.2315 130.153 93.7401 130.153C94.2514 130.153 94.7045 130.261 95.0994 130.477C95.4943 130.693 95.804 130.984 96.0284 131.351C96.2528 131.717 96.3651 132.125 96.3651 132.574C96.3651 132.895 96.3068 133.209 96.1903 133.516C96.0767 133.82 95.8778 134.159 95.5938 134.534C95.3125 134.906 94.9219 135.361 94.4219 135.898L92.4616 137.994V138.062H96.5185V139H91.0128Z" fill="black"/>
<path d="M139.415 260H138.307L141.511 251.273H142.602L145.807 260H144.699L142.091 252.653H142.023L139.415 260ZM139.824 256.591H144.29V257.528H139.824V256.591ZM149.671 251.273V260H148.614V252.381H148.563L146.432 253.795V252.722L148.614 251.273H149.671Z" fill="black"/>
<path d="M211.415 149H210.307L213.511 140.273H214.602L217.807 149H216.699L214.091 141.653H214.023L211.415 149ZM211.824 145.591H216.29V146.528H211.824V145.591ZM218.808 147.21V146.341L222.643 140.273H223.274V141.619H222.848L219.95 146.205V146.273H225.115V147.21H218.808ZM222.916 149V146.946V146.541V140.273H223.922V149H222.916Z" fill="black"/>
<path d="M189.307 233.273H190.517L192.938 237.347H193.04L195.46 233.273H196.67L193.517 238.403V242H192.46V238.403L189.307 233.273Z" fill="black"/>
<path d="M109.307 240.273H110.517L112.938 244.347H113.04L115.46 240.273H116.67L113.517 245.403V249H112.46V245.403L109.307 240.273Z" fill="black"/>
<path d="M189.307 137.273H190.517L192.938 141.347H193.04L195.46 137.273H196.67L193.517 142.403V146H192.46V142.403L189.307 137.273Z" fill="black"/>
<path d="M94.767 187V186.233L99.4716 179.21H94.7159V178.273H100.733V179.04L96.0284 186.062H100.784V187H94.767Z" fill="black"/>
<path d="M139.767 223V222.233L144.472 215.21H139.716V214.273H145.733V215.04L141.028 222.062H145.784V223H139.767Z" fill="black"/>
<path d="M284.67 261.455L286.239 264.131L287.807 261.455H288.966L286.852 264.727L288.966 268H287.807L286.239 265.46L284.67 268H283.511L285.591 264.727L283.511 261.455H284.67ZM291.135 264.364V268H290.695V264.825H290.674L289.786 265.415V264.967L290.695 264.364H291.135ZM292.096 267.254V266.892L293.694 264.364H293.957V264.925H293.779L292.572 266.835V266.864H294.724V267.254H292.096ZM293.808 268V267.144V266.975V264.364H294.227V268H293.808Z" fill="black"/>
<path d="M285.568 294.455C285.398 294.455 285.246 294.44 285.112 294.412C284.979 294.386 284.886 294.361 284.835 294.335L285.091 293.449C285.335 293.511 285.551 293.534 285.739 293.517C285.926 293.5 286.092 293.416 286.237 293.266C286.385 293.118 286.52 292.878 286.642 292.545L286.83 292.034L284.409 285.455H285.5L287.307 290.67H287.375L289.182 285.455H290.273L287.494 292.955C287.369 293.293 287.214 293.572 287.03 293.794C286.845 294.018 286.631 294.185 286.386 294.293C286.145 294.401 285.872 294.455 285.568 294.455Z" fill="black"/>
<path d="M213.733 85V84.233L217.449 79.4602V79.392H213.852V78.4545H218.744V79.2557L215.131 83.9943V84.0625H218.864V85H213.733Z" fill="black"/>
</g>
<defs>
<clipPath id="clip0_16_51">
<rect width="548" height="216" fill="white" transform="translate(38 79)"/>
</clipPath>
</defs>
</svg>
