<svg width="829" height="469" viewBox="0 0 829 469" fill="none" xmlns="http://www.w3.org/2000/svg">
<rect width="829" height="469" fill="white"/>
<path d="M88 93H238V243H88V93Z" fill="#FFFEBA" stroke="black" stroke-width="2"/>
<path d="M88 243H238L308 293H158L88 243Z" fill="#FFFEBA" stroke="black" stroke-width="2"/>
<path d="M163 183L118 153" stroke="black"/>
<path d="M163 183V273" stroke="black"/>
<path d="M163 186C164.657 186 166 184.657 166 183C166 181.343 164.657 180 163 180C161.343 180 160 181.343 160 183C160 184.657 161.343 186 163 186Z" fill="#B9B9B9" stroke="black"/>
<path d="M118 153V243L163 273" stroke="black"/>
<path d="M118 156C119.657 156 121 154.657 121 153C121 151.343 119.657 150 118 150C116.343 150 115 151.343 115 153C115 154.657 116.343 156 118 156Z" fill="#B9B9B9" stroke="black"/>
<path d="M163 276C164.657 276 166 274.657 166 273C166 271.343 164.657 270 163 270C161.343 270 160 271.343 160 273C160 274.657 161.343 276 163 276Z" fill="#B9B9B9" stroke="black"/>
<path d="M172.415 173H171.307L174.511 164.273H175.602L178.807 173H177.699L175.091 165.653H175.023L172.415 173ZM172.824 169.591H177.29V170.528H172.824V169.591Z" fill="black"/>
<path d="M173.415 270H172.307L175.511 261.273H176.602L179.807 270H178.699L176.091 262.653H176.023L173.415 270ZM173.824 266.591H178.29V267.528H173.824V266.591ZM183.671 261.273V270H182.614V262.381H182.563L180.432 263.795V262.722L182.614 261.273H183.671Z" fill="black"/>
<path d="M116.415 141H115.307L118.511 132.273H119.602L122.807 141H121.699L119.091 133.653H119.023L116.415 141ZM116.824 137.591H121.29V138.528H116.824V137.591ZM124.013 141V140.233L126.893 137.08C127.232 136.71 127.51 136.389 127.729 136.116C127.947 135.841 128.109 135.582 128.214 135.341C128.322 135.097 128.376 134.841 128.376 134.574C128.376 134.267 128.303 134.001 128.155 133.777C128.01 133.553 127.811 133.379 127.558 133.257C127.305 133.135 127.021 133.074 126.706 133.074C126.371 133.074 126.078 133.143 125.828 133.283C125.581 133.419 125.389 133.611 125.253 133.858C125.119 134.105 125.053 134.395 125.053 134.727H124.047C124.047 134.216 124.165 133.767 124.401 133.381C124.636 132.994 124.957 132.693 125.364 132.477C125.773 132.261 126.232 132.153 126.74 132.153C127.251 132.153 127.705 132.261 128.099 132.477C128.494 132.693 128.804 132.984 129.028 133.351C129.253 133.717 129.365 134.125 129.365 134.574C129.365 134.895 129.307 135.209 129.19 135.516C129.077 135.82 128.878 136.159 128.594 136.534C128.312 136.906 127.922 137.361 127.422 137.898L125.462 139.994V140.062H129.518V141H124.013Z" fill="black"/>
<path d="M101.585 102.273V111H100.528V103.21H96.1307V111H95.0739V102.273H101.585ZM103.564 111V110.233L106.444 107.08C106.782 106.71 107.061 106.389 107.279 106.116C107.498 105.841 107.66 105.582 107.765 105.341C107.873 105.097 107.927 104.841 107.927 104.574C107.927 104.267 107.853 104.001 107.706 103.777C107.561 103.553 107.362 103.379 107.109 103.257C106.856 103.135 106.572 103.074 106.257 103.074C105.922 103.074 105.629 103.143 105.379 103.283C105.132 103.419 104.94 103.611 104.804 103.858C104.67 104.105 104.603 104.395 104.603 104.727H103.598C103.598 104.216 103.716 103.767 103.951 103.381C104.187 102.994 104.508 102.693 104.914 102.477C105.324 102.261 105.782 102.153 106.291 102.153C106.802 102.153 107.255 102.261 107.65 102.477C108.045 102.693 108.355 102.984 108.579 103.351C108.804 103.717 108.916 104.125 108.916 104.574C108.916 104.895 108.858 105.209 108.741 105.516C108.627 105.82 108.429 106.159 108.145 106.534C107.863 106.906 107.473 107.361 106.973 107.898L105.012 109.994V110.062H109.069V111H103.564Z" fill="black"/>
<path d="M187.585 279.273V288H186.528V280.21H182.131V288H181.074V279.273H187.585ZM192.632 279.273V288H191.575V280.381H191.524L189.393 281.795V280.722L191.575 279.273H192.632Z" fill="black"/>
<path d="M121.767 204V203.233L126.472 196.21H121.716V195.273H127.733V196.04L123.028 203.062H127.784V204H121.767Z" fill="black"/>
<path d="M316.568 298.455C316.398 298.455 316.246 298.44 316.112 298.412C315.979 298.386 315.886 298.361 315.835 298.335L316.091 297.449C316.335 297.511 316.551 297.534 316.739 297.517C316.926 297.5 317.092 297.416 317.237 297.266C317.385 297.118 317.52 296.878 317.642 296.545L317.83 296.034L315.409 289.455H316.5L318.307 294.67H318.375L320.182 289.455H321.273L318.494 296.955C318.369 297.293 318.214 297.572 318.03 297.794C317.845 298.018 317.631 298.185 317.386 298.293C317.145 298.401 316.872 298.455 316.568 298.455Z" fill="black"/>
<path d="M243.733 84V83.233L247.449 78.4602V78.392H243.852V77.4545H248.744V78.2557L245.131 82.9943V83.0625H248.864V84H243.733Z" fill="black"/>
<path d="M140.307 246.273H141.517L143.938 250.347H144.04L146.46 246.273H147.67L144.517 251.403V255H143.46V251.403L140.307 246.273Z" fill="black"/>
<path d="M167.767 225V224.233L172.472 217.21H167.716V216.273H173.733V217.04L169.028 224.062H173.784V225H167.767Z" fill="black"/>
<path d="M206.568 228.273L208.818 231.903H208.886L211.136 228.273H212.381L209.636 232.636L212.381 237H211.136L208.886 233.438H208.818L206.568 237H205.324L208.136 232.636L205.324 228.273H206.568Z" fill="black"/>
<path d="M79.9858 244.636V249H79.4574V245.19H79.4318L78.3665 245.898V245.361L79.4574 244.636H79.9858ZM81.2408 249V248.616L82.6811 247.04C82.8501 246.855 82.9893 246.695 83.0987 246.558C83.2081 246.42 83.2891 246.291 83.3416 246.17C83.3956 246.048 83.4226 245.92 83.4226 245.787C83.4226 245.634 83.3857 245.501 83.3118 245.388C83.2393 245.276 83.1399 245.19 83.0135 245.129C82.8871 245.067 82.745 245.037 82.5874 245.037C82.4197 245.037 82.2734 245.072 82.1484 245.141C82.0249 245.21 81.929 245.305 81.8608 245.429C81.794 245.553 81.7607 245.697 81.7607 245.864H81.2578C81.2578 245.608 81.3168 245.384 81.4347 245.19C81.5526 244.997 81.7131 244.847 81.9162 244.739C82.1207 244.631 82.3501 244.577 82.6044 244.577C82.8601 244.577 83.0866 244.631 83.2841 244.739C83.4815 244.847 83.6364 244.992 83.7486 245.175C83.8608 245.359 83.9169 245.562 83.9169 245.787C83.9169 245.947 83.8878 246.104 83.8295 246.258C83.7727 246.41 83.6733 246.58 83.5312 246.767C83.3906 246.953 83.1953 247.18 82.9453 247.449L81.9652 248.497V248.531H83.9936V249H81.2408Z" fill="black"/>
<path d="M247.75 240.119C247.108 240.119 246.561 239.945 246.109 239.595C245.658 239.243 245.313 238.733 245.074 238.065C244.835 237.395 244.716 236.585 244.716 235.636C244.716 234.693 244.835 233.888 245.074 233.22C245.315 232.55 245.662 232.038 246.114 231.686C246.568 231.331 247.114 231.153 247.75 231.153C248.386 231.153 248.93 231.331 249.382 231.686C249.837 232.038 250.183 232.55 250.422 233.22C250.663 233.888 250.784 234.693 250.784 235.636C250.784 236.585 250.665 237.395 250.426 238.065C250.188 238.733 249.842 239.243 249.391 239.595C248.939 239.945 248.392 240.119 247.75 240.119ZM247.75 239.182C248.386 239.182 248.881 238.875 249.233 238.261C249.585 237.648 249.761 236.773 249.761 235.636C249.761 234.881 249.68 234.237 249.518 233.706C249.359 233.175 249.129 232.77 248.828 232.491C248.53 232.213 248.17 232.074 247.75 232.074C247.119 232.074 246.626 232.385 246.271 233.007C245.916 233.626 245.739 234.503 245.739 235.636C245.739 236.392 245.818 237.034 245.977 237.562C246.136 238.091 246.365 238.493 246.663 238.768C246.964 239.044 247.327 239.182 247.75 239.182Z" fill="black"/>
<path d="M586.568 347.455C586.398 347.455 586.246 347.44 586.112 347.412C585.979 347.386 585.886 347.361 585.835 347.335L586.091 346.449C586.335 346.511 586.551 346.534 586.739 346.517C586.926 346.5 587.092 346.416 587.237 346.266C587.385 346.118 587.52 345.878 587.642 345.545L587.83 345.034L585.409 338.455H586.5L588.307 343.67H588.375L590.182 338.455H591.273L588.494 345.955C588.369 346.293 588.214 346.572 588.03 346.794C587.845 347.018 587.631 347.185 587.386 347.293C587.145 347.401 586.872 347.455 586.568 347.455ZM593.335 341.364V345H592.894V341.825H592.873L591.985 342.415V341.967L592.894 341.364H593.335Z" fill="black"/>
<path d="M584.733 135V134.233L588.449 129.46V129.392H584.852V128.455H589.744V129.256L586.131 133.994V134.062H589.864V135H584.733ZM590.944 135V134.616L592.384 133.04C592.553 132.855 592.692 132.695 592.802 132.558C592.911 132.42 592.992 132.291 593.045 132.17C593.099 132.048 593.126 131.92 593.126 131.787C593.126 131.634 593.089 131.501 593.015 131.388C592.942 131.276 592.843 131.19 592.717 131.129C592.59 131.067 592.448 131.037 592.29 131.037C592.123 131.037 591.977 131.072 591.852 131.141C591.728 131.21 591.632 131.305 591.564 131.429C591.497 131.553 591.464 131.697 591.464 131.864H590.961C590.961 131.608 591.02 131.384 591.138 131.19C591.256 130.997 591.416 130.847 591.619 130.739C591.824 130.631 592.053 130.577 592.308 130.577C592.563 130.577 592.79 130.631 592.987 130.739C593.185 130.847 593.339 130.992 593.452 131.175C593.564 131.359 593.62 131.562 593.62 131.787C593.62 131.947 593.591 132.104 593.533 132.258C593.476 132.41 593.376 132.58 593.234 132.767C593.094 132.953 592.898 133.18 592.648 133.449L591.668 134.497V134.531H593.697V135H590.944ZM596.051 135.06C595.77 135.06 595.519 135.011 595.299 134.915C595.08 134.818 594.906 134.684 594.777 134.512C594.649 134.339 594.58 134.138 594.568 133.909H595.105C595.116 134.05 595.165 134.171 595.25 134.273C595.335 134.374 595.447 134.452 595.585 134.508C595.722 134.563 595.875 134.591 596.043 134.591C596.23 134.591 596.396 134.558 596.541 134.493C596.686 134.428 596.8 134.337 596.882 134.22C596.964 134.104 597.006 133.969 597.006 133.815C597.006 133.655 596.966 133.513 596.886 133.391C596.807 133.268 596.69 133.171 596.537 133.102C596.384 133.032 596.196 132.997 595.974 132.997H595.625V132.528H595.974C596.148 132.528 596.3 132.497 596.43 132.435C596.563 132.372 596.665 132.284 596.739 132.17C596.815 132.057 596.852 131.923 596.852 131.77C596.852 131.622 596.82 131.494 596.754 131.384C596.689 131.275 596.597 131.19 596.477 131.129C596.359 131.067 596.22 131.037 596.06 131.037C595.909 131.037 595.767 131.065 595.634 131.12C595.501 131.174 595.393 131.253 595.31 131.357C595.226 131.459 595.18 131.582 595.173 131.727H594.662C594.67 131.499 594.739 131.298 594.869 131.126C594.998 130.953 595.167 130.818 595.376 130.722C595.586 130.625 595.817 130.577 596.068 130.577C596.338 130.577 596.57 130.631 596.763 130.741C596.956 130.849 597.104 130.991 597.208 131.169C597.312 131.347 597.364 131.538 597.364 131.744C597.364 131.99 597.299 132.2 597.17 132.373C597.042 132.546 596.868 132.666 596.648 132.733V132.767C596.923 132.812 597.138 132.93 597.293 133.119C597.448 133.306 597.526 133.538 597.526 133.815C597.526 134.053 597.461 134.266 597.332 134.455C597.204 134.642 597.029 134.79 596.808 134.898C596.586 135.006 596.334 135.06 596.051 135.06Z" fill="black"/>
<path d="M467.986 235.636V240H467.457V236.19H467.432L466.366 236.898V236.361L467.457 235.636H467.986ZM469.241 240V239.616L470.681 238.04C470.85 237.855 470.989 237.695 471.099 237.558C471.208 237.42 471.289 237.291 471.342 237.17C471.396 237.048 471.423 236.92 471.423 236.787C471.423 236.634 471.386 236.501 471.312 236.388C471.239 236.276 471.14 236.19 471.013 236.129C470.887 236.067 470.745 236.037 470.587 236.037C470.42 236.037 470.273 236.072 470.148 236.141C470.025 236.21 469.929 236.305 469.861 236.429C469.794 236.553 469.761 236.697 469.761 236.864H469.258C469.258 236.608 469.317 236.384 469.435 236.19C469.553 235.997 469.713 235.847 469.916 235.739C470.121 235.631 470.35 235.577 470.604 235.577C470.86 235.577 471.087 235.631 471.284 235.739C471.482 235.847 471.636 235.992 471.749 236.175C471.861 236.359 471.917 236.562 471.917 236.787C471.917 236.947 471.888 237.104 471.83 237.258C471.773 237.41 471.673 237.58 471.531 237.767C471.391 237.953 471.195 238.18 470.945 238.449L469.965 239.497V239.531H471.994V240H469.241Z" fill="black"/>
<path d="M592.75 233.119C592.108 233.119 591.561 232.945 591.109 232.595C590.658 232.243 590.313 231.733 590.074 231.065C589.835 230.395 589.716 229.585 589.716 228.636C589.716 227.693 589.835 226.888 590.074 226.22C590.315 225.55 590.662 225.038 591.114 224.686C591.568 224.331 592.114 224.153 592.75 224.153C593.386 224.153 593.93 224.331 594.382 224.686C594.837 225.038 595.183 225.55 595.422 226.22C595.663 226.888 595.784 227.693 595.784 228.636C595.784 229.585 595.665 230.395 595.426 231.065C595.188 231.733 594.842 232.243 594.391 232.595C593.939 232.945 593.392 233.119 592.75 233.119ZM592.75 232.182C593.386 232.182 593.881 231.875 594.233 231.261C594.585 230.648 594.761 229.773 594.761 228.636C594.761 227.881 594.68 227.237 594.518 226.706C594.359 226.175 594.129 225.77 593.828 225.491C593.53 225.213 593.17 225.074 592.75 225.074C592.119 225.074 591.626 225.385 591.271 226.007C590.916 226.626 590.739 227.503 590.739 228.636C590.739 229.392 590.818 230.034 590.977 230.562C591.136 231.091 591.365 231.493 591.663 231.768C591.964 232.044 592.327 232.182 592.75 232.182Z" fill="black"/>
<path d="M72.6705 241.455L74.2386 244.131L75.8068 241.455H76.9659L74.8523 244.727L76.9659 248H75.8068L74.2386 245.46L72.6705 248H71.5114L73.5909 244.727L71.5114 241.455H72.6705Z" fill="black"/>
<path d="M460.67 232.455L462.239 235.131L463.807 232.455H464.966L462.852 235.727L464.966 239H463.807L462.239 236.46L460.67 239H459.511L461.591 235.727L459.511 232.455H460.67Z" fill="black"/>
<line x1="580.5" y1="136" x2="580.5" y2="348" stroke="black"/>
<line x1="607" y1="242.5" x2="459" y2="242.5" stroke="black"/>
</svg>
