<svg width="829" height="469" viewBox="0 0 829 469" fill="none" xmlns="http://www.w3.org/2000/svg">
<rect width="829" height="469" fill="white"/>
<path d="M63 98H213V248H63V98Z" fill="#FFFEBA" stroke="black" stroke-width="2"/>
<path d="M213 98L283 148V298L213 248V98Z" fill="#FFFEBA" stroke="black" stroke-width="2"/>
<path d="M63 248H213L283 298H133L63 248Z" fill="#FFFEBA" stroke="black" stroke-width="2"/>
<path d="M258 188H138L93 158" stroke="black"/>
<path d="M138 188V278" stroke="black"/>
<path d="M138 191C139.657 191 141 189.657 141 188C141 186.343 139.657 185 138 185C136.343 185 135 186.343 135 188C135 189.657 136.343 191 138 191Z" fill="#B9B9B9" stroke="black"/>
<path d="M258 188L213 158H93V248L138 278" stroke="black"/>
<path d="M93 161C94.6569 161 96 159.657 96 158C96 156.343 94.6569 155 93 155C91.3431 155 90 156.343 90 158C90 159.657 91.3431 161 93 161Z" fill="#B9B9B9" stroke="black"/>
<path d="M138 281C139.657 281 141 279.657 141 278C141 276.343 139.657 275 138 275C136.343 275 135 276.343 135 278C135 279.657 136.343 281 138 281Z" fill="#B9B9B9" stroke="black"/>
<path d="M258 191C259.657 191 261 189.657 261 188C261 186.343 259.657 185 258 185C256.343 185 255 186.343 255 188C255 189.657 256.343 191 258 191Z" fill="#B9B9B9" stroke="black"/>
<path d="M553 128V368V128Z" fill="#FFFEBA"/>
<path d="M553 128V368" stroke="black"/>
<path d="M433 248H673H433Z" fill="#FFFEBA"/>
<path d="M433 248H673" stroke="black"/>
<path d="M222.75 245.119C222.108 245.119 221.561 244.945 221.109 244.595C220.658 244.243 220.313 243.733 220.074 243.065C219.835 242.395 219.716 241.585 219.716 240.636C219.716 239.693 219.835 238.888 220.074 238.22C220.315 237.55 220.662 237.038 221.114 236.686C221.568 236.331 222.114 236.153 222.75 236.153C223.386 236.153 223.93 236.331 224.382 236.686C224.837 237.038 225.183 237.55 225.422 238.22C225.663 238.888 225.784 239.693 225.784 240.636C225.784 241.585 225.665 242.395 225.426 243.065C225.188 243.733 224.842 244.243 224.391 244.595C223.939 244.945 223.392 245.119 222.75 245.119ZM222.75 244.182C223.386 244.182 223.881 243.875 224.233 243.261C224.585 242.648 224.761 241.773 224.761 240.636C224.761 239.881 224.68 239.237 224.518 238.706C224.359 238.175 224.129 237.77 223.828 237.491C223.53 237.213 223.17 237.074 222.75 237.074C222.119 237.074 221.626 237.385 221.271 238.007C220.916 238.626 220.739 239.503 220.739 240.636C220.739 241.392 220.818 242.034 220.977 242.562C221.136 243.091 221.365 243.493 221.663 243.768C221.964 244.044 222.327 244.182 222.75 244.182Z" fill="black"/>
<path d="M560.75 242.119C560.108 242.119 559.561 241.945 559.109 241.595C558.658 241.243 558.313 240.733 558.074 240.065C557.835 239.395 557.716 238.585 557.716 237.636C557.716 236.693 557.835 235.888 558.074 235.22C558.315 234.55 558.662 234.038 559.114 233.686C559.568 233.331 560.114 233.153 560.75 233.153C561.386 233.153 561.93 233.331 562.382 233.686C562.837 234.038 563.183 234.55 563.422 235.22C563.663 235.888 563.784 236.693 563.784 237.636C563.784 238.585 563.665 239.395 563.426 240.065C563.188 240.733 562.842 241.243 562.391 241.595C561.939 241.945 561.392 242.119 560.75 242.119ZM560.75 241.182C561.386 241.182 561.881 240.875 562.233 240.261C562.585 239.648 562.761 238.773 562.761 237.636C562.761 236.881 562.68 236.237 562.518 235.706C562.359 235.175 562.129 234.77 561.828 234.491C561.53 234.213 561.17 234.074 560.75 234.074C560.119 234.074 559.626 234.385 559.271 235.007C558.916 235.626 558.739 236.503 558.739 237.636C558.739 238.392 558.818 239.034 558.977 239.562C559.136 240.091 559.365 240.493 559.663 240.768C559.964 241.044 560.327 241.182 560.75 241.182Z" fill="black"/>
<path d="M142.415 182H141.307L144.511 173.273H145.602L148.807 182H147.699L145.091 174.653H145.023L142.415 182ZM142.824 178.591H147.29V179.528H142.824V178.591Z" fill="black"/>
<path d="M189.568 173.273L191.818 176.903H191.886L194.136 173.273H195.381L192.636 177.636L195.381 182H194.136L191.886 178.438H191.818L189.568 182H188.324L191.136 177.636L188.324 173.273H189.568Z" fill="black"/>
<path d="M175.568 236.273L177.818 239.903H177.886L180.136 236.273H181.381L178.636 240.636L181.381 245H180.136L177.886 241.438H177.818L175.568 245H174.324L177.136 240.636L174.324 236.273H175.568Z" fill="black"/>
<path d="M141.767 234V233.233L146.472 226.21H141.716V225.273H147.733V226.04L143.028 233.062H147.784V234H141.767Z" fill="black"/>
<path d="M96.767 210V209.233L101.472 202.21H96.7159V201.273H102.733V202.04L98.0284 209.062H102.784V210H96.767Z" fill="black"/>
<path d="M114.307 251.273H115.517L117.938 255.347H118.04L120.46 251.273H121.67L118.517 256.403V260H117.46V256.403L114.307 251.273Z" fill="black"/>
<path d="M290.568 304.455C290.398 304.455 290.246 304.44 290.112 304.412C289.979 304.386 289.886 304.361 289.835 304.335L290.091 303.449C290.335 303.511 290.551 303.534 290.739 303.517C290.926 303.5 291.092 303.416 291.237 303.266C291.385 303.118 291.52 302.878 291.642 302.545L291.83 302.034L289.409 295.455H290.5L292.307 300.67H292.375L294.182 295.455H295.273L292.494 302.955C292.369 303.293 292.214 303.572 292.03 303.794C291.845 304.018 291.631 304.185 291.386 304.293C291.145 304.401 290.872 304.455 290.568 304.455ZM297.335 298.364V302H296.894V298.825H296.873L295.985 299.415V298.967L296.894 298.364H297.335ZM299.609 302.05C299.375 302.05 299.166 302.009 298.982 301.929C298.8 301.848 298.655 301.737 298.547 301.593C298.441 301.449 298.383 301.281 298.373 301.091H298.821C298.83 301.208 298.87 301.309 298.941 301.395C299.012 301.479 299.105 301.544 299.22 301.59C299.335 301.636 299.462 301.659 299.602 301.659C299.758 301.659 299.897 301.632 300.017 301.577C300.138 301.523 300.233 301.447 300.301 301.35C300.37 301.253 300.404 301.141 300.404 301.013C300.404 300.879 300.371 300.761 300.305 300.659C300.239 300.556 300.142 300.476 300.014 300.418C299.886 300.36 299.73 300.331 299.545 300.331H299.254V299.94H299.545C299.69 299.94 299.816 299.914 299.925 299.862C300.035 299.81 300.121 299.737 300.183 299.642C300.245 299.547 300.277 299.436 300.277 299.308C300.277 299.185 300.249 299.078 300.195 298.987C300.141 298.896 300.064 298.825 299.964 298.774C299.866 298.723 299.75 298.697 299.616 298.697C299.491 298.697 299.372 298.721 299.261 298.767C299.151 298.812 299.061 298.877 298.991 298.964C298.921 299.049 298.883 299.152 298.877 299.273H298.451C298.458 299.082 298.516 298.915 298.624 298.772C298.731 298.628 298.872 298.515 299.046 298.435C299.221 298.354 299.414 298.314 299.623 298.314C299.848 298.314 300.041 298.359 300.202 298.451C300.363 298.541 300.487 298.66 300.573 298.808C300.66 298.955 300.703 299.115 300.703 299.287C300.703 299.492 300.649 299.666 300.541 299.811C300.435 299.955 300.29 300.055 300.106 300.111V300.139C300.336 300.177 300.515 300.275 300.644 300.432C300.773 300.588 300.838 300.782 300.838 301.013C300.838 301.21 300.784 301.388 300.676 301.545C300.57 301.702 300.424 301.825 300.239 301.915C300.055 302.005 299.845 302.05 299.609 302.05Z" fill="black"/>
<path d="M216.733 92V91.233L220.449 86.4602V86.392H216.852V85.4545H221.744V86.2557L218.131 90.9943V91.0625H221.864V92H216.733ZM222.944 92V91.6165L224.384 90.0398C224.553 89.8551 224.692 89.6946 224.802 89.5582C224.911 89.4205 224.992 89.2912 225.045 89.1705C225.099 89.0483 225.126 88.9205 225.126 88.7869C225.126 88.6335 225.089 88.5007 225.015 88.3885C224.942 88.2763 224.843 88.1896 224.717 88.1286C224.59 88.0675 224.448 88.0369 224.29 88.0369C224.123 88.0369 223.977 88.0717 223.852 88.1413C223.728 88.2095 223.632 88.3054 223.564 88.429C223.497 88.5526 223.464 88.6974 223.464 88.8636H222.961C222.961 88.608 223.02 88.3835 223.138 88.1903C223.256 87.9972 223.416 87.8466 223.619 87.7386C223.824 87.6307 224.053 87.5767 224.308 87.5767C224.563 87.5767 224.79 87.6307 224.987 87.7386C225.185 87.8466 225.339 87.9922 225.452 88.1754C225.564 88.3587 225.62 88.5625 225.62 88.7869C225.62 88.9474 225.591 89.1044 225.533 89.2578C225.476 89.4098 225.376 89.5795 225.234 89.767C225.094 89.9531 224.898 90.1804 224.648 90.4489L223.668 91.4972V91.5312H225.697V92H222.944ZM228.051 92.0597C227.77 92.0597 227.519 92.0114 227.299 91.9148C227.08 91.8182 226.906 91.6839 226.777 91.5121C226.649 91.3388 226.58 91.1378 226.568 90.9091H227.105C227.116 91.0497 227.165 91.1712 227.25 91.2734C227.335 91.3743 227.447 91.4524 227.585 91.5078C227.722 91.5632 227.875 91.5909 228.043 91.5909C228.23 91.5909 228.396 91.5582 228.541 91.4929C228.686 91.4276 228.8 91.3366 228.882 91.2202C228.964 91.1037 229.006 90.9688 229.006 90.8153C229.006 90.6548 228.966 90.5135 228.886 90.3913C228.807 90.2678 228.69 90.1712 228.537 90.1016C228.384 90.032 228.196 89.9972 227.974 89.9972H227.625V89.5284H227.974C228.148 89.5284 228.3 89.4972 228.43 89.4347C228.563 89.3722 228.665 89.2841 228.739 89.1705C228.815 89.0568 228.852 88.9233 228.852 88.7699C228.852 88.6222 228.82 88.4936 228.754 88.3842C228.689 88.2749 228.597 88.1896 228.477 88.1286C228.359 88.0675 228.22 88.0369 228.06 88.0369C227.909 88.0369 227.767 88.0646 227.634 88.12C227.501 88.174 227.393 88.2528 227.31 88.3565C227.226 88.4588 227.18 88.5824 227.173 88.7273H226.662C226.67 88.4986 226.739 88.2983 226.869 88.1264C226.998 87.9531 227.167 87.8182 227.376 87.7216C227.586 87.625 227.817 87.5767 228.068 87.5767C228.338 87.5767 228.57 87.6314 228.763 87.7408C228.956 87.8487 229.104 87.9915 229.208 88.169C229.312 88.3466 229.364 88.5384 229.364 88.7443C229.364 88.9901 229.299 89.1996 229.17 89.3729C229.042 89.5462 228.868 89.6662 228.648 89.733V89.767C228.923 89.8125 229.138 89.9297 229.293 90.1186C229.448 90.3061 229.526 90.5384 229.526 90.8153C229.526 91.0526 229.461 91.2656 229.332 91.4545C229.204 91.642 229.029 91.7898 228.808 91.8977C228.586 92.0057 228.334 92.0597 228.051 92.0597Z" fill="black"/>
<path d="M157.585 284.273V293H156.528V285.21H152.131V293H151.074V284.273H157.585ZM162.632 284.273V293H161.575V285.381H161.524L159.393 286.795V285.722L161.575 284.273H162.632Z" fill="black"/>
<path d="M143.415 275H142.307L145.511 266.273H146.602L149.807 275H148.699L146.091 267.653H146.023L143.415 275ZM143.824 271.591H148.29V272.528H143.824V271.591ZM153.671 266.273V275H152.614V267.381H152.563L150.432 268.795V267.722L152.614 266.273H153.671Z" fill="black"/>
<path d="M89.4148 147H88.3068L91.5114 138.273H92.6023L95.8068 147H94.6989L92.0909 139.653H92.0227L89.4148 147ZM89.8239 143.591H94.2898V144.528H89.8239V143.591ZM97.0128 147V146.233L99.8935 143.08C100.232 142.71 100.51 142.389 100.729 142.116C100.947 141.841 101.109 141.582 101.214 141.341C101.322 141.097 101.376 140.841 101.376 140.574C101.376 140.267 101.303 140.001 101.155 139.777C101.01 139.553 100.811 139.379 100.558 139.257C100.305 139.135 100.021 139.074 99.706 139.074C99.3707 139.074 99.0781 139.143 98.8281 139.283C98.581 139.419 98.3892 139.611 98.2528 139.858C98.1193 140.105 98.0526 140.395 98.0526 140.727H97.0469C97.0469 140.216 97.1648 139.767 97.4006 139.381C97.6364 138.994 97.9574 138.693 98.3636 138.477C98.7727 138.261 99.2315 138.153 99.7401 138.153C100.251 138.153 100.705 138.261 101.099 138.477C101.494 138.693 101.804 138.984 102.028 139.351C102.253 139.717 102.365 140.125 102.365 140.574C102.365 140.895 102.307 141.209 102.19 141.516C102.077 141.82 101.878 142.159 101.594 142.534C101.312 142.906 100.922 143.361 100.422 143.898L98.4616 145.994V146.062H102.518V147H97.0128Z" fill="black"/>
<path d="M256.415 182H255.307L258.511 173.273H259.602L262.807 182H261.699L259.091 174.653H259.023L256.415 182ZM256.824 178.591H261.29V179.528H256.824V178.591ZM266.962 182.119C266.399 182.119 265.898 182.023 265.457 181.83C265.02 181.636 264.672 181.368 264.413 181.024C264.158 180.678 264.018 180.276 263.996 179.818H265.07C265.092 180.099 265.189 180.342 265.359 180.547C265.53 180.749 265.753 180.905 266.028 181.016C266.304 181.126 266.609 181.182 266.945 181.182C267.32 181.182 267.652 181.116 267.942 180.986C268.232 180.855 268.459 180.673 268.624 180.44C268.788 180.207 268.871 179.938 268.871 179.631C268.871 179.31 268.791 179.027 268.632 178.783C268.473 178.536 268.24 178.342 267.933 178.203C267.626 178.064 267.251 177.994 266.808 177.994H266.109V177.057H266.808C267.155 177.057 267.459 176.994 267.72 176.869C267.984 176.744 268.19 176.568 268.338 176.341C268.489 176.114 268.564 175.847 268.564 175.54C268.564 175.244 268.499 174.987 268.368 174.768C268.237 174.55 268.053 174.379 267.814 174.257C267.578 174.135 267.3 174.074 266.979 174.074C266.678 174.074 266.393 174.129 266.126 174.24C265.862 174.348 265.646 174.506 265.479 174.713C265.311 174.918 265.22 175.165 265.206 175.455H264.183C264.2 174.997 264.338 174.597 264.597 174.253C264.855 173.906 265.193 173.636 265.611 173.443C266.031 173.25 266.493 173.153 266.996 173.153C267.536 173.153 267.999 173.263 268.385 173.482C268.771 173.697 269.068 173.983 269.276 174.338C269.483 174.693 269.587 175.077 269.587 175.489C269.587 175.98 269.457 176.399 269.199 176.746C268.943 177.092 268.595 177.332 268.155 177.466V177.534C268.706 177.625 269.136 177.859 269.446 178.237C269.756 178.612 269.911 179.077 269.911 179.631C269.911 180.105 269.781 180.531 269.523 180.909C269.267 181.284 268.918 181.58 268.474 181.795C268.031 182.011 267.527 182.119 266.962 182.119Z" fill="black"/>
<path d="M75.5852 106.273V115H74.5284V107.21H70.1307V115H69.0739V106.273H75.5852ZM77.5636 115V114.233L80.4442 111.08C80.7823 110.71 81.0607 110.389 81.2795 110.116C81.4982 109.841 81.6602 109.582 81.7653 109.341C81.8732 109.097 81.9272 108.841 81.9272 108.574C81.9272 108.267 81.8533 108.001 81.7056 107.777C81.5607 107.553 81.3619 107.379 81.109 107.257C80.8562 107.135 80.5721 107.074 80.2567 107.074C79.9215 107.074 79.6289 107.143 79.3789 107.283C79.1317 107.419 78.94 107.611 78.8036 107.858C78.6701 108.105 78.6033 108.395 78.6033 108.727H77.5977C77.5977 108.216 77.7156 107.767 77.9513 107.381C78.1871 106.994 78.5082 106.693 78.9144 106.477C79.3235 106.261 79.7823 106.153 80.2908 106.153C80.8022 106.153 81.2553 106.261 81.6502 106.477C82.0451 106.693 82.3548 106.984 82.5792 107.351C82.8036 107.717 82.9158 108.125 82.9158 108.574C82.9158 108.895 82.8576 109.209 82.7411 109.516C82.6275 109.82 82.4286 110.159 82.1445 110.534C81.8633 110.906 81.4727 111.361 80.9727 111.898L79.0124 113.994V114.062H83.0692V115H77.5636Z" fill="black"/>
<path d="M262.585 146.273V155H261.528V147.21H257.131V155H256.074V146.273H262.585ZM267.512 155.119C266.95 155.119 266.449 155.023 266.008 154.83C265.571 154.636 265.223 154.368 264.964 154.024C264.708 153.678 264.569 153.276 264.547 152.818H265.62C265.643 153.099 265.74 153.342 265.91 153.547C266.081 153.749 266.304 153.905 266.579 154.016C266.855 154.126 267.16 154.182 267.495 154.182C267.87 154.182 268.203 154.116 268.493 153.986C268.782 153.855 269.01 153.673 269.174 153.44C269.339 153.207 269.422 152.938 269.422 152.631C269.422 152.31 269.342 152.027 269.183 151.783C269.024 151.536 268.791 151.342 268.484 151.203C268.177 151.064 267.802 150.994 267.359 150.994H266.66V150.057H267.359C267.706 150.057 268.01 149.994 268.271 149.869C268.535 149.744 268.741 149.568 268.889 149.341C269.039 149.114 269.115 148.847 269.115 148.54C269.115 148.244 269.049 147.987 268.919 147.768C268.788 147.55 268.603 147.379 268.365 147.257C268.129 147.135 267.85 147.074 267.529 147.074C267.228 147.074 266.944 147.129 266.677 147.24C266.413 147.348 266.197 147.506 266.029 147.713C265.862 147.918 265.771 148.165 265.757 148.455H264.734C264.751 147.997 264.889 147.597 265.147 147.253C265.406 146.906 265.744 146.636 266.162 146.443C266.582 146.25 267.044 146.153 267.547 146.153C268.086 146.153 268.549 146.263 268.936 146.482C269.322 146.697 269.619 146.983 269.826 147.338C270.034 147.693 270.137 148.077 270.137 148.489C270.137 148.98 270.008 149.399 269.75 149.746C269.494 150.092 269.146 150.332 268.706 150.466V150.534C269.257 150.625 269.687 150.859 269.997 151.237C270.306 151.612 270.461 152.077 270.461 152.631C270.461 153.105 270.332 153.531 270.074 153.909C269.818 154.284 269.468 154.58 269.025 154.795C268.582 155.011 268.078 155.119 267.512 155.119Z" fill="black"/>
<path d="M230.307 158.273H231.517L233.938 162.347H234.04L236.46 158.273H237.67L234.517 163.403V167H233.46V163.403L230.307 158.273Z" fill="black"/>
<path d="M668.568 244.455C668.398 244.455 668.246 244.44 668.112 244.412C667.979 244.386 667.886 244.361 667.835 244.335L668.091 243.449C668.335 243.511 668.551 243.534 668.739 243.517C668.926 243.5 669.092 243.416 669.237 243.266C669.385 243.118 669.52 242.878 669.642 242.545L669.83 242.034L667.409 235.455H668.5L670.307 240.67H670.375L672.182 235.455H673.273L670.494 242.955C670.369 243.293 670.214 243.572 670.03 243.794C669.845 244.018 669.631 244.185 669.386 244.293C669.145 244.401 668.872 244.455 668.568 244.455ZM675.285 242.05C675.05 242.05 674.842 242.009 674.658 241.929C674.476 241.848 674.331 241.737 674.223 241.593C674.116 241.449 674.058 241.281 674.049 241.091H674.496C674.506 241.208 674.546 241.309 674.617 241.395C674.688 241.479 674.781 241.544 674.896 241.59C675.011 241.636 675.138 241.659 675.278 241.659C675.434 241.659 675.572 241.632 675.693 241.577C675.814 241.523 675.909 241.447 675.977 241.35C676.046 241.253 676.08 241.141 676.08 241.013C676.08 240.879 676.047 240.761 675.981 240.659C675.915 240.556 675.817 240.476 675.69 240.418C675.562 240.36 675.406 240.331 675.221 240.331H674.93V239.94H675.221C675.365 239.94 675.492 239.914 675.601 239.862C675.711 239.81 675.797 239.737 675.858 239.642C675.921 239.547 675.952 239.436 675.952 239.308C675.952 239.185 675.925 239.078 675.871 238.987C675.816 238.896 675.739 238.825 675.64 238.774C675.542 238.723 675.426 238.697 675.292 238.697C675.166 238.697 675.048 238.721 674.937 238.767C674.827 238.812 674.737 238.877 674.667 238.964C674.597 239.049 674.559 239.152 674.553 239.273H674.127C674.134 239.082 674.192 238.915 674.299 238.772C674.407 238.628 674.548 238.515 674.722 238.435C674.897 238.354 675.089 238.314 675.299 238.314C675.524 238.314 675.717 238.359 675.878 238.451C676.039 238.541 676.163 238.66 676.249 238.808C676.335 238.955 676.379 239.115 676.379 239.287C676.379 239.492 676.325 239.666 676.217 239.811C676.11 239.955 675.965 240.055 675.782 240.111V240.139C676.012 240.177 676.191 240.275 676.32 240.432C676.449 240.588 676.513 240.782 676.513 241.013C676.513 241.21 676.46 241.388 676.352 241.545C676.245 241.702 676.1 241.825 675.915 241.915C675.73 242.005 675.52 242.05 675.285 242.05Z" fill="black"/>
<path d="M434.67 238.455L436.239 241.131L437.807 238.455H438.966L436.852 241.727L438.966 245H437.807L436.239 242.46L434.67 245H433.511L435.591 241.727L433.511 238.455H434.67ZM441.135 241.364V245H440.695V241.825H440.674L439.786 242.415V241.967L440.695 241.364H441.135ZM442.181 245V244.68L443.381 243.366C443.522 243.213 443.638 243.079 443.729 242.965C443.821 242.85 443.888 242.743 443.932 242.642C443.977 242.54 443.999 242.434 443.999 242.322C443.999 242.195 443.969 242.084 443.907 241.99C443.847 241.897 443.764 241.825 443.658 241.774C443.553 241.723 443.435 241.697 443.303 241.697C443.164 241.697 443.042 241.726 442.938 241.784C442.835 241.841 442.755 241.921 442.698 242.024C442.642 242.127 442.614 242.248 442.614 242.386H442.195C442.195 242.173 442.244 241.986 442.343 241.825C442.441 241.664 442.575 241.539 442.744 241.449C442.914 241.359 443.106 241.314 443.317 241.314C443.531 241.314 443.719 241.359 443.884 241.449C444.048 241.539 444.177 241.66 444.271 241.813C444.364 241.966 444.411 242.135 444.411 242.322C444.411 242.456 444.387 242.587 444.338 242.715C444.291 242.842 444.208 242.983 444.09 243.139C443.973 243.294 443.81 243.484 443.602 243.707L442.785 244.581V244.609H444.475V245H442.181Z" fill="black"/>
<path d="M559.568 367.455C559.398 367.455 559.246 367.44 559.112 367.412C558.979 367.386 558.886 367.361 558.835 367.335L559.091 366.449C559.335 366.511 559.551 366.534 559.739 366.517C559.926 366.5 560.092 366.416 560.237 366.266C560.385 366.118 560.52 365.878 560.642 365.545L560.83 365.034L558.409 358.455H559.5L561.307 363.67H561.375L563.182 358.455H564.273L561.494 365.955C561.369 366.293 561.214 366.572 561.03 366.794C560.845 367.018 560.631 367.185 560.386 367.293C560.145 367.401 559.872 367.455 559.568 367.455ZM566.335 361.364V365H565.894V361.825H565.873L564.985 362.415V361.967L565.894 361.364H566.335Z" fill="black"/>
<path d="M558.733 130V129.233L562.449 124.46V124.392H558.852V123.455H563.744V124.256L560.131 128.994V129.062H563.864V130H558.733ZM564.944 130V129.616L566.384 128.04C566.553 127.855 566.692 127.695 566.802 127.558C566.911 127.42 566.992 127.291 567.045 127.17C567.099 127.048 567.126 126.92 567.126 126.787C567.126 126.634 567.089 126.501 567.015 126.388C566.942 126.276 566.843 126.19 566.717 126.129C566.59 126.067 566.448 126.037 566.29 126.037C566.123 126.037 565.977 126.072 565.852 126.141C565.728 126.21 565.632 126.305 565.564 126.429C565.497 126.553 565.464 126.697 565.464 126.864H564.961C564.961 126.608 565.02 126.384 565.138 126.19C565.256 125.997 565.416 125.847 565.619 125.739C565.824 125.631 566.053 125.577 566.308 125.577C566.563 125.577 566.79 125.631 566.987 125.739C567.185 125.847 567.339 125.992 567.452 126.175C567.564 126.359 567.62 126.562 567.62 126.787C567.62 126.947 567.591 127.104 567.533 127.258C567.476 127.41 567.376 127.58 567.234 127.767C567.094 127.953 566.898 128.18 566.648 128.449L565.668 129.497V129.531H567.697V130H564.944ZM570.051 130.06C569.77 130.06 569.519 130.011 569.299 129.915C569.08 129.818 568.906 129.684 568.777 129.512C568.649 129.339 568.58 129.138 568.568 128.909H569.105C569.116 129.05 569.165 129.171 569.25 129.273C569.335 129.374 569.447 129.452 569.585 129.508C569.722 129.563 569.875 129.591 570.043 129.591C570.23 129.591 570.396 129.558 570.541 129.493C570.686 129.428 570.8 129.337 570.882 129.22C570.964 129.104 571.006 128.969 571.006 128.815C571.006 128.655 570.966 128.513 570.886 128.391C570.807 128.268 570.69 128.171 570.537 128.102C570.384 128.032 570.196 127.997 569.974 127.997H569.625V127.528H569.974C570.148 127.528 570.3 127.497 570.43 127.435C570.563 127.372 570.665 127.284 570.739 127.17C570.815 127.057 570.852 126.923 570.852 126.77C570.852 126.622 570.82 126.494 570.754 126.384C570.689 126.275 570.597 126.19 570.477 126.129C570.359 126.067 570.22 126.037 570.06 126.037C569.909 126.037 569.767 126.065 569.634 126.12C569.501 126.174 569.393 126.253 569.31 126.357C569.226 126.459 569.18 126.582 569.173 126.727H568.662C568.67 126.499 568.739 126.298 568.869 126.126C568.998 125.953 569.167 125.818 569.376 125.722C569.586 125.625 569.817 125.577 570.068 125.577C570.338 125.577 570.57 125.631 570.763 125.741C570.956 125.849 571.104 125.991 571.208 126.169C571.312 126.347 571.364 126.538 571.364 126.744C571.364 126.99 571.299 127.2 571.17 127.373C571.042 127.546 570.868 127.666 570.648 127.733V127.767C570.923 127.812 571.138 127.93 571.293 128.119C571.448 128.306 571.526 128.538 571.526 128.815C571.526 129.053 571.461 129.266 571.332 129.455C571.204 129.642 571.029 129.79 570.808 129.898C570.586 130.006 570.334 130.06 570.051 130.06Z" fill="black"/>
<path d="M57.6705 253.455L59.2386 256.131L60.8068 253.455H61.9659L59.8523 256.727L61.9659 260H60.8068L59.2386 257.46L57.6705 260H56.5114L58.5909 256.727L56.5114 253.455H57.6705ZM64.1353 256.364V260H63.695V256.825H63.6737L62.7859 257.415V256.967L63.695 256.364H64.1353ZM65.1811 260V259.68L66.3814 258.366C66.5223 258.213 66.6383 258.079 66.7294 257.965C66.8205 257.85 66.888 257.743 66.9318 257.642C66.9768 257.54 66.9993 257.434 66.9993 257.322C66.9993 257.195 66.9685 257.084 66.907 256.99C66.8466 256.897 66.7637 256.825 66.6584 256.774C66.553 256.723 66.4347 256.697 66.3033 256.697C66.1636 256.697 66.0417 256.726 65.9375 256.784C65.8345 256.841 65.7546 256.921 65.6978 257.024C65.6422 257.127 65.6143 257.248 65.6143 257.386H65.1953C65.1953 257.173 65.2444 256.986 65.3427 256.825C65.4409 256.664 65.5747 256.539 65.744 256.449C65.9144 256.359 66.1056 256.314 66.3175 256.314C66.5305 256.314 66.7193 256.359 66.8839 256.449C67.0484 256.539 67.1774 256.66 67.271 256.813C67.3645 256.966 67.4112 257.135 67.4112 257.322C67.4112 257.456 67.387 257.587 67.3384 257.715C67.2911 257.842 67.2082 257.983 67.0898 258.139C66.9727 258.294 66.8099 258.484 66.6016 258.707L65.7848 259.581V259.609H67.4751V260H65.1811Z" fill="black"/>
</svg>
