<svg width="829" height="469" viewBox="0 0 829 469" fill="none" xmlns="http://www.w3.org/2000/svg">
<rect width="829" height="469" fill="white"/>
<g clip-path="url(#clip0_28_175)">
<path d="M502.701 113.503L327.385 49.6935L215.718 356.496L391.034 420.306L502.701 113.503Z" stroke="black" stroke-width="0.932836"/>
<path d="M432.591 33.3866L285.828 436.613" stroke="black" stroke-width="0.932836" stroke-dasharray="18.66 4.66 1.87 4.66"/>
<path d="M359.209 328.284C410.728 328.284 452.492 286.519 452.492 235C452.492 183.481 410.728 141.716 359.209 141.716C307.69 141.716 265.925 183.481 265.925 235C265.925 286.519 307.69 328.284 359.209 328.284Z" stroke="black" stroke-width="0.932836"/>
<path d="M359.209 207.015V262.985" stroke="black" stroke-width="0.932836"/>
<path d="M545.776 141.716H172.642V281.642V328.284H545.776" stroke="black" stroke-width="0.932836"/>
<path d="M545.776 328.284C523.388 280.398 520.901 243.396 538.313 217.276C555.726 191.157 558.214 165.97 545.776 141.716" stroke="black" stroke-width="0.932836"/>
<path d="M144.657 235H573.761" stroke="black" stroke-width="0.932836" stroke-dasharray="18.66 4.66 1.87 4.66"/>
<path d="M345.42 225.636C345.42 226.557 345.254 227.352 344.922 228.023C344.589 228.693 344.134 229.21 343.554 229.574C342.974 229.938 342.313 230.119 341.568 230.119C340.824 230.119 340.162 229.938 339.582 229.574C339.003 229.21 338.547 228.693 338.214 228.023C337.882 227.352 337.716 226.557 337.716 225.636C337.716 224.716 337.882 223.92 338.214 223.25C338.547 222.58 339.003 222.062 339.582 221.699C340.162 221.335 340.824 221.153 341.568 221.153C342.313 221.153 342.974 221.335 343.554 221.699C344.134 222.062 344.589 222.58 344.922 223.25C345.254 223.92 345.42 224.716 345.42 225.636ZM344.398 225.636C344.398 224.881 344.271 224.243 344.018 223.723C343.768 223.203 343.429 222.81 343 222.543C342.574 222.276 342.097 222.142 341.568 222.142C341.04 222.142 340.561 222.276 340.132 222.543C339.706 222.81 339.366 223.203 339.114 223.723C338.864 224.243 338.739 224.881 338.739 225.636C338.739 226.392 338.864 227.03 339.114 227.55C339.366 228.07 339.706 228.463 340.132 228.73C340.561 228.997 341.04 229.131 341.568 229.131C342.097 229.131 342.574 228.997 343 228.73C343.429 228.463 343.768 228.07 344.018 227.55C344.271 227.03 344.398 226.392 344.398 225.636ZM350.112 221.273V230H349.055V222.381H349.004L346.874 223.795V222.722L349.055 221.273H350.112Z" fill="black"/>
</g>
<defs>
<clipPath id="clip0_28_175">
<rect width="500" height="418" fill="white" transform="translate(126 27)"/>
</clipPath>
</defs>
</svg>
