<svg width="829" height="469" viewBox="0 0 829 469" fill="none" xmlns="http://www.w3.org/2000/svg">
<rect width="829" height="469" fill="white"/>
<g clip-path="url(#clip0_26_112)">
<mask id="mask0_26_112" style="mask-type:luminance" maskUnits="userSpaceOnUse" x="239" y="279" width="877" height="616">
<path d="M1115.37 279.611H239.145V894.704H1115.37V279.611Z" fill="white"/>
</mask>
<g mask="url(#mask0_26_112)">
<path d="M396.865 428.991C459.776 428.991 510.775 377.848 510.775 314.759C510.775 251.671 459.776 200.528 396.865 200.528C333.955 200.528 282.956 251.671 282.956 314.759C282.956 377.848 333.955 428.991 396.865 428.991Z" stroke="black" stroke-width="1.08333"/>
</g>
<path d="M396.865 42.3611C361.816 59.9352 300.48 112.657 282.956 200.528" stroke="black" stroke-width="1.08333"/>
<path d="M396.865 42.3611C431.914 59.9352 493.25 112.657 510.775 200.528" stroke="black" stroke-width="1.08333"/>
<path d="M282.956 200.528H510.774" stroke="black" stroke-width="1.08333"/>
<path d="M396.865 314.759L419.647 345.514" stroke="black" stroke-width="0.541667"/>
<path d="M396.865 24.787V437.778" stroke="black" stroke-width="0.541667" stroke-dasharray="10.83 2.71 1.08 2.71"/>
<path d="M247.907 314.759H545.823" stroke="black" stroke-width="0.541667" stroke-dasharray="10.83 2.71 1.08 2.71"/>
<path d="M326.767 405.266L495.879 297.185" stroke="black" stroke-width="0.541667"/>
<path d="M495.879 299.821C497.33 299.821 498.507 298.641 498.507 297.185C498.507 295.729 497.33 294.549 495.879 294.549C494.427 294.549 493.25 295.729 493.25 297.185C493.25 298.641 494.427 299.821 495.879 299.821Z" fill="#B9B9B9" stroke="black" stroke-width="0.541667"/>
<path d="M326.767 407.902C328.219 407.902 329.396 406.722 329.396 405.266C329.396 403.81 328.219 402.63 326.767 402.63C325.315 402.63 324.138 403.81 324.138 405.266C324.138 406.722 325.315 407.902 326.767 407.902Z" fill="#B9B9B9" stroke="black" stroke-width="0.541667"/>
<path d="M419.647 348.15C421.099 348.15 422.276 346.97 422.276 345.514C422.276 344.058 421.099 342.878 419.647 342.878C418.195 342.878 417.018 344.058 417.018 345.514C417.018 346.97 418.195 348.15 419.647 348.15Z" fill="#B9B9B9" stroke="black" stroke-width="0.541667"/>
<path d="M468.716 317.395C470.167 317.395 471.344 316.215 471.344 314.759C471.344 313.303 470.167 312.123 468.716 312.123C467.264 312.123 466.087 313.303 466.087 314.759C466.087 316.215 467.264 317.395 468.716 317.395Z" fill="#B9B9B9" stroke="black" stroke-width="0.541667"/>
<path d="M312.415 420H311.307L314.511 411.273H315.602L318.807 420H317.699L315.091 412.653H315.023L312.415 420ZM312.824 416.591H317.29V417.528H312.824V416.591ZM322.671 411.273V420H321.614V412.381H321.563L319.432 413.795V412.722L321.614 411.273H322.671Z" fill="black"/>
<path d="M428.057 358V349.273H429.114V353.602H429.216L433.136 349.273H434.517L430.852 353.21L434.517 358H433.239L430.205 353.943L429.114 355.17V358H428.057ZM438.8 349.273V358H437.743V350.381H437.692L435.561 351.795V350.722L437.743 349.273H438.8Z" fill="black"/>
<path d="M467.057 321.273H468.318L471.284 328.517H471.386L474.352 321.273H475.614V330H474.625V323.369H474.54L471.812 330H470.858L468.131 323.369H468.045V330H467.057V321.273ZM480.647 321.273V330H479.591V322.381H479.539L477.409 323.795V322.722L479.591 321.273H480.647Z" fill="black"/>
<path d="M479.057 295V286.273H482.108C482.716 286.273 483.217 286.378 483.612 286.588C484.007 286.795 484.301 287.075 484.494 287.428C484.688 287.777 484.784 288.165 484.784 288.591C484.784 288.966 484.717 289.276 484.584 289.52C484.453 289.764 484.28 289.957 484.064 290.099C483.851 290.241 483.619 290.347 483.369 290.415V290.5C483.636 290.517 483.905 290.611 484.175 290.781C484.445 290.952 484.67 291.196 484.852 291.514C485.034 291.832 485.125 292.222 485.125 292.682C485.125 293.119 485.026 293.513 484.827 293.862C484.628 294.212 484.314 294.489 483.885 294.693C483.456 294.898 482.898 295 482.21 295H479.057ZM480.114 294.062H482.21C482.901 294.062 483.391 293.929 483.68 293.662C483.973 293.392 484.119 293.065 484.119 292.682C484.119 292.386 484.044 292.114 483.893 291.864C483.743 291.611 483.528 291.409 483.25 291.259C482.972 291.105 482.642 291.028 482.261 291.028H480.114V294.062ZM480.114 290.108H482.074C482.392 290.108 482.679 290.045 482.935 289.92C483.193 289.795 483.398 289.619 483.548 289.392C483.702 289.165 483.778 288.898 483.778 288.591C483.778 288.207 483.645 287.882 483.378 287.615C483.111 287.345 482.688 287.21 482.108 287.21H480.114V290.108ZM489.776 286.273V295H488.719V287.381H488.668L486.538 288.795V287.722L488.719 286.273H489.776Z" fill="black"/>
</g>
<defs>
<clipPath id="clip0_26_112">
<rect width="330" height="438" fill="white" transform="translate(232 16)"/>
</clipPath>
</defs>
</svg>
