<svg width="829" height="469" viewBox="0 0 829 469" fill="none" xmlns="http://www.w3.org/2000/svg">
<rect width="829" height="469" fill="white"/>
<path d="M306.137 59.8238L514.328 122.423L410.232 226.755L243.679 205.889L306.137 59.8238Z" stroke="black" stroke-width="1.3"/>
<path d="M410.232 226.755V258.055" stroke="black" stroke-width="0.65"/>
<path d="M306.136 59.8238V101.557" stroke="black" stroke-width="0.65"/>
<path d="M243.679 205.889V351.954" stroke="black" stroke-width="0.65"/>
<path d="M514.328 299.788V122.423" stroke="black" stroke-width="0.65"/>
<path d="M306.137 289.355L514.328 299.788L410.232 435.42L243.679 351.954L306.137 289.355Z" stroke="black" stroke-width="1.3"/>
<path d="M410.232 435.42V404.12" stroke="black" stroke-width="0.65"/>
<path d="M306.136 289.355V258.055" stroke="black" stroke-width="0.65"/>
<path d="M521.348 111.149H520.24L523.445 102.422H524.536L527.74 111.149H526.632L524.025 103.802H523.956L521.348 111.149ZM521.757 107.74H526.223V108.677H521.757V107.74ZM528.946 111.149V110.382L531.827 107.229C532.165 106.859 532.444 106.538 532.662 106.265C532.881 105.99 533.043 105.731 533.148 105.49C533.256 105.246 533.31 104.99 533.31 104.723C533.31 104.416 533.236 104.15 533.088 103.926C532.944 103.702 532.745 103.528 532.492 103.406C532.239 103.284 531.955 103.223 531.64 103.223C531.304 103.223 531.012 103.292 530.762 103.432C530.515 103.568 530.323 103.76 530.186 104.007C530.053 104.254 529.986 104.544 529.986 104.876H528.98C528.98 104.365 529.098 103.916 529.334 103.53C529.57 103.143 529.891 102.842 530.297 102.626C530.706 102.41 531.165 102.302 531.674 102.302C532.185 102.302 532.638 102.41 533.033 102.626C533.428 102.842 533.738 103.133 533.962 103.5C534.186 103.866 534.299 104.274 534.299 104.723C534.299 105.044 534.24 105.358 534.124 105.665C534.01 105.969 533.811 106.308 533.527 106.683C533.246 107.055 532.855 107.51 532.355 108.047L530.395 110.143V110.211H534.452V111.149H528.946Z" fill="black"/>
<path d="M521.348 302.157H520.24L523.445 293.43H524.536L527.74 302.157H526.632L524.025 294.811H523.956L521.348 302.157ZM521.757 298.748H526.223V299.686H521.757V298.748ZM531.604 293.43V302.157H530.548V294.538H530.496L528.366 295.953V294.879L530.548 293.43H531.604Z" fill="black"/>
<path d="M418.496 443.407V434.68H421.547C422.155 434.68 422.656 434.785 423.051 434.995C423.446 435.203 423.74 435.482 423.933 435.835C424.127 436.184 424.223 436.572 424.223 436.998C424.223 437.373 424.156 437.683 424.023 437.927C423.892 438.171 423.719 438.365 423.503 438.507C423.29 438.649 423.058 438.754 422.808 438.822V438.907C423.075 438.924 423.344 439.018 423.614 439.188C423.884 439.359 424.11 439.603 424.291 439.921C424.473 440.24 424.564 440.629 424.564 441.089C424.564 441.526 424.465 441.92 424.266 442.269C424.067 442.619 423.753 442.896 423.324 443.1C422.895 443.305 422.337 443.407 421.649 443.407H418.496ZM419.553 442.47H421.649C422.34 442.47 422.83 442.336 423.119 442.069C423.412 441.799 423.558 441.473 423.558 441.089C423.558 440.794 423.483 440.521 423.333 440.271C423.182 440.018 422.967 439.816 422.689 439.666C422.411 439.512 422.081 439.436 421.7 439.436H419.553V442.47ZM419.553 438.515H421.513C421.831 438.515 422.118 438.453 422.374 438.328C422.632 438.203 422.837 438.026 422.987 437.799C423.141 437.572 423.217 437.305 423.217 436.998C423.217 436.615 423.084 436.289 422.817 436.022C422.55 435.752 422.127 435.617 421.547 435.617H419.553V438.515ZM429.215 434.68V443.407H428.159V435.788H428.107L425.977 437.203V436.129L428.159 434.68H429.215Z" fill="black"/>
<path d="M223.733 355.546H222.676C222.613 355.242 222.504 354.975 222.348 354.745C222.194 354.515 222.007 354.322 221.785 354.166C221.567 354.007 221.324 353.887 221.057 353.808C220.79 353.728 220.511 353.688 220.221 353.688C219.693 353.688 219.214 353.822 218.785 354.089C218.359 354.356 218.02 354.75 217.767 355.269C217.517 355.789 217.392 356.427 217.392 357.183C217.392 357.938 217.517 358.576 217.767 359.096C218.02 359.616 218.359 360.01 218.785 360.277C219.214 360.544 219.693 360.677 220.221 360.677C220.511 360.677 220.79 360.637 221.057 360.558C221.324 360.478 221.567 360.36 221.785 360.204C222.007 360.045 222.194 359.85 222.348 359.62C222.504 359.387 222.613 359.12 222.676 358.819H223.733C223.653 359.265 223.508 359.664 223.298 360.017C223.088 360.369 222.826 360.669 222.514 360.916C222.201 361.16 221.851 361.346 221.461 361.474C221.075 361.602 220.662 361.666 220.221 361.666C219.477 361.666 218.815 361.484 218.236 361.12C217.656 360.757 217.2 360.24 216.868 359.569C216.535 358.899 216.369 358.103 216.369 357.183C216.369 356.262 216.535 355.467 216.868 354.796C217.2 354.126 217.656 353.609 218.236 353.245C218.815 352.882 219.477 352.7 220.221 352.7C220.662 352.7 221.075 352.764 221.461 352.892C221.851 353.019 222.201 353.207 222.514 353.454C222.826 353.698 223.088 353.997 223.298 354.349C223.508 354.698 223.653 355.098 223.733 355.546ZM228.355 352.819V361.546H227.298V353.927H227.247L225.117 355.342V354.268L227.298 352.819H228.355Z" fill="black"/>
<path d="M317.093 273.265H314.4V264.538H317.213C318.059 264.538 318.784 264.713 319.386 265.062C319.988 265.409 320.45 265.907 320.771 266.558C321.092 267.206 321.252 267.981 321.252 268.885C321.252 269.794 321.09 270.576 320.767 271.233C320.443 271.886 319.971 272.389 319.352 272.741C318.732 273.091 317.98 273.265 317.093 273.265ZM315.457 272.328H317.025C317.747 272.328 318.345 272.189 318.819 271.91C319.294 271.632 319.647 271.235 319.88 270.721C320.113 270.207 320.23 269.595 320.23 268.885C320.23 268.18 320.115 267.573 319.884 267.065C319.654 266.554 319.311 266.162 318.853 265.889C318.396 265.613 317.826 265.475 317.144 265.475H315.457V272.328ZM325.94 264.538V273.265H324.883V265.646H324.832L322.701 267.061V265.987L324.883 264.538H325.94Z" fill="black"/>
<path d="M222.131 199.851H221.074C221.012 199.547 220.902 199.28 220.746 199.049C220.593 198.819 220.405 198.626 220.184 198.47C219.965 198.311 219.722 198.191 219.455 198.112C219.188 198.032 218.91 197.993 218.62 197.993C218.091 197.993 217.613 198.126 217.184 198.393C216.758 198.66 216.418 199.054 216.165 199.574C215.915 200.093 215.79 200.731 215.79 201.487C215.79 202.243 215.915 202.88 216.165 203.4C216.418 203.92 216.758 204.314 217.184 204.581C217.613 204.848 218.091 204.981 218.62 204.981C218.91 204.981 219.188 204.941 219.455 204.862C219.722 204.782 219.965 204.665 220.184 204.508C220.405 204.349 220.593 204.155 220.746 203.924C220.902 203.691 221.012 203.424 221.074 203.123H222.131C222.052 203.569 221.907 203.968 221.697 204.321C221.486 204.673 221.225 204.973 220.912 205.22C220.6 205.464 220.249 205.65 219.86 205.778C219.474 205.906 219.06 205.97 218.62 205.97C217.875 205.97 217.214 205.788 216.634 205.424C216.054 205.061 215.599 204.544 215.266 203.873C214.934 203.203 214.768 202.407 214.768 201.487C214.768 200.566 214.934 199.771 215.266 199.101C215.599 198.43 216.054 197.913 216.634 197.549C217.214 197.186 217.875 197.004 218.62 197.004C219.06 197.004 219.474 197.068 219.86 197.196C220.249 197.324 220.6 197.511 220.912 197.758C221.225 198.003 221.486 198.301 221.697 198.653C221.907 199.003 222.052 199.402 222.131 199.851ZM223.686 205.851V205.084L226.566 201.93C226.904 201.561 227.183 201.24 227.401 200.967C227.62 200.691 227.782 200.433 227.887 200.191C227.995 199.947 228.049 199.691 228.049 199.424C228.049 199.118 227.975 198.852 227.828 198.628C227.683 198.403 227.484 198.23 227.231 198.108C226.978 197.986 226.694 197.924 226.379 197.924C226.043 197.924 225.751 197.994 225.501 198.133C225.254 198.27 225.062 198.461 224.926 198.709C224.792 198.956 224.725 199.245 224.725 199.578H223.72C223.72 199.066 223.838 198.618 224.073 198.231C224.309 197.845 224.63 197.544 225.036 197.328C225.445 197.112 225.904 197.004 226.413 197.004C226.924 197.004 227.377 197.112 227.772 197.328C228.167 197.544 228.477 197.835 228.701 198.201C228.926 198.568 229.038 198.976 229.038 199.424C229.038 199.745 228.98 200.059 228.863 200.366C228.749 200.67 228.551 201.01 228.266 201.385C227.985 201.757 227.595 202.211 227.095 202.748L225.134 204.845V204.913H229.191V205.851H223.686Z" fill="black"/>
<path d="M309.086 42.1292H306.393V33.4019H309.205C310.052 33.4019 310.776 33.5766 311.378 33.9261C311.981 34.2726 312.442 34.7712 312.763 35.4218C313.084 36.0695 313.245 36.8451 313.245 37.7485C313.245 38.6576 313.083 39.4403 312.759 40.0965C312.435 40.7499 311.964 41.2528 311.344 41.605C310.725 41.9545 309.972 42.1292 309.086 42.1292ZM307.449 41.1917H309.018C309.739 41.1917 310.337 41.0525 310.812 40.7741C311.286 40.4957 311.64 40.0994 311.873 39.5851C312.106 39.0709 312.222 38.4587 312.222 37.7485C312.222 37.044 312.107 36.4374 311.877 35.9289C311.647 35.4175 311.303 35.0255 310.846 34.7528C310.388 34.4772 309.819 34.3394 309.137 34.3394H307.449V41.1917ZM314.864 42.1292V41.3621L317.745 38.2087C318.083 37.8394 318.361 37.5184 318.58 37.2457C318.799 36.9701 318.961 36.7116 319.066 36.4701C319.174 36.2258 319.228 35.9701 319.228 35.703C319.228 35.3962 319.154 35.1306 319.006 34.9062C318.861 34.6817 318.662 34.5084 318.41 34.3863C318.157 34.2641 317.873 34.203 317.557 34.203C317.222 34.203 316.929 34.2726 316.679 34.4119C316.432 34.5482 316.241 34.74 316.104 34.9871C315.971 35.2343 315.904 35.5241 315.904 35.8565H314.898C314.898 35.3451 315.016 34.8962 315.252 34.5099C315.488 34.1235 315.809 33.8224 316.215 33.6065C316.624 33.3905 317.083 33.2826 317.591 33.2826C318.103 33.2826 318.556 33.3905 318.951 33.6065C319.346 33.8224 319.655 34.1136 319.88 34.48C320.104 34.8465 320.216 35.2542 320.216 35.703C320.216 36.0241 320.158 36.338 320.042 36.6448C319.928 36.9488 319.729 37.2883 319.445 37.6633C319.164 38.0354 318.773 38.49 318.273 39.0269L316.313 41.1235V41.1917H320.37V42.1292H314.864Z" fill="black"/>
<path d="M418.496 234.743V226.015H421.547C422.155 226.015 422.656 226.12 423.051 226.331C423.446 226.538 423.74 226.818 423.933 227.17C424.127 227.52 424.223 227.907 424.223 228.333C424.223 228.708 424.156 229.018 424.023 229.262C423.892 229.507 423.719 229.7 423.503 229.842C423.29 229.984 423.058 230.089 422.808 230.157V230.243C423.075 230.26 423.344 230.353 423.614 230.524C423.884 230.694 424.11 230.939 424.291 231.257C424.473 231.575 424.564 231.964 424.564 232.424C424.564 232.862 424.465 233.255 424.266 233.605C424.067 233.954 423.753 234.231 423.324 234.436C422.895 234.64 422.337 234.743 421.649 234.743H418.496ZM419.553 233.805H421.649C422.34 233.805 422.83 233.672 423.119 233.404C423.412 233.135 423.558 232.808 423.558 232.424C423.558 232.129 423.483 231.856 423.333 231.606C423.182 231.353 422.967 231.152 422.689 231.001C422.411 230.848 422.081 230.771 421.7 230.771H419.553V233.805ZM419.553 229.851H421.513C421.831 229.851 422.118 229.788 422.374 229.663C422.632 229.538 422.837 229.362 422.987 229.135C423.141 228.907 423.217 228.64 423.217 228.333C423.217 227.95 423.084 227.625 422.817 227.358C422.55 227.088 422.127 226.953 421.547 226.953H419.553V229.851ZM426.147 234.743V233.976L429.028 230.822C429.366 230.453 429.644 230.132 429.863 229.859C430.082 229.583 430.244 229.325 430.349 229.083C430.457 228.839 430.511 228.583 430.511 228.316C430.511 228.01 430.437 227.744 430.289 227.52C430.144 227.295 429.945 227.122 429.693 227C429.44 226.877 429.156 226.816 428.84 226.816C428.505 226.816 428.213 226.886 427.963 227.025C427.715 227.162 427.524 227.353 427.387 227.601C427.254 227.848 427.187 228.137 427.187 228.47H426.181C426.181 227.958 426.299 227.51 426.535 227.123C426.771 226.737 427.092 226.436 427.498 226.22C427.907 226.004 428.366 225.896 428.874 225.896C429.386 225.896 429.839 226.004 430.234 226.22C430.629 226.436 430.938 226.727 431.163 227.093C431.387 227.46 431.499 227.868 431.499 228.316C431.499 228.637 431.441 228.951 431.325 229.258C431.211 229.562 431.012 229.902 430.728 230.277C430.447 230.649 430.056 231.103 429.556 231.64L427.596 233.737V233.805H431.653V234.743H426.147Z" fill="black"/>
</svg>
