<svg width="829" height="469" viewBox="0 0 829 469" fill="none" xmlns="http://www.w3.org/2000/svg">
<rect width="829" height="469" fill="white"/>
<g clip-path="url(#clip0_18_108)">
<path d="M205.24 143.841L61.8481 73.9011H276.937" stroke="black" stroke-width="5.03731"/>
<path d="M61.8481 73.9011V292.462" stroke="black" stroke-width="1.6791"/>
<path d="M205.24 143.841V205.038" stroke="black" stroke-width="1.6791"/>
<path d="M26.8962 174.439H330.709" stroke="black" stroke-width="1.6791"/>
<path d="M61.8481 292.462L205.24 205.038L294.861 240.007L259.013 318.689L61.8481 292.462Z" stroke="black" stroke-width="5.03731"/>
<path d="M267.239 330.9V322.173H270.29C270.898 322.173 271.4 322.278 271.794 322.488C272.189 322.696 272.483 322.976 272.677 323.328C272.87 323.677 272.966 324.065 272.966 324.491C272.966 324.866 272.9 325.176 272.766 325.42C272.635 325.664 272.462 325.858 272.246 326C272.033 326.142 271.802 326.247 271.552 326.315V326.4C271.819 326.417 272.087 326.511 272.357 326.682C272.627 326.852 272.853 327.096 273.035 327.414C273.216 327.733 273.307 328.122 273.307 328.582C273.307 329.02 273.208 329.413 273.009 329.762C272.81 330.112 272.496 330.389 272.067 330.593C271.638 330.798 271.08 330.9 270.392 330.9H267.239ZM268.296 329.963H270.392C271.083 329.963 271.573 329.829 271.863 329.562C272.155 329.292 272.302 328.966 272.302 328.582C272.302 328.287 272.226 328.014 272.076 327.764C271.925 327.511 271.711 327.309 271.432 327.159C271.154 327.005 270.824 326.929 270.444 326.929H268.296V329.963ZM268.296 326.008H270.256C270.574 326.008 270.861 325.946 271.117 325.821C271.375 325.696 271.58 325.52 271.731 325.292C271.884 325.065 271.961 324.798 271.961 324.491C271.961 324.108 271.827 323.782 271.56 323.515C271.293 323.245 270.87 323.11 270.29 323.11H268.296V326.008ZM277.959 322.173V330.9H276.902V323.281H276.851L274.72 324.696V323.622L276.902 322.173H277.959Z" fill="black"/>
<path d="M217.29 207.493H214.596V198.766H217.409C218.255 198.766 218.98 198.941 219.582 199.29C220.184 199.637 220.646 200.135 220.967 200.786C221.288 201.433 221.449 202.209 221.449 203.112C221.449 204.021 221.287 204.804 220.963 205.46C220.639 206.114 220.167 206.617 219.548 206.969C218.929 207.318 218.176 207.493 217.29 207.493ZM215.653 206.556H217.221C217.943 206.556 218.541 206.416 219.015 206.138C219.49 205.86 219.844 205.463 220.076 204.949C220.309 204.435 220.426 203.823 220.426 203.112C220.426 202.408 220.311 201.801 220.081 201.293C219.851 200.781 219.507 200.389 219.049 200.117C218.592 199.841 218.023 199.703 217.341 199.703H215.653V206.556ZM226.136 198.766V207.493H225.079V199.874H225.028L222.898 201.289V200.215L225.079 198.766H226.136Z" fill="black"/>
<path d="M272.997 65.9861V57.2589H276.048C276.656 57.2589 277.157 57.364 277.552 57.5742C277.947 57.7816 278.241 58.0614 278.434 58.4137C278.628 58.7631 278.724 59.1509 278.724 59.5771C278.724 59.9521 278.657 60.2617 278.524 60.506C278.393 60.7503 278.22 60.9435 278.004 61.0856C277.791 61.2276 277.559 61.3327 277.309 61.4009V61.4861C277.576 61.5032 277.845 61.5969 278.115 61.7674C278.385 61.9378 278.611 62.1822 278.792 62.5003C278.974 62.8185 279.065 63.2077 279.065 63.668C279.065 64.1055 278.966 64.4989 278.767 64.8484C278.568 65.1978 278.254 65.4748 277.825 65.6793C277.396 65.8839 276.838 65.9861 276.15 65.9861H272.997ZM274.054 65.0486H276.15C276.841 65.0486 277.331 64.9151 277.62 64.6481C277.913 64.3782 278.059 64.0515 278.059 63.668C278.059 63.3725 277.984 63.0998 277.834 62.8498C277.683 62.5969 277.468 62.3952 277.19 62.2447C276.912 62.0913 276.582 62.0146 276.201 62.0146H274.054V65.0486ZM274.054 61.0941H276.014C276.332 61.0941 276.619 61.0316 276.875 60.9066C277.133 60.7816 277.338 60.6055 277.488 60.3782C277.642 60.1509 277.718 59.8839 277.718 59.5771C277.718 59.1935 277.585 58.8682 277.318 58.6012C277.051 58.3313 276.628 58.1964 276.048 58.1964H274.054V61.0941ZM280.648 65.9861V65.2191L283.529 62.0657C283.867 61.6964 284.145 61.3753 284.364 61.1026C284.583 60.8271 284.745 60.5685 284.85 60.3271C284.958 60.0827 285.012 59.8271 285.012 59.56C285.012 59.2532 284.938 58.9876 284.79 58.7631C284.645 58.5387 284.446 58.3654 284.194 58.2432C283.941 58.1211 283.657 58.06 283.341 58.06C283.006 58.06 282.714 58.1296 282.464 58.2688C282.216 58.4052 282.025 58.5969 281.888 58.8441C281.755 59.0913 281.688 59.381 281.688 59.7134H280.682C280.682 59.2021 280.8 58.7532 281.036 58.3668C281.272 57.9805 281.593 57.6793 281.999 57.4634C282.408 57.2475 282.867 57.1396 283.375 57.1396C283.887 57.1396 284.34 57.2475 284.735 57.4634C285.13 57.6793 285.439 57.9705 285.664 58.337C285.888 58.7035 286 59.1111 286 59.56C286 59.881 285.942 60.195 285.826 60.5018C285.712 60.8057 285.513 61.1452 285.229 61.5202C284.948 61.8924 284.557 62.3469 284.057 62.8839L282.097 64.9805V65.0486H286.154V65.9861H280.648Z" fill="black"/>
<path d="M30.1381 163.925L31.7063 166.602L33.2745 163.925H34.4336L32.3199 167.198L34.4336 170.471H33.2745L31.7063 167.931L30.1381 170.471H28.979L31.0586 167.198L28.979 163.925H30.1381ZM38.9197 161.744V170.471H37.8629V162.852H37.8118L35.6811 164.266V163.193L37.8629 161.744H38.9197ZM41.4297 170.471V169.704L44.3103 166.55C44.6484 166.181 44.9268 165.86 45.1456 165.587C45.3643 165.312 45.5262 165.053 45.6314 164.812C45.7393 164.568 45.7933 164.312 45.7933 164.045C45.7933 163.738 45.7194 163.472 45.5717 163.248C45.4268 163.023 45.2279 162.85 44.9751 162.728C44.7223 162.606 44.4382 162.545 44.1228 162.545C43.7876 162.545 43.495 162.614 43.245 162.754C42.9978 162.89 42.8061 163.082 42.6697 163.329C42.5362 163.576 42.4694 163.866 42.4694 164.198H41.4637C41.4637 163.687 41.5816 163.238 41.8174 162.852C42.0532 162.465 42.3743 162.164 42.7805 161.948C43.1896 161.732 43.6484 161.624 44.1569 161.624C44.6683 161.624 45.1214 161.732 45.5163 161.948C45.9112 162.164 46.2208 162.455 46.4453 162.822C46.6697 163.188 46.7819 163.596 46.7819 164.045C46.7819 164.366 46.7237 164.68 46.6072 164.987C46.4936 165.291 46.2947 165.63 46.0106 166.005C45.7294 166.377 45.3387 166.832 44.8387 167.369L42.8785 169.465V169.533H46.9353V170.471H41.4297Z" fill="black"/>
<path d="M51.4148 68H50.3068L53.5114 59.2727H54.6023L57.8068 68H56.6989L54.0909 60.6534H54.0227L51.4148 68ZM51.8239 64.5909H56.2898V65.5284H51.8239V64.5909ZM59.0128 68V67.233L61.8935 64.0795C62.2315 63.7102 62.5099 63.3892 62.7287 63.1165C62.9474 62.8409 63.1094 62.5824 63.2145 62.3409C63.3224 62.0966 63.3764 61.8409 63.3764 61.5739C63.3764 61.267 63.3026 61.0014 63.1548 60.777C63.0099 60.5526 62.8111 60.3793 62.5582 60.2571C62.3054 60.1349 62.0213 60.0739 61.706 60.0739C61.3707 60.0739 61.0781 60.1435 60.8281 60.2827C60.581 60.419 60.3892 60.6108 60.2528 60.858C60.1193 61.1051 60.0526 61.3949 60.0526 61.7273H59.0469C59.0469 61.2159 59.1648 60.767 59.4006 60.3807C59.6364 59.9943 59.9574 59.6932 60.3636 59.4773C60.7727 59.2614 61.2315 59.1534 61.7401 59.1534C62.2514 59.1534 62.7045 59.2614 63.0994 59.4773C63.4943 59.6932 63.804 59.9844 64.0284 60.3509C64.2528 60.7173 64.3651 61.125 64.3651 61.5739C64.3651 61.8949 64.3068 62.2088 64.1903 62.5156C64.0767 62.8196 63.8778 63.1591 63.5938 63.5341C63.3125 63.9062 62.9219 64.3608 62.4219 64.8977L60.4616 66.9943V67.0625H64.5185V68H59.0128Z" fill="black"/>
<path d="M54.5586 306.219H53.4507L56.6552 297.492H57.7461L60.9507 306.219H59.8427L57.2348 298.872H57.1666L54.5586 306.219ZM54.9677 302.81H59.4336V303.747H54.9677V302.81ZM64.8147 297.492V306.219H63.7579V298.6H63.7067L61.576 300.014V298.94L63.7579 297.492H64.8147Z" fill="black"/>
<path d="M311.276 245.92H310.219C310.157 245.616 310.048 245.349 309.891 245.119C309.738 244.888 309.55 244.695 309.329 244.539C309.11 244.38 308.867 244.261 308.6 244.181C308.333 244.101 308.055 244.062 307.765 244.062C307.236 244.062 306.758 244.195 306.329 244.462C305.903 244.729 305.563 245.123 305.31 245.643C305.06 246.163 304.935 246.8 304.935 247.556C304.935 248.312 305.06 248.949 305.31 249.469C305.563 249.989 305.903 250.383 306.329 250.65C306.758 250.917 307.236 251.05 307.765 251.05C308.055 251.05 308.333 251.011 308.6 250.931C308.867 250.851 309.11 250.734 309.329 250.577C309.55 250.418 309.738 250.224 309.891 249.994C310.048 249.761 310.157 249.494 310.219 249.192H311.276C311.197 249.638 311.052 250.038 310.842 250.39C310.631 250.742 310.37 251.042 310.057 251.289C309.745 251.533 309.394 251.719 309.005 251.847C308.619 251.975 308.205 252.039 307.765 252.039C307.021 252.039 306.359 251.857 305.779 251.494C305.199 251.13 304.744 250.613 304.411 249.942C304.079 249.272 303.913 248.476 303.913 247.556C303.913 246.636 304.079 245.84 304.411 245.17C304.744 244.499 305.199 243.982 305.779 243.619C306.359 243.255 307.021 243.073 307.765 243.073C308.205 243.073 308.619 243.137 309.005 243.265C309.394 243.393 309.745 243.58 310.057 243.827C310.37 244.072 310.631 244.37 310.842 244.722C311.052 245.072 311.197 245.471 311.276 245.92ZM315.899 243.192V251.92H314.842V244.3H314.791L312.66 245.715V244.641L314.842 243.192H315.899Z" fill="black"/>
<path d="M215.644 150.726H212.951V141.998H215.764C216.61 141.998 217.335 142.173 217.937 142.523C218.539 142.869 219.001 143.368 219.322 144.018C219.643 144.666 219.804 145.442 219.804 146.345C219.804 147.254 219.642 148.037 219.318 148.693C218.994 149.347 218.522 149.849 217.903 150.202C217.284 150.551 216.531 150.726 215.644 150.726ZM214.008 149.788H215.576C216.298 149.788 216.896 149.649 217.37 149.371C217.845 149.092 218.198 148.696 218.431 148.182C218.664 147.668 218.781 147.055 218.781 146.345C218.781 145.641 218.666 145.034 218.436 144.525C218.206 144.014 217.862 143.622 217.404 143.349C216.947 143.074 216.377 142.936 215.696 142.936H214.008V149.788ZM221.423 150.726V149.959L224.304 146.805C224.642 146.436 224.92 146.115 225.139 145.842C225.358 145.567 225.519 145.308 225.625 145.067C225.733 144.822 225.787 144.567 225.787 144.3C225.787 143.993 225.713 143.727 225.565 143.503C225.42 143.278 225.221 143.105 224.968 142.983C224.715 142.861 224.431 142.8 224.116 142.8C223.781 142.8 223.488 142.869 223.238 143.008C222.991 143.145 222.799 143.337 222.663 143.584C222.529 143.831 222.463 144.121 222.463 144.453H221.457C221.457 143.942 221.575 143.493 221.811 143.106C222.046 142.72 222.367 142.419 222.774 142.203C223.183 141.987 223.642 141.879 224.15 141.879C224.662 141.879 225.115 141.987 225.51 142.203C225.904 142.419 226.214 142.71 226.439 143.077C226.663 143.443 226.775 143.851 226.775 144.3C226.775 144.621 226.717 144.935 226.6 145.241C226.487 145.545 226.288 145.885 226.004 146.26C225.723 146.632 225.332 147.087 224.832 147.623L222.872 149.72V149.788H226.929V150.726H221.423Z" fill="black"/>
</g>
<defs>
<clipPath id="clip0_18_108">
<rect width="343" height="297" fill="white" transform="translate(26 40)"/>
</clipPath>
</defs>
</svg>
