<svg width="829" height="469" viewBox="0 0 829 469" fill="none" xmlns="http://www.w3.org/2000/svg">
<rect width="829" height="469" fill="white"/>
<g clip-path="url(#clip0_24_51)">
<path d="M223.469 198.731H528.156" stroke="black" stroke-width="0.8125"/>
<path d="M314.875 86.9215V361.362" stroke="black" stroke-width="0.8125"/>
<path d="M487.531 178.402V234.306" stroke="black" stroke-width="0.8125"/>
<path d="M314.875 86.9215L487.531 178.402" stroke="black" stroke-width="1.625"/>
<path d="M314.875 361.362L487.531 234.306" stroke="black" stroke-width="1.625"/>
<path d="M284.406 147.908V239.389" stroke="black" stroke-width="0.8125"/>
<path d="M284.406 151.974C286.65 151.974 288.469 150.154 288.469 147.908C288.469 145.663 286.65 143.843 284.406 143.843C282.163 143.843 280.344 145.663 280.344 147.908C280.344 150.154 282.163 151.974 284.406 151.974Z" fill="#737373" stroke="black" stroke-width="0.8125"/>
<path d="M284.406 243.454C286.65 243.454 288.469 241.634 288.469 239.389C288.469 237.143 286.65 235.323 284.406 235.323C282.163 235.323 280.344 237.143 280.344 239.389C280.344 241.634 282.163 243.454 284.406 243.454Z" fill="#737373" stroke="black" stroke-width="0.8125"/>
<path d="M303.415 376H302.307L305.511 367.273H306.602L309.807 376H308.699L306.091 368.653H306.023L303.415 376ZM303.824 372.591H308.29V373.528H303.824V372.591ZM313.671 367.273V376H312.614V368.381H312.563L310.432 369.795V368.722L312.614 367.273H313.671Z" fill="black"/>
<path d="M308.415 80H307.307L310.511 71.2727H311.602L314.807 80H313.699L311.091 72.6534H311.023L308.415 80ZM308.824 76.5909H313.29V77.5284H308.824V76.5909ZM316.013 80V79.233L318.893 76.0795C319.232 75.7102 319.51 75.3892 319.729 75.1165C319.947 74.8409 320.109 74.5824 320.214 74.3409C320.322 74.0966 320.376 73.8409 320.376 73.5739C320.376 73.267 320.303 73.0014 320.155 72.777C320.01 72.5526 319.811 72.3793 319.558 72.2571C319.305 72.1349 319.021 72.0739 318.706 72.0739C318.371 72.0739 318.078 72.1435 317.828 72.2827C317.581 72.419 317.389 72.6108 317.253 72.858C317.119 73.1051 317.053 73.3949 317.053 73.7273H316.047C316.047 73.2159 316.165 72.767 316.401 72.3807C316.636 71.9943 316.957 71.6932 317.364 71.4773C317.773 71.2614 318.232 71.1534 318.74 71.1534C319.251 71.1534 319.705 71.2614 320.099 71.4773C320.494 71.6932 320.804 71.9844 321.028 72.3509C321.253 72.7173 321.365 73.125 321.365 73.5739C321.365 73.8949 321.307 74.2088 321.19 74.5156C321.077 74.8196 320.878 75.1591 320.594 75.5341C320.312 75.9062 319.922 76.3608 319.422 76.8977L317.462 78.9943V79.0625H321.518V80H316.013Z" fill="black"/>
<path d="M494.057 236V227.273H497.108C497.716 227.273 498.217 227.378 498.612 227.588C499.007 227.795 499.301 228.075 499.494 228.428C499.688 228.777 499.784 229.165 499.784 229.591C499.784 229.966 499.717 230.276 499.584 230.52C499.453 230.764 499.28 230.957 499.064 231.099C498.851 231.241 498.619 231.347 498.369 231.415V231.5C498.636 231.517 498.905 231.611 499.175 231.781C499.445 231.952 499.67 232.196 499.852 232.514C500.034 232.832 500.125 233.222 500.125 233.682C500.125 234.119 500.026 234.513 499.827 234.862C499.628 235.212 499.314 235.489 498.885 235.693C498.456 235.898 497.898 236 497.21 236H494.057ZM495.114 235.062H497.21C497.901 235.062 498.391 234.929 498.68 234.662C498.973 234.392 499.119 234.065 499.119 233.682C499.119 233.386 499.044 233.114 498.893 232.864C498.743 232.611 498.528 232.409 498.25 232.259C497.972 232.105 497.642 232.028 497.261 232.028H495.114V235.062ZM495.114 231.108H497.074C497.392 231.108 497.679 231.045 497.935 230.92C498.193 230.795 498.398 230.619 498.548 230.392C498.702 230.165 498.778 229.898 498.778 229.591C498.778 229.207 498.645 228.882 498.378 228.615C498.111 228.345 497.688 228.21 497.108 228.21H495.114V231.108ZM504.776 227.273V236H503.719V228.381H503.668L501.538 229.795V228.722L503.719 227.273H504.776Z" fill="black"/>
<path d="M494.057 172V163.273H497.108C497.716 163.273 498.217 163.378 498.612 163.588C499.007 163.795 499.301 164.075 499.494 164.428C499.688 164.777 499.784 165.165 499.784 165.591C499.784 165.966 499.717 166.276 499.584 166.52C499.453 166.764 499.28 166.957 499.064 167.099C498.851 167.241 498.619 167.347 498.369 167.415V167.5C498.636 167.517 498.905 167.611 499.175 167.781C499.445 167.952 499.67 168.196 499.852 168.514C500.034 168.832 500.125 169.222 500.125 169.682C500.125 170.119 500.026 170.513 499.827 170.862C499.628 171.212 499.314 171.489 498.885 171.693C498.456 171.898 497.898 172 497.21 172H494.057ZM495.114 171.062H497.21C497.901 171.062 498.391 170.929 498.68 170.662C498.973 170.392 499.119 170.065 499.119 169.682C499.119 169.386 499.044 169.114 498.893 168.864C498.743 168.611 498.528 168.409 498.25 168.259C497.972 168.105 497.642 168.028 497.261 168.028H495.114V171.062ZM495.114 167.108H497.074C497.392 167.108 497.679 167.045 497.935 166.92C498.193 166.795 498.398 166.619 498.548 166.392C498.702 166.165 498.778 165.898 498.778 165.591C498.778 165.207 498.645 164.882 498.378 164.615C498.111 164.345 497.688 164.21 497.108 164.21H495.114V167.108ZM501.708 172V171.233L504.589 168.08C504.927 167.71 505.205 167.389 505.424 167.116C505.643 166.841 505.805 166.582 505.91 166.341C506.018 166.097 506.072 165.841 506.072 165.574C506.072 165.267 505.998 165.001 505.85 164.777C505.705 164.553 505.506 164.379 505.254 164.257C505.001 164.135 504.717 164.074 504.401 164.074C504.066 164.074 503.773 164.143 503.523 164.283C503.276 164.419 503.085 164.611 502.948 164.858C502.815 165.105 502.748 165.395 502.748 165.727H501.742C501.742 165.216 501.86 164.767 502.096 164.381C502.332 163.994 502.653 163.693 503.059 163.477C503.468 163.261 503.927 163.153 504.435 163.153C504.947 163.153 505.4 163.261 505.795 163.477C506.19 163.693 506.499 163.984 506.724 164.351C506.948 164.717 507.06 165.125 507.06 165.574C507.06 165.895 507.002 166.209 506.886 166.516C506.772 166.82 506.573 167.159 506.289 167.534C506.008 167.906 505.617 168.361 505.117 168.898L503.157 170.994V171.062H507.214V172H501.708Z" fill="black"/>
<path d="M264.057 243V234.273H265.114V238.602H265.216L269.136 234.273H270.517L266.852 238.21L270.517 243H269.239L266.205 238.943L265.114 240.17V243H264.057ZM274.8 234.273V243H273.743V235.381H273.692L271.561 236.795V235.722L273.743 234.273H274.8Z" fill="black"/>
</g>
<path d="M220.67 187.455L222.239 190.131L223.807 187.455H224.966L222.852 190.727L224.966 194H223.807L222.239 191.46L220.67 194H219.511L221.591 190.727L219.511 187.455H220.67ZM229.452 185.273V194H228.395V186.381H228.344L226.213 187.795V186.722L228.395 185.273H229.452ZM231.962 194V193.233L234.843 190.08C235.181 189.71 235.459 189.389 235.678 189.116C235.897 188.841 236.059 188.582 236.164 188.341C236.272 188.097 236.326 187.841 236.326 187.574C236.326 187.267 236.252 187.001 236.104 186.777C235.959 186.553 235.76 186.379 235.507 186.257C235.255 186.135 234.971 186.074 234.655 186.074C234.32 186.074 234.027 186.143 233.777 186.283C233.53 186.419 233.338 186.611 233.202 186.858C233.069 187.105 233.002 187.395 233.002 187.727H231.996C231.996 187.216 232.114 186.767 232.35 186.381C232.586 185.994 232.907 185.693 233.313 185.477C233.722 185.261 234.181 185.153 234.689 185.153C235.201 185.153 235.654 185.261 236.049 185.477C236.444 185.693 236.753 185.984 236.978 186.351C237.202 186.717 237.314 187.125 237.314 187.574C237.314 187.895 237.256 188.209 237.14 188.516C237.026 188.82 236.827 189.159 236.543 189.534C236.262 189.906 235.871 190.361 235.371 190.898L233.411 192.994V193.062H237.468V194H231.962Z" fill="black"/>
<defs>
<clipPath id="clip0_24_51">
<rect width="325" height="309" fill="white" transform="translate(223 68)"/>
</clipPath>
</defs>
</svg>
