<svg width="829" height="469" viewBox="0 0 829 469" fill="none" xmlns="http://www.w3.org/2000/svg">
<rect width="829" height="469" fill="white"/>
<path d="M106.18 199.645V336.069" stroke="black" stroke-width="0.65"/>
<path d="M106.18 199.645L253.746 51.8513" stroke="black" stroke-width="1.3"/>
<path d="M106.18 336.07L231.044 271.268" stroke="black" stroke-width="1.3"/>
<path d="M140.234 290.595L333.205 358.807" stroke="black" stroke-width="1.3"/>
<path d="M140.234 290.595V85.9575" stroke="black" stroke-width="0.65"/>
<path d="M140.234 294.005C142.115 294.005 143.639 292.478 143.639 290.595C143.639 288.711 142.115 287.184 140.234 287.184C138.353 287.184 136.829 288.711 136.829 290.595C136.829 292.478 138.353 294.005 140.234 294.005Z" fill="#808080" stroke="black" stroke-width="0.65"/>
<path d="M140.234 89.3681C142.115 89.3681 143.639 87.8411 143.639 85.9575C143.639 84.0739 142.115 82.5469 140.234 82.5469C138.353 82.5469 136.829 84.0739 136.829 85.9575C136.829 87.8411 138.353 89.3681 140.234 89.3681Z" fill="#808080" stroke="black" stroke-width="0.65"/>
<path d="M140.234 293.437L276.449 438.388" stroke="#D160BF" stroke-width="0.65"/>
<path d="M143.072 85.9575H367.259" stroke="#D160BF" stroke-width="0.65"/>
<path d="M227.045 42.0063V50.7336H225.989V42.0063H227.045ZM229.011 50.7336V49.9665L231.892 46.8131C232.23 46.4438 232.508 46.1228 232.727 45.8501C232.946 45.5745 233.107 45.316 233.213 45.0745C233.321 44.8302 233.375 44.5745 233.375 44.3074C233.375 44.0006 233.301 43.735 233.153 43.5106C233.008 43.2861 232.809 43.1128 232.556 42.9907C232.304 42.8685 232.019 42.8074 231.704 42.8074C231.369 42.8074 231.076 42.877 230.826 43.0163C230.579 43.1526 230.387 43.3444 230.251 43.5915C230.117 43.8387 230.051 44.1285 230.051 44.4609H229.045C229.045 43.9495 229.163 43.5006 229.399 43.1143C229.634 42.7279 229.955 42.4268 230.362 42.2109C230.771 41.9949 231.23 41.887 231.738 41.887C232.25 41.887 232.703 41.9949 233.098 42.2109C233.492 42.4268 233.802 42.718 234.027 43.0844C234.251 43.4509 234.363 43.8586 234.363 44.3074C234.363 44.6285 234.305 44.9424 234.188 45.2492C234.075 45.5532 233.876 45.8927 233.592 46.2677C233.311 46.6398 232.92 47.0944 232.42 47.6313L230.46 49.7279V49.7961H234.517V50.7336H229.011Z" fill="black"/>
<path d="M292.213 327.081V320.536H293.185V321.558H293.27C293.406 321.209 293.626 320.938 293.93 320.744C294.234 320.548 294.599 320.45 295.026 320.45C295.457 320.45 295.817 320.548 296.104 320.744C296.394 320.938 296.619 321.209 296.781 321.558H296.849C297.017 321.22 297.269 320.952 297.604 320.753C297.939 320.551 298.341 320.45 298.81 320.45C299.395 320.45 299.874 320.634 300.246 321C300.618 321.364 300.804 321.93 300.804 322.7V327.081H299.798V322.7C299.798 322.217 299.666 321.872 299.402 321.665C299.138 321.457 298.827 321.354 298.469 321.354C298.009 321.354 297.652 321.493 297.399 321.771C297.146 322.047 297.02 322.396 297.02 322.82V327.081H295.997V322.598C295.997 322.226 295.876 321.926 295.635 321.699C295.394 321.469 295.082 321.354 294.702 321.354C294.44 321.354 294.196 321.423 293.969 321.563C293.744 321.702 293.563 321.895 293.423 322.142C293.287 322.386 293.219 322.669 293.219 322.99V327.081H292.213ZM305.213 318.354V327.081H304.157V319.462H304.106L301.975 320.877V319.803L304.157 318.354H305.213Z" fill="black"/>
<path d="M207.836 246.643V255.371H206.779V246.643H207.836ZM212.869 246.643V255.371H211.812V247.751H211.761L209.631 249.166V248.092L211.812 246.643H212.869Z" fill="black"/>
<path d="M112.476 290.351V281.624H113.533V285.954H113.635L117.556 281.624H118.937L115.272 285.562L118.937 290.351H117.658L114.624 286.295L113.533 287.522V290.351H112.476ZM123.219 281.624V290.351H122.162V282.732H122.111L119.981 284.147V283.073L122.162 281.624H123.219Z" fill="black"/>
<path d="M107.237 94.4595V85.7322H108.294V90.0617H108.396L112.317 85.7322H113.698L110.033 89.6697L113.698 94.4595H112.419L109.385 90.4027L108.294 91.6299V94.4595H107.237ZM114.912 94.4595V93.6924L117.793 90.539C118.131 90.1697 118.409 89.8487 118.628 89.5759C118.847 89.3004 119.009 89.0419 119.114 88.8004C119.222 88.5561 119.276 88.3004 119.276 88.0333C119.276 87.7265 119.202 87.4609 119.054 87.2365C118.909 87.012 118.71 86.8387 118.457 86.7166C118.205 86.5944 117.921 86.5333 117.605 86.5333C117.27 86.5333 116.977 86.6029 116.727 86.7421C116.48 86.8785 116.288 87.0703 116.152 87.3174C116.019 87.5646 115.952 87.8544 115.952 88.1867H114.946C114.946 87.6754 115.064 87.2265 115.3 86.8402C115.536 86.4538 115.857 86.1527 116.263 85.9367C116.672 85.7208 117.131 85.6129 117.639 85.6129C118.151 85.6129 118.604 85.7208 118.999 85.9367C119.394 86.1527 119.703 86.4438 119.928 86.8103C120.152 87.1768 120.264 87.5845 120.264 88.0333C120.264 88.3544 120.206 88.6683 120.09 88.9751C119.976 89.2791 119.777 89.6186 119.493 89.9936C119.212 90.3657 118.821 90.8203 118.321 91.3572L116.361 93.4538V93.522H120.418V94.4595H114.912Z" fill="black"/>
</svg>
