<svg width="829" height="469" viewBox="0 0 829 469" fill="none" xmlns="http://www.w3.org/2000/svg">
<rect width="829" height="469" fill="white"/>
<g clip-path="url(#clip0_22_40)">
<path d="M303.385 86.3115L348.111 120.868" stroke="black" stroke-width="0.722222"/>
<path d="M303.385 86.3115V253.522" stroke="black" stroke-width="0.722222"/>
<path d="M397.309 158.769L447.626 197.785" stroke="black" stroke-width="0.722222"/>
<path d="M397.309 158.769L447.625 197.785L525.895 36.1484L303.385 86.3115" stroke="black" stroke-width="0.722222"/>
<path d="M525.895 36.1484V69.5905" stroke="black" stroke-width="0.722222"/>
<path d="M447.626 197.785V220.08" stroke="black" stroke-width="0.722222"/>
<path d="M324.63 242.374L397.309 158.769" stroke="black" stroke-width="0.722222"/>
<path d="M324.63 242.374L348.111 120.868" stroke="black" stroke-width="0.722222"/>
<path d="M303.385 253.522L407.372 276.931" stroke="black" stroke-width="0.722222"/>
<path d="M407.372 276.931L433.09 282.505L390.6 367.225L348.111 311.488L407.372 276.931Z" stroke="black" stroke-width="0.722222" stroke-dasharray="3.61 3.61"/>
<path d="M397.309 158.769L348.111 120.868L352.584 97.459L436.444 114.18L397.309 158.769Z" stroke="black" stroke-width="0.722222" stroke-dasharray="3.61 3.61"/>
<path d="M433.09 282.505L525.895 303.685L414.081 398.437L390.6 367.225" stroke="black" stroke-width="0.722222"/>
<path d="M348.111 311.488L303.385 253.522" stroke="black" stroke-width="0.722222"/>
<path d="M324.63 242.375V253.522" stroke="black" stroke-width="0.722222"/>
<path d="M352.584 97.459V119.754" stroke="black" stroke-width="0.722222"/>
<path d="M436.444 114.18V136.475" stroke="black" stroke-width="0.722222"/>
<path d="M313.449 331.553L348.111 311.488" stroke="black" stroke-width="0.722222"/>
<path d="M407.373 276.931L447.626 253.522L433.09 282.505" stroke="black" stroke-width="0.722222"/>
<path d="M390.6 367.225L358.174 431.879L313.449 331.553" stroke="black" stroke-width="0.722222"/>
<path d="M313.449 331.553V309.258" stroke="black" stroke-width="0.722222"/>
<path d="M447.626 253.522V231.227" stroke="black" stroke-width="0.722222"/>
<path d="M358.174 431.879V404.011" stroke="black" stroke-width="0.722222"/>
<path d="M525.895 303.685V259.095" stroke="black" stroke-width="0.722222"/>
<path d="M414.081 398.437V353.848" stroke="black" stroke-width="0.722222"/>
<path d="M416.057 410V401.273H419.108C419.716 401.273 420.217 401.378 420.612 401.588C421.007 401.795 421.301 402.075 421.494 402.428C421.688 402.777 421.784 403.165 421.784 403.591C421.784 403.966 421.717 404.276 421.584 404.52C421.453 404.764 421.28 404.957 421.064 405.099C420.851 405.241 420.619 405.347 420.369 405.415V405.5C420.636 405.517 420.905 405.611 421.175 405.781C421.445 405.952 421.67 406.196 421.852 406.514C422.034 406.832 422.125 407.222 422.125 407.682C422.125 408.119 422.026 408.513 421.827 408.862C421.628 409.212 421.314 409.489 420.885 409.693C420.456 409.898 419.898 410 419.21 410H416.057ZM417.114 409.062H419.21C419.901 409.062 420.391 408.929 420.68 408.662C420.973 408.392 421.119 408.065 421.119 407.682C421.119 407.386 421.044 407.114 420.893 406.864C420.743 406.611 420.528 406.409 420.25 406.259C419.972 406.105 419.642 406.028 419.261 406.028H417.114V409.062ZM417.114 405.108H419.074C419.392 405.108 419.679 405.045 419.935 404.92C420.193 404.795 420.398 404.619 420.548 404.392C420.702 404.165 420.778 403.898 420.778 403.591C420.778 403.207 420.645 402.882 420.378 402.615C420.111 402.345 419.688 402.21 419.108 402.21H417.114V405.108ZM426.776 401.273V410H425.719V402.381H425.668L423.538 403.795V402.722L425.719 401.273H426.776Z" fill="black"/>
<path d="M454.057 206V197.273H457.108C457.716 197.273 458.217 197.378 458.612 197.588C459.007 197.795 459.301 198.075 459.494 198.428C459.688 198.777 459.784 199.165 459.784 199.591C459.784 199.966 459.717 200.276 459.584 200.52C459.453 200.764 459.28 200.957 459.064 201.099C458.851 201.241 458.619 201.347 458.369 201.415V201.5C458.636 201.517 458.905 201.611 459.175 201.781C459.445 201.952 459.67 202.196 459.852 202.514C460.034 202.832 460.125 203.222 460.125 203.682C460.125 204.119 460.026 204.513 459.827 204.862C459.628 205.212 459.314 205.489 458.885 205.693C458.456 205.898 457.898 206 457.21 206H454.057ZM455.114 205.062H457.21C457.901 205.062 458.391 204.929 458.68 204.662C458.973 204.392 459.119 204.065 459.119 203.682C459.119 203.386 459.044 203.114 458.893 202.864C458.743 202.611 458.528 202.409 458.25 202.259C457.972 202.105 457.642 202.028 457.261 202.028H455.114V205.062ZM455.114 201.108H457.074C457.392 201.108 457.679 201.045 457.935 200.92C458.193 200.795 458.398 200.619 458.548 200.392C458.702 200.165 458.778 199.898 458.778 199.591C458.778 199.207 458.645 198.882 458.378 198.615C458.111 198.345 457.688 198.21 457.108 198.21H455.114V201.108ZM461.708 206V205.233L464.589 202.08C464.927 201.71 465.205 201.389 465.424 201.116C465.643 200.841 465.805 200.582 465.91 200.341C466.018 200.097 466.072 199.841 466.072 199.574C466.072 199.267 465.998 199.001 465.85 198.777C465.705 198.553 465.506 198.379 465.254 198.257C465.001 198.135 464.717 198.074 464.401 198.074C464.066 198.074 463.773 198.143 463.523 198.283C463.276 198.419 463.085 198.611 462.948 198.858C462.815 199.105 462.748 199.395 462.748 199.727H461.742C461.742 199.216 461.86 198.767 462.096 198.381C462.332 197.994 462.653 197.693 463.059 197.477C463.468 197.261 463.927 197.153 464.435 197.153C464.947 197.153 465.4 197.261 465.795 197.477C466.19 197.693 466.499 197.984 466.724 198.351C466.948 198.717 467.06 199.125 467.06 199.574C467.06 199.895 467.002 200.209 466.886 200.516C466.772 200.82 466.573 201.159 466.289 201.534C466.008 201.906 465.617 202.361 465.117 202.898L463.157 204.994V205.062H467.214V206H461.708Z" fill="black"/>
<path d="M331.057 248V239.273H336.324V240.21H332.114V243.159H336.051V244.097H332.114V247.062H336.392V248H331.057ZM338.075 248V247.233L340.956 244.08C341.294 243.71 341.572 243.389 341.791 243.116C342.01 242.841 342.172 242.582 342.277 242.341C342.385 242.097 342.439 241.841 342.439 241.574C342.439 241.267 342.365 241.001 342.217 240.777C342.072 240.553 341.874 240.379 341.621 240.257C341.368 240.135 341.084 240.074 340.768 240.074C340.433 240.074 340.141 240.143 339.891 240.283C339.643 240.419 339.452 240.611 339.315 240.858C339.182 241.105 339.115 241.395 339.115 241.727H338.109C338.109 241.216 338.227 240.767 338.463 240.381C338.699 239.994 339.02 239.693 339.426 239.477C339.835 239.261 340.294 239.153 340.803 239.153C341.314 239.153 341.767 239.261 342.162 239.477C342.557 239.693 342.866 239.984 343.091 240.351C343.315 240.717 343.428 241.125 343.428 241.574C343.428 241.895 343.369 242.209 343.253 242.516C343.139 242.82 342.94 243.159 342.656 243.534C342.375 243.906 341.984 244.361 341.484 244.898L339.524 246.994V247.062H343.581V248H338.075Z" fill="black"/>
<path d="M534.415 38H533.307L536.511 29.2727H537.602L540.807 38H539.699L537.091 30.6534H537.023L534.415 38ZM534.824 34.5909H539.29V35.5284H534.824V34.5909ZM542.013 38V37.233L544.893 34.0795C545.232 33.7102 545.51 33.3892 545.729 33.1165C545.947 32.8409 546.109 32.5824 546.214 32.3409C546.322 32.0966 546.376 31.8409 546.376 31.5739C546.376 31.267 546.303 31.0014 546.155 30.777C546.01 30.5526 545.811 30.3793 545.558 30.2571C545.305 30.1349 545.021 30.0739 544.706 30.0739C544.371 30.0739 544.078 30.1435 543.828 30.2827C543.581 30.419 543.389 30.6108 543.253 30.858C543.119 31.1051 543.053 31.3949 543.053 31.7273H542.047C542.047 31.2159 542.165 30.767 542.401 30.3807C542.636 29.9943 542.957 29.6932 543.364 29.4773C543.773 29.2614 544.232 29.1534 544.74 29.1534C545.251 29.1534 545.705 29.2614 546.099 29.4773C546.494 29.6932 546.804 29.9844 547.028 30.3509C547.253 30.7173 547.365 31.125 547.365 31.5739C547.365 31.8949 547.307 32.2088 547.19 32.5156C547.077 32.8196 546.878 33.1591 546.594 33.5341C546.312 33.9062 545.922 34.3608 545.422 34.8977L543.462 36.9943V37.0625H547.518V38H542.013Z" fill="black"/>
<path d="M534.415 306H533.307L536.511 297.273H537.602L540.807 306H539.699L537.091 298.653H537.023L534.415 306ZM534.824 302.591H539.29V303.528H534.824V302.591ZM544.671 297.273V306H543.614V298.381H543.563L541.432 299.795V298.722L543.614 297.273H544.671Z" fill="black"/>
<path d="M456.75 254H454.057V245.273H456.869C457.716 245.273 458.44 245.447 459.043 245.797C459.645 246.143 460.107 246.642 460.428 247.293C460.749 247.94 460.909 248.716 460.909 249.619C460.909 250.528 460.747 251.311 460.423 251.967C460.099 252.621 459.628 253.124 459.009 253.476C458.389 253.825 457.636 254 456.75 254ZM455.114 253.062H456.682C457.403 253.062 458.001 252.923 458.476 252.645C458.95 252.366 459.304 251.97 459.537 251.456C459.77 250.942 459.886 250.33 459.886 249.619C459.886 248.915 459.771 248.308 459.541 247.8C459.311 247.288 458.967 246.896 458.51 246.624C458.053 246.348 457.483 246.21 456.801 246.21H455.114V253.062ZM465.597 245.273V254H464.54V246.381H464.489L462.358 247.795V246.722L464.54 245.273H465.597Z" fill="black"/>
<path d="M362.057 444V435.273H367.29V436.21H363.114V439.159H366.898V440.097H363.114V444H362.057ZM372.015 435.273V444H370.958V436.381H370.907L368.776 437.795V436.722L370.958 435.273H372.015Z" fill="black"/>
<path d="M296.057 337V328.273H301.324V329.21H297.114V332.159H301.051V333.097H297.114V336.062H301.392V337H296.057ZM306.143 328.273V337H305.087V329.381H305.036L302.905 330.795V329.722L305.087 328.273H306.143Z" fill="black"/>
<path d="M442.75 108H440.057V99.2727H442.869C443.716 99.2727 444.44 99.4474 445.043 99.7969C445.645 100.143 446.107 100.642 446.428 101.293C446.749 101.94 446.909 102.716 446.909 103.619C446.909 104.528 446.747 105.311 446.423 105.967C446.099 106.621 445.628 107.124 445.009 107.476C444.389 107.825 443.636 108 442.75 108ZM441.114 107.062H442.682C443.403 107.062 444.001 106.923 444.476 106.645C444.95 106.366 445.304 105.97 445.537 105.456C445.77 104.942 445.886 104.33 445.886 103.619C445.886 102.915 445.771 102.308 445.541 101.8C445.311 101.288 444.967 100.896 444.51 100.624C444.053 100.348 443.483 100.21 442.801 100.21H441.114V107.062ZM448.528 108V107.233L451.409 104.08C451.747 103.71 452.026 103.389 452.244 103.116C452.463 102.841 452.625 102.582 452.73 102.341C452.838 102.097 452.892 101.841 452.892 101.574C452.892 101.267 452.818 101.001 452.67 100.777C452.526 100.553 452.327 100.379 452.074 100.257C451.821 100.135 451.537 100.074 451.222 100.074C450.886 100.074 450.594 100.143 450.344 100.283C450.097 100.419 449.905 100.611 449.768 100.858C449.635 101.105 449.568 101.395 449.568 101.727H448.562C448.562 101.216 448.68 100.767 448.916 100.381C449.152 99.9943 449.473 99.6932 449.879 99.4773C450.288 99.2614 450.747 99.1534 451.256 99.1534C451.767 99.1534 452.22 99.2614 452.615 99.4773C453.01 99.6932 453.32 99.9844 453.544 100.351C453.768 100.717 453.881 101.125 453.881 101.574C453.881 101.895 453.822 102.209 453.706 102.516C453.592 102.82 453.393 103.159 453.109 103.534C452.828 103.906 452.438 104.361 451.938 104.898L449.977 106.994V107.062H454.034V108H448.528Z" fill="black"/>
<path d="M354.057 93V84.2727H359.29V85.2102H355.114V88.1591H358.898V89.0966H355.114V93H354.057ZM360.946 93V92.233L363.827 89.0795C364.165 88.7102 364.444 88.3892 364.662 88.1165C364.881 87.8409 365.043 87.5824 365.148 87.3409C365.256 87.0966 365.31 86.8409 365.31 86.5739C365.31 86.267 365.236 86.0014 365.088 85.777C364.944 85.5526 364.745 85.3793 364.492 85.2571C364.239 85.1349 363.955 85.0739 363.64 85.0739C363.304 85.0739 363.012 85.1435 362.762 85.2827C362.515 85.419 362.323 85.6108 362.186 85.858C362.053 86.1051 361.986 86.3949 361.986 86.7273H360.98C360.98 86.2159 361.098 85.767 361.334 85.3807C361.57 84.9943 361.891 84.6932 362.297 84.4773C362.706 84.2614 363.165 84.1534 363.674 84.1534C364.185 84.1534 364.638 84.2614 365.033 84.4773C365.428 84.6932 365.738 84.9844 365.962 85.3509C366.186 85.7173 366.299 86.125 366.299 86.5739C366.299 86.8949 366.24 87.2088 366.124 87.5156C366.01 87.8196 365.811 88.1591 365.527 88.5341C365.246 88.9062 364.855 89.3608 364.355 89.8977L362.395 91.9943V92.0625H366.452V93H360.946Z" fill="black"/>
<path d="M291.08 250H290.023C289.96 249.696 289.851 249.429 289.695 249.199C289.541 248.969 289.354 248.776 289.132 248.619C288.913 248.46 288.67 248.341 288.403 248.261C288.136 248.182 287.858 248.142 287.568 248.142C287.04 248.142 286.561 248.276 286.132 248.543C285.706 248.81 285.366 249.203 285.114 249.723C284.864 250.243 284.739 250.881 284.739 251.636C284.739 252.392 284.864 253.03 285.114 253.55C285.366 254.07 285.706 254.463 286.132 254.73C286.561 254.997 287.04 255.131 287.568 255.131C287.858 255.131 288.136 255.091 288.403 255.011C288.67 254.932 288.913 254.814 289.132 254.658C289.354 254.499 289.541 254.304 289.695 254.074C289.851 253.841 289.96 253.574 290.023 253.273H291.08C291 253.719 290.855 254.118 290.645 254.47C290.435 254.822 290.173 255.122 289.861 255.369C289.548 255.614 289.197 255.8 288.808 255.928C288.422 256.055 288.009 256.119 287.568 256.119C286.824 256.119 286.162 255.938 285.582 255.574C285.003 255.21 284.547 254.693 284.214 254.023C283.882 253.352 283.716 252.557 283.716 251.636C283.716 250.716 283.882 249.92 284.214 249.25C284.547 248.58 285.003 248.062 285.582 247.699C286.162 247.335 286.824 247.153 287.568 247.153C288.009 247.153 288.422 247.217 288.808 247.345C289.197 247.473 289.548 247.661 289.861 247.908C290.173 248.152 290.435 248.45 290.645 248.803C290.855 249.152 291 249.551 291.08 250ZM295.702 247.273V256H294.645V248.381H294.594L292.463 249.795V248.722L294.645 247.273H295.702Z" fill="black"/>
<path d="M308.08 71H307.023C306.96 70.696 306.851 70.429 306.695 70.1989C306.541 69.9688 306.354 69.7756 306.132 69.6193C305.913 69.4602 305.67 69.3409 305.403 69.2614C305.136 69.1818 304.858 69.142 304.568 69.142C304.04 69.142 303.561 69.2756 303.132 69.5426C302.706 69.8097 302.366 70.2031 302.114 70.723C301.864 71.2429 301.739 71.8807 301.739 72.6364C301.739 73.392 301.864 74.0298 302.114 74.5497C302.366 75.0696 302.706 75.4631 303.132 75.7301C303.561 75.9972 304.04 76.1307 304.568 76.1307C304.858 76.1307 305.136 76.0909 305.403 76.0114C305.67 75.9318 305.913 75.8139 306.132 75.6577C306.354 75.4986 306.541 75.304 306.695 75.0739C306.851 74.8409 306.96 74.5739 307.023 74.2727H308.08C308 74.7187 307.855 75.1179 307.645 75.4702C307.435 75.8224 307.173 76.1222 306.861 76.3693C306.548 76.6136 306.197 76.7997 305.808 76.9276C305.422 77.0554 305.009 77.1193 304.568 77.1193C303.824 77.1193 303.162 76.9375 302.582 76.5739C302.003 76.2102 301.547 75.6932 301.214 75.0227C300.882 74.3523 300.716 73.5568 300.716 72.6364C300.716 71.7159 300.882 70.9205 301.214 70.25C301.547 69.5795 302.003 69.0625 302.582 68.6989C303.162 68.3352 303.824 68.1534 304.568 68.1534C305.009 68.1534 305.422 68.2173 305.808 68.3452C306.197 68.473 306.548 68.6605 306.861 68.9077C307.173 69.152 307.435 69.4503 307.645 69.8026C307.855 70.152 308 70.5511 308.08 71ZM309.634 77V76.233L312.515 73.0795C312.853 72.7102 313.131 72.3892 313.35 72.1165C313.569 71.8409 313.73 71.5824 313.836 71.3409C313.944 71.0966 313.998 70.8409 313.998 70.5739C313.998 70.267 313.924 70.0014 313.776 69.777C313.631 69.5526 313.432 69.3793 313.179 69.2571C312.926 69.1349 312.642 69.0739 312.327 69.0739C311.992 69.0739 311.699 69.1435 311.449 69.2827C311.202 69.419 311.01 69.6108 310.874 69.858C310.74 70.1051 310.674 70.3949 310.674 70.7273H309.668C309.668 70.2159 309.786 69.767 310.022 69.3807C310.257 68.9943 310.578 68.6932 310.985 68.4773C311.394 68.2614 311.853 68.1534 312.361 68.1534C312.873 68.1534 313.326 68.2614 313.721 68.4773C314.115 68.6932 314.425 68.9844 314.65 69.3509C314.874 69.7173 314.986 70.125 314.986 70.5739C314.986 70.8949 314.928 71.2088 314.811 71.5156C314.698 71.8196 314.499 72.1591 314.215 72.5341C313.934 72.9062 313.543 73.3608 313.043 73.8977L311.083 75.9943V76.0625H315.14V77H309.634Z" fill="black"/>
</g>
<defs>
<clipPath id="clip0_22_40">
<rect width="257" height="426" fill="white" transform="translate(291 22)"/>
</clipPath>
</defs>
</svg>
