<svg width="829" height="469" viewBox="0 0 829 469" fill="none" xmlns="http://www.w3.org/2000/svg">
<rect width="829" height="469" fill="white"/>
<g clip-path="url(#clip0_18_140)">
<path d="M104 102V212" stroke="black" stroke-width="3"/>
<path d="M104 292V372" stroke="black"/>
<path d="M45 372H274" stroke="black" stroke-width="2"/>
<path d="M174 162V237" stroke="black"/>
<path d="M324 102H504" stroke="black" stroke-width="2"/>
<path d="M394 102V237" stroke="black"/>
<path d="M394 312V422" stroke="black" stroke-width="3"/>
<path d="M394 106C396.209 106 398 104.209 398 102C398 99.7909 396.209 98 394 98C391.791 98 390 99.7909 390 102C390 104.209 391.791 106 394 106Z" fill="#737373" stroke="black"/>
<path d="M174 166C176.209 166 178 164.209 178 162C178 159.791 176.209 158 174 158C171.791 158 170 159.791 170 162C170 164.209 171.791 166 174 166Z" fill="#737373" stroke="black"/>
<path d="M174 241C176.209 241 178 239.209 178 237C178 234.791 176.209 233 174 233C171.791 233 170 234.791 170 237C170 239.209 171.791 241 174 241Z" fill="#737373" stroke="black"/>
<path d="M104 376C106.209 376 108 374.209 108 372C108 369.791 106.209 368 104 368C101.791 368 100 369.791 100 372C100 374.209 101.791 376 104 376Z" fill="#737373" stroke="black"/>
<path d="M149.415 166H148.307L151.511 157.273H152.602L155.807 166H154.699L152.091 158.653H152.023L149.415 166ZM149.824 162.591H154.29V163.528H149.824V162.591ZM156.712 166V165.489L158.632 163.386C158.857 163.14 159.043 162.926 159.189 162.744C159.335 162.561 159.443 162.388 159.513 162.227C159.585 162.064 159.621 161.894 159.621 161.716C159.621 161.511 159.571 161.334 159.473 161.185C159.376 161.035 159.244 160.92 159.075 160.838C158.907 160.757 158.717 160.716 158.507 160.716C158.284 160.716 158.089 160.762 157.922 160.855C157.757 160.946 157.629 161.074 157.538 161.239C157.449 161.403 157.405 161.597 157.405 161.818H156.734C156.734 161.477 156.813 161.178 156.97 160.92C157.127 160.663 157.341 160.462 157.612 160.318C157.885 160.174 158.191 160.102 158.53 160.102C158.871 160.102 159.173 160.174 159.436 160.318C159.699 160.462 159.906 160.656 160.055 160.901C160.205 161.145 160.28 161.417 160.28 161.716C160.28 161.93 160.241 162.139 160.163 162.344C160.088 162.546 159.955 162.773 159.766 163.023C159.578 163.271 159.318 163.574 158.984 163.932L157.678 165.33V165.375H160.382V166H156.712Z" fill="black"/>
<path d="M87.9205 161V154.455H88.9261V161H87.9205ZM88.4318 153.364C88.2358 153.364 88.0668 153.297 87.9247 153.163C87.7855 153.03 87.7159 152.869 87.7159 152.682C87.7159 152.494 87.7855 152.334 87.9247 152.2C88.0668 152.067 88.2358 152 88.4318 152C88.6278 152 88.7955 152.067 88.9347 152.2C89.0767 152.334 89.1477 152.494 89.1477 152.682C89.1477 152.869 89.0767 153.03 88.9347 153.163C88.7955 153.297 88.6278 153.364 88.4318 153.364ZM90.4499 161V160.489L92.3704 158.386C92.5958 158.14 92.7814 157.926 92.9272 157.744C93.073 157.561 93.181 157.388 93.2511 157.227C93.323 157.064 93.359 156.894 93.359 156.716C93.359 156.511 93.3098 156.334 93.2113 156.185C93.1147 156.035 92.9821 155.92 92.8136 155.838C92.645 155.757 92.4556 155.716 92.2454 155.716C92.0219 155.716 91.8268 155.762 91.6602 155.855C91.4954 155.946 91.3675 156.074 91.2766 156.239C91.1876 156.403 91.1431 156.597 91.1431 156.818H90.4727C90.4727 156.477 90.5513 156.178 90.7085 155.92C90.8656 155.663 91.0797 155.462 91.3505 155.318C91.6232 155.174 91.9291 155.102 92.2681 155.102C92.609 155.102 92.9111 155.174 93.1744 155.318C93.4376 155.462 93.6441 155.656 93.7937 155.901C93.9433 156.145 94.0181 156.417 94.0181 156.716C94.0181 156.93 93.9793 157.139 93.9016 157.344C93.8259 157.546 93.6933 157.773 93.5039 158.023C93.3164 158.271 93.056 158.574 92.7227 158.932L91.4158 160.33V160.375H94.1204V161H90.4499Z" fill="black"/>
<path d="M401.92 87.4545H402.926V94.4773C402.926 94.8807 402.857 95.2301 402.717 95.5256C402.581 95.821 402.374 96.0497 402.095 96.2116C401.82 96.3736 401.472 96.4545 401.051 96.4545C401.017 96.4545 400.983 96.4545 400.949 96.4545C400.915 96.4545 400.881 96.4545 400.847 96.4545V95.517C400.881 95.517 400.912 95.517 400.94 95.517C400.969 95.517 401 95.517 401.034 95.517C401.341 95.517 401.565 95.4261 401.707 95.2443C401.849 95.0653 401.92 94.8097 401.92 94.4773V87.4545ZM402.415 86.3636C402.219 86.3636 402.05 86.2969 401.908 86.1634C401.768 86.0298 401.699 85.8693 401.699 85.6818C401.699 85.4943 401.768 85.3338 401.908 85.2003C402.05 85.0668 402.219 85 402.415 85C402.611 85 402.778 85.0668 402.918 85.2003C403.06 85.3338 403.131 85.4943 403.131 85.6818C403.131 85.8693 403.06 86.0298 402.918 86.1634C402.778 86.2969 402.611 86.3636 402.415 86.3636ZM404.45 94V93.4886L406.37 91.3864C406.596 91.1402 406.781 90.9261 406.927 90.7443C407.073 90.5606 407.181 90.3883 407.251 90.2273C407.323 90.0644 407.359 89.8939 407.359 89.7159C407.359 89.5114 407.31 89.3343 407.211 89.1847C407.115 89.035 406.982 88.9195 406.814 88.8381C406.645 88.7566 406.456 88.7159 406.245 88.7159C406.022 88.7159 405.827 88.7623 405.66 88.8551C405.495 88.946 405.368 89.0739 405.277 89.2386C405.188 89.4034 405.143 89.5966 405.143 89.8182H404.473C404.473 89.4773 404.551 89.178 404.708 88.9205C404.866 88.6629 405.08 88.4621 405.35 88.3182C405.623 88.1742 405.929 88.1023 406.268 88.1023C406.609 88.1023 406.911 88.1742 407.174 88.3182C407.438 88.4621 407.644 88.6562 407.794 88.9006C407.943 89.1449 408.018 89.4167 408.018 89.7159C408.018 89.9299 407.979 90.1392 407.902 90.3438C407.826 90.5464 407.693 90.7727 407.504 91.0227C407.316 91.2708 407.056 91.5739 406.723 91.9318L405.416 93.3295V93.375H408.12V94H404.45Z" fill="black"/>
<path d="M336.602 98V97.4886L338.523 95.3864C338.748 95.1402 338.934 94.9261 339.08 94.7443C339.225 94.5606 339.333 94.3883 339.403 94.2273C339.475 94.0644 339.511 93.8939 339.511 93.7159C339.511 93.5114 339.462 93.3343 339.364 93.1847C339.267 93.035 339.134 92.9195 338.966 92.8381C338.797 92.7566 338.608 92.7159 338.398 92.7159C338.174 92.7159 337.979 92.7623 337.812 92.8551C337.648 92.946 337.52 93.0739 337.429 93.2386C337.34 93.4034 337.295 93.5966 337.295 93.8182H336.625C336.625 93.4773 336.704 93.178 336.861 92.9205C337.018 92.6629 337.232 92.4621 337.503 92.3182C337.776 92.1742 338.081 92.1023 338.42 92.1023C338.761 92.1023 339.063 92.1742 339.327 92.3182C339.59 92.4621 339.796 92.6562 339.946 92.9006C340.096 93.1449 340.17 93.4167 340.17 93.7159C340.17 93.9299 340.132 94.1392 340.054 94.3438C339.978 94.5464 339.846 94.7727 339.656 95.0227C339.469 95.2708 339.208 95.5739 338.875 95.9318L337.568 97.3295V97.375H340.273V98H336.602Z" fill="black"/>
<path d="M401.92 340.455H402.926V347.477C402.926 347.881 402.857 348.23 402.717 348.526C402.581 348.821 402.374 349.05 402.095 349.212C401.82 349.374 401.472 349.455 401.051 349.455C401.017 349.455 400.983 349.455 400.949 349.455C400.915 349.455 400.881 349.455 400.847 349.455V348.517C400.881 348.517 400.912 348.517 400.94 348.517C400.969 348.517 401 348.517 401.034 348.517C401.341 348.517 401.565 348.426 401.707 348.244C401.849 348.065 401.92 347.81 401.92 347.477V340.455ZM402.415 339.364C402.219 339.364 402.05 339.297 401.908 339.163C401.768 339.03 401.699 338.869 401.699 338.682C401.699 338.494 401.768 338.334 401.908 338.2C402.05 338.067 402.219 338 402.415 338C402.611 338 402.778 338.067 402.918 338.2C403.06 338.334 403.131 338.494 403.131 338.682C403.131 338.869 403.06 339.03 402.918 339.163C402.778 339.297 402.611 339.364 402.415 339.364ZM406.495 341.182V347H405.791V341.92H405.757L404.336 342.864V342.148L405.791 341.182H406.495Z" fill="black"/>
<path d="M92.9205 367V360.455H93.9261V367H92.9205ZM93.4318 359.364C93.2358 359.364 93.0668 359.297 92.9247 359.163C92.7855 359.03 92.7159 358.869 92.7159 358.682C92.7159 358.494 92.7855 358.334 92.9247 358.2C93.0668 358.067 93.2358 358 93.4318 358C93.6278 358 93.7955 358.067 93.9347 358.2C94.0767 358.334 94.1477 358.494 94.1477 358.682C94.1477 358.869 94.0767 359.03 93.9347 359.163C93.7955 359.297 93.6278 359.364 93.4318 359.364ZM97.4954 361.182V367H96.7908V361.92H96.7567L95.3363 362.864V362.148L96.7908 361.182H97.4954Z" fill="black"/>
<path d="M54.6477 361.182V367H53.9432V361.92H53.9091L52.4886 362.864V362.148L53.9432 361.182H54.6477Z" fill="black"/>
<path d="M149.415 241H148.307L151.511 232.273H152.602L155.807 241H154.699L152.091 233.653H152.023L149.415 241ZM149.824 237.591H154.29V238.528H149.824V237.591ZM158.757 235.182V241H158.053V235.92H158.018L156.598 236.864V236.148L158.053 235.182H158.757Z" fill="black"/>
<path d="M46 357H52V358.667H47.2L50.8 362L47.2 365.333H52V367H46L45 365.571L46 364.5L48.5 362L46 359.5L45 358.429L46 357Z" fill="black"/>
<path d="M323.837 94.25L329 85.9469L334.163 94.25H323.837Z" stroke="black"/>
</g>
<defs>
<clipPath id="clip0_18_140">
<rect width="536" height="325" fill="white" transform="translate(44 52)"/>
</clipPath>
</defs>
</svg>
