<svg width="829" height="469" viewBox="0 0 829 469" fill="none" xmlns="http://www.w3.org/2000/svg">
<rect width="829" height="469" fill="white"/>
<g clip-path="url(#clip0_28_150)">
<path d="M485.25 212.5H257.75V342.5H485.25V212.5Z" stroke="black" stroke-width="0.65"/>
<path d="M222 277.5H521" stroke="black" stroke-width="0.65" stroke-dasharray="13 3.25 1.3 3.25"/>
<path d="M308.838 342.79L309.7 88.9586L558.664 297.865L308.838 342.79Z" stroke="black" stroke-width="0.65"/>
<path d="M442.539 183.453L300.483 352.749" stroke="black" stroke-width="0.65" stroke-dasharray="13 3.25 1.3 3.25"/>
<circle cx="363.5" cy="277.5" r="2" fill="#D9D9D9" stroke="black"/>
<path d="M374.42 268.636C374.42 269.557 374.254 270.352 373.922 271.023C373.589 271.693 373.134 272.21 372.554 272.574C371.974 272.938 371.313 273.119 370.568 273.119C369.824 273.119 369.162 272.938 368.582 272.574C368.003 272.21 367.547 271.693 367.214 271.023C366.882 270.352 366.716 269.557 366.716 268.636C366.716 267.716 366.882 266.92 367.214 266.25C367.547 265.58 368.003 265.062 368.582 264.699C369.162 264.335 369.824 264.153 370.568 264.153C371.313 264.153 371.974 264.335 372.554 264.699C373.134 265.062 373.589 265.58 373.922 266.25C374.254 266.92 374.42 267.716 374.42 268.636ZM373.398 268.636C373.398 267.881 373.271 267.243 373.018 266.723C372.768 266.203 372.429 265.81 372 265.543C371.574 265.276 371.097 265.142 370.568 265.142C370.04 265.142 369.561 265.276 369.132 265.543C368.706 265.81 368.366 266.203 368.114 266.723C367.864 267.243 367.739 267.881 367.739 268.636C367.739 269.392 367.864 270.03 368.114 270.55C368.366 271.07 368.706 271.463 369.132 271.73C369.561 271.997 370.04 272.131 370.568 272.131C371.097 272.131 371.574 271.997 372 271.73C372.429 271.463 372.768 271.07 373.018 270.55C373.271 270.03 373.398 269.392 373.398 268.636ZM376.044 273V272.233L378.925 269.08C379.263 268.71 379.541 268.389 379.76 268.116C379.979 267.841 380.141 267.582 380.246 267.341C380.354 267.097 380.408 266.841 380.408 266.574C380.408 266.267 380.334 266.001 380.186 265.777C380.041 265.553 379.842 265.379 379.589 265.257C379.337 265.135 379.053 265.074 378.737 265.074C378.402 265.074 378.109 265.143 377.859 265.283C377.612 265.419 377.42 265.611 377.284 265.858C377.151 266.105 377.084 266.395 377.084 266.727H376.078C376.078 266.216 376.196 265.767 376.432 265.381C376.668 264.994 376.989 264.693 377.395 264.477C377.804 264.261 378.263 264.153 378.771 264.153C379.283 264.153 379.736 264.261 380.131 264.477C380.526 264.693 380.835 264.984 381.06 265.351C381.284 265.717 381.396 266.125 381.396 266.574C381.396 266.895 381.338 267.209 381.222 267.516C381.108 267.82 380.909 268.159 380.625 268.534C380.344 268.906 379.953 269.361 379.453 269.898L377.493 271.994V272.062H381.55V273H376.044Z" fill="black"/>
</g>
<defs>
<clipPath id="clip0_28_150">
<rect width="351" height="281" fill="white" transform="translate(216 79)"/>
</clipPath>
</defs>
</svg>
