<svg width="829" height="469" viewBox="0 0 829 469" fill="none" xmlns="http://www.w3.org/2000/svg">
<rect width="829" height="469" fill="white"/>
<path d="M344.975 64.4L557.39 170.4L270.63 228.7L344.975 64.4Z" stroke="black" stroke-width="0.8125"/>
<path d="M275.94 308.2L557.39 287L344.975 403.6L275.94 308.2Z" stroke="black" stroke-width="0.8125"/>
<path d="M557.39 170.4V287" stroke="black" stroke-width="0.8125"/>
<path d="M295.058 307.14L244.078 265.8V50.62L321.609 117.4" stroke="black" stroke-width="0.8125"/>
<path d="M295.058 307.14L389.582 379.22" stroke="black" stroke-width="0.8125" stroke-dasharray="4.06 4.06"/>
<path d="M389.582 379.22L411.886 396.18" stroke="black" stroke-width="0.8125"/>
<path d="M321.609 117.4L412.948 199.02" stroke="black" stroke-width="0.8125" stroke-dasharray="4.06 4.06"/>
<path d="M412.948 199.02L434.189 218.1" stroke="black" stroke-width="0.8125"/>
<path d="M565.227 291.009V282.282H568.279C568.887 282.282 569.388 282.387 569.783 282.597C570.178 282.805 570.472 283.085 570.665 283.437C570.858 283.786 570.955 284.174 570.955 284.6C570.955 284.975 570.888 285.285 570.754 285.529C570.624 285.773 570.45 285.967 570.235 286.109C570.022 286.251 569.79 286.356 569.54 286.424V286.509C569.807 286.526 570.075 286.62 570.345 286.79C570.615 286.961 570.841 287.205 571.023 287.523C571.205 287.842 571.296 288.231 571.296 288.691C571.296 289.129 571.196 289.522 570.997 289.871C570.798 290.221 570.485 290.498 570.056 290.702C569.627 290.907 569.068 291.009 568.381 291.009H565.227ZM566.284 290.072H568.381C569.071 290.072 569.561 289.938 569.851 289.671C570.144 289.401 570.29 289.075 570.29 288.691C570.29 288.396 570.215 288.123 570.064 287.873C569.914 287.62 569.699 287.418 569.421 287.268C569.142 287.114 568.813 287.038 568.432 287.038H566.284V290.072ZM566.284 286.117H568.245C568.563 286.117 568.85 286.055 569.105 285.93C569.364 285.805 569.568 285.629 569.719 285.401C569.872 285.174 569.949 284.907 569.949 284.6C569.949 284.217 569.816 283.891 569.548 283.624C569.281 283.354 568.858 283.219 568.279 283.219H566.284V286.117ZM575.947 282.282V291.009H574.89V283.39H574.839L572.708 284.805V283.731L574.89 282.282H575.947Z" fill="black"/>
<path d="M565.227 169.68V160.953H568.279C568.887 160.953 569.388 161.058 569.783 161.268C570.178 161.475 570.472 161.755 570.665 162.108C570.858 162.457 570.955 162.845 570.955 163.271C570.955 163.646 570.888 163.956 570.754 164.2C570.624 164.444 570.45 164.637 570.235 164.779C570.022 164.921 569.79 165.027 569.54 165.095V165.18C569.807 165.197 570.075 165.291 570.345 165.461C570.615 165.632 570.841 165.876 571.023 166.194C571.205 166.512 571.296 166.902 571.296 167.362C571.296 167.799 571.196 168.193 570.997 168.542C570.798 168.892 570.485 169.169 570.056 169.373C569.627 169.578 569.068 169.68 568.381 169.68H565.227ZM566.284 168.742H568.381C569.071 168.742 569.561 168.609 569.851 168.342C570.144 168.072 570.29 167.745 570.29 167.362C570.29 167.066 570.215 166.794 570.064 166.544C569.914 166.291 569.699 166.089 569.421 165.939C569.142 165.785 568.813 165.708 568.432 165.708H566.284V168.742ZM566.284 164.788H568.245C568.563 164.788 568.85 164.725 569.105 164.6C569.364 164.475 569.568 164.299 569.719 164.072C569.872 163.845 569.949 163.578 569.949 163.271C569.949 162.887 569.816 162.562 569.548 162.295C569.281 162.025 568.858 161.89 568.279 161.89H566.284V164.788ZM572.879 169.68V168.913L575.759 165.76C576.098 165.39 576.376 165.069 576.595 164.796C576.813 164.521 576.975 164.262 577.08 164.021C577.188 163.777 577.242 163.521 577.242 163.254C577.242 162.947 577.169 162.681 577.021 162.457C576.876 162.233 576.677 162.059 576.424 161.937C576.171 161.815 575.887 161.754 575.572 161.754C575.237 161.754 574.944 161.823 574.694 161.963C574.447 162.099 574.255 162.291 574.119 162.538C573.985 162.785 573.919 163.075 573.919 163.407H572.913C572.913 162.896 573.031 162.447 573.267 162.061C573.502 161.674 573.823 161.373 574.23 161.157C574.639 160.941 575.098 160.833 575.606 160.833C576.117 160.833 576.571 160.941 576.965 161.157C577.36 161.373 577.67 161.664 577.894 162.031C578.119 162.397 578.231 162.805 578.231 163.254C578.231 163.575 578.173 163.889 578.056 164.196C577.943 164.5 577.744 164.839 577.46 165.214C577.178 165.586 576.788 166.041 576.288 166.578L574.328 168.674V168.742H578.384V169.68H572.879Z" fill="black"/>
<path d="M361.667 60.0923H360.559L363.764 51.365H364.855L368.059 60.0923H366.951L364.343 52.7457H364.275L361.667 60.0923ZM362.076 56.6832H366.542V57.6207H362.076V56.6832ZM369.265 60.0923V59.3253L372.146 56.1719C372.484 55.8025 372.763 55.4815 372.981 55.2088C373.2 54.9332 373.362 54.6747 373.467 54.4332C373.575 54.1889 373.629 53.9332 373.629 53.6662C373.629 53.3594 373.555 53.0937 373.407 52.8693C373.263 52.6449 373.064 52.4716 372.811 52.3494C372.558 52.2273 372.274 52.1662 371.959 52.1662C371.623 52.1662 371.331 52.2358 371.081 52.375C370.834 52.5113 370.642 52.7031 370.505 52.9503C370.372 53.1974 370.305 53.4872 370.305 53.8196H369.299C369.299 53.3082 369.417 52.8594 369.653 52.473C369.889 52.0866 370.21 51.7855 370.616 51.5696C371.025 51.3537 371.484 51.2457 371.993 51.2457C372.504 51.2457 372.957 51.3537 373.352 51.5696C373.747 51.7855 374.057 52.0767 374.281 52.4432C374.505 52.8096 374.618 53.2173 374.618 53.6662C374.618 53.9872 374.559 54.3011 374.443 54.6079C374.329 54.9119 374.13 55.2514 373.846 55.6264C373.565 55.9986 373.174 56.4531 372.674 56.99L370.714 59.0866V59.1548H374.771V60.0923H369.265Z" fill="black"/>
<path d="M351.21 414.948H350.102L353.307 406.22H354.397L357.602 414.948H356.494L353.886 407.601H353.818L351.21 414.948ZM351.619 411.539H356.085V412.476H351.619V411.539ZM361.466 406.22V414.948H360.409V407.328H360.358L358.227 408.743V407.669L360.409 406.22H361.466Z" fill="black"/>
<path d="M418.574 377.519V386.246H417.518V377.519H418.574ZM423.608 377.519V386.246H422.551V378.627H422.5L420.369 380.042V378.968L422.551 377.519H423.608Z" fill="black"/>
<path d="M418.574 220.965V229.692H417.518V220.965H418.574ZM420.54 229.692V228.925L423.421 225.772C423.759 225.403 424.037 225.082 424.256 224.809C424.475 224.533 424.637 224.275 424.742 224.033C424.85 223.789 424.904 223.533 424.904 223.266C424.904 222.959 424.83 222.694 424.682 222.469C424.537 222.245 424.338 222.072 424.085 221.949C423.833 221.827 423.548 221.766 423.233 221.766C422.898 221.766 422.605 221.836 422.355 221.975C422.108 222.111 421.916 222.303 421.78 222.55C421.646 222.797 421.58 223.087 421.58 223.42H420.574C420.574 222.908 420.692 222.459 420.928 222.073C421.164 221.687 421.485 221.386 421.891 221.17C422.3 220.954 422.759 220.846 423.267 220.846C423.779 220.846 424.232 220.954 424.627 221.17C425.021 221.386 425.331 221.677 425.556 222.043C425.78 222.41 425.892 222.817 425.892 223.266C425.892 223.587 425.834 223.901 425.718 224.208C425.604 224.512 425.405 224.851 425.121 225.226C424.84 225.599 424.449 226.053 423.949 226.59L421.989 228.687V228.755H426.046V229.692H420.54Z" fill="black"/>
<path d="M251.994 300.665H250.937C250.875 300.361 250.766 300.094 250.609 299.863C250.456 299.633 250.268 299.44 250.047 299.284C249.828 299.125 249.585 299.006 249.318 298.926C249.051 298.846 248.773 298.807 248.483 298.807C247.954 298.807 247.476 298.94 247.047 299.207C246.621 299.474 246.281 299.868 246.028 300.388C245.778 300.908 245.653 301.545 245.653 302.301C245.653 303.057 245.778 303.694 246.028 304.214C246.281 304.734 246.621 305.128 247.047 305.395C247.476 305.662 247.954 305.795 248.483 305.795C248.773 305.795 249.051 305.756 249.318 305.676C249.585 305.596 249.828 305.479 250.047 305.322C250.268 305.163 250.456 304.969 250.609 304.738C250.766 304.506 250.875 304.238 250.937 303.937H251.994C251.915 304.383 251.77 304.783 251.56 305.135C251.349 305.487 251.088 305.787 250.775 306.034C250.463 306.278 250.112 306.464 249.723 306.592C249.337 306.72 248.923 306.784 248.483 306.784C247.739 306.784 247.077 306.602 246.497 306.238C245.918 305.875 245.462 305.358 245.129 304.687C244.797 304.017 244.631 303.221 244.631 302.301C244.631 301.381 244.797 300.585 245.129 299.915C245.462 299.244 245.918 298.727 246.497 298.363C247.077 298 247.739 297.818 248.483 297.818C248.923 297.818 249.337 297.882 249.723 298.01C250.112 298.138 250.463 298.325 250.775 298.572C251.088 298.817 251.349 299.115 251.56 299.467C251.77 299.817 251.915 300.216 251.994 300.665ZM256.617 297.937V306.665H255.56V299.045H255.509L253.378 300.46V299.386L255.56 297.937H256.617Z" fill="black"/>
<path d="M257.223 213.255H256.166C256.104 212.951 255.994 212.684 255.838 212.454C255.685 212.224 255.497 212.031 255.275 211.875C255.057 211.716 254.814 211.596 254.547 211.517C254.28 211.437 254.001 211.397 253.712 211.397C253.183 211.397 252.704 211.531 252.275 211.798C251.849 212.065 251.51 212.458 251.257 212.978C251.007 213.498 250.882 214.136 250.882 214.892C250.882 215.647 251.007 216.285 251.257 216.805C251.51 217.325 251.849 217.718 252.275 217.985C252.704 218.253 253.183 218.386 253.712 218.386C254.001 218.386 254.28 218.346 254.547 218.267C254.814 218.187 255.057 218.069 255.275 217.913C255.497 217.754 255.685 217.559 255.838 217.329C255.994 217.096 256.104 216.829 256.166 216.528H257.223C257.143 216.974 256.998 217.373 256.788 217.726C256.578 218.078 256.317 218.378 256.004 218.625C255.692 218.869 255.341 219.055 254.952 219.183C254.565 219.311 254.152 219.375 253.712 219.375C252.967 219.375 252.305 219.193 251.726 218.829C251.146 218.466 250.69 217.949 250.358 217.278C250.025 216.608 249.859 215.812 249.859 214.892C249.859 213.971 250.025 213.176 250.358 212.505C250.69 211.835 251.146 211.318 251.726 210.954C252.305 210.591 252.967 210.409 253.712 210.409C254.152 210.409 254.565 210.473 254.952 210.601C255.341 210.728 255.692 210.916 256.004 211.163C256.317 211.407 256.578 211.706 256.788 212.058C256.998 212.407 257.143 212.807 257.223 213.255ZM258.777 219.255V218.488L261.658 215.335C261.996 214.966 262.274 214.645 262.493 214.372C262.712 214.096 262.874 213.838 262.979 213.596C263.087 213.352 263.141 213.096 263.141 212.829C263.141 212.522 263.067 212.257 262.919 212.032C262.774 211.808 262.576 211.635 262.323 211.512C262.07 211.39 261.786 211.329 261.47 211.329C261.135 211.329 260.843 211.399 260.593 211.538C260.345 211.674 260.154 211.866 260.017 212.113C259.884 212.36 259.817 212.65 259.817 212.983H258.811C258.811 212.471 258.929 212.022 259.165 211.636C259.401 211.25 259.722 210.949 260.128 210.733C260.537 210.517 260.996 210.409 261.504 210.409C262.016 210.409 262.469 210.517 262.864 210.733C263.259 210.949 263.568 211.24 263.793 211.606C264.017 211.973 264.129 212.38 264.129 212.829C264.129 213.15 264.071 213.464 263.955 213.771C263.841 214.075 263.642 214.414 263.358 214.789C263.077 215.162 262.686 215.616 262.186 216.153L260.226 218.25V218.318H264.283V219.255H258.777Z" fill="black"/>
</svg>
