<svg width="375" height="345" viewBox="0 0 375 345" fill="none" xmlns="http://www.w3.org/2000/svg">
<rect x="0.25" y="160.25" width="374.5" height="184.5" rx="21.75" fill="url(#paint0_linear_104_6)" stroke="black" stroke-width="0.5"/>
<mask id="path-2-inside-1_104_6" fill="white">
<path fill-rule="evenodd" clip-rule="evenodd" d="M163.493 112.811L159.5 122.023V146.417C157.234 151.794 153.21 156.243 148.088 159.036L145 160.72H230L226.958 159.748C220.771 157.772 216.053 152.724 214.5 146.417V122.023L212.308 116.123C209.793 109.354 205.995 103.135 201.123 97.8068L200.774 97.425C197.149 93.4608 191.837 91.4846 186.503 92.1157L183.254 92.5C178.312 93.0847 173.842 95.7129 170.927 99.7465C167.984 103.82 165.492 108.201 163.493 112.811ZM187.5 112.334C188.881 112.334 190 111.301 190 110.027C190 108.753 188.881 107.72 187.5 107.72C186.119 107.72 185 108.753 185 110.027C185 111.301 186.119 112.334 187.5 112.334Z"/>
</mask>
<path fill-rule="evenodd" clip-rule="evenodd" d="M163.493 112.811L159.5 122.023V146.417C157.234 151.794 153.21 156.243 148.088 159.036L145 160.72H230L226.958 159.748C220.771 157.772 216.053 152.724 214.5 146.417V122.023L212.308 116.123C209.793 109.354 205.995 103.135 201.123 97.8068L200.774 97.425C197.149 93.4608 191.837 91.4846 186.503 92.1157L183.254 92.5C178.312 93.0847 173.842 95.7129 170.927 99.7465C167.984 103.82 165.492 108.201 163.493 112.811ZM187.5 112.334C188.881 112.334 190 111.301 190 110.027C190 108.753 188.881 107.72 187.5 107.72C186.119 107.72 185 108.753 185 110.027C185 111.301 186.119 112.334 187.5 112.334Z" fill="url(#paint1_linear_104_6)"/>
<path d="M159.5 122.023L159.041 121.824L159 121.92V122.023H159.5ZM163.493 112.811L163.034 112.613L163.493 112.811ZM159.5 146.417L159.961 146.611L160 146.518V146.417H159.5ZM148.088 159.036L147.848 158.597H147.848L148.088 159.036ZM145 160.72L144.761 160.281L145 161.22V160.72ZM230 160.72V161.22L230.152 160.244L230 160.72ZM226.958 159.748L227.11 159.272L226.958 159.748ZM214.5 146.417H214V146.478L214.015 146.536L214.5 146.417ZM214.5 122.023H215V121.933L214.969 121.849L214.5 122.023ZM212.308 116.123L212.776 115.948L212.308 116.123ZM201.123 97.8068L200.754 98.1442V98.1442L201.123 97.8068ZM200.774 97.425L201.143 97.0876L200.774 97.425ZM186.503 92.1157L186.562 92.6122L186.503 92.1157ZM183.254 92.5L183.195 92.0035V92.0035L183.254 92.5ZM170.927 99.7465L170.522 99.4537L170.927 99.7465ZM159.959 122.222L163.952 113.01L163.034 112.613L159.041 121.824L159.959 122.222ZM160 146.417V122.023H159V146.417H160ZM148.327 159.475C153.549 156.628 157.651 152.092 159.961 146.611L159.039 146.223C156.817 151.495 152.872 155.858 147.848 158.597L148.327 159.475ZM145.239 161.159L148.327 159.475L147.848 158.597L144.761 160.281L145.239 161.159ZM230 160.22H145V161.22H230V160.22ZM226.806 160.225L229.848 161.196L230.152 160.244L227.11 159.272L226.806 160.225ZM214.015 146.536C215.609 153.012 220.453 158.195 226.806 160.225L227.11 159.272C221.088 157.348 216.497 152.436 214.985 146.297L214.015 146.536ZM214 122.023V146.417H215V122.023H214ZM211.839 116.297L214.031 122.197L214.969 121.849L212.776 115.948L211.839 116.297ZM200.754 98.1442C205.583 103.425 209.347 109.589 211.839 116.297L212.776 115.948C210.239 109.12 206.408 102.845 201.492 97.4694L200.754 98.1442ZM200.405 97.7624L200.754 98.1442L201.492 97.4694L201.143 97.0876L200.405 97.7624ZM186.562 92.6122C191.736 92.0001 196.889 93.917 200.405 97.7624L201.143 97.0876C197.409 93.0046 191.938 90.9692 186.444 91.6191L186.562 92.6122ZM183.313 92.9966L186.562 92.6122L186.444 91.6191L183.195 92.0035L183.313 92.9966ZM171.333 100.039C174.165 96.1191 178.51 93.5648 183.313 92.9966L183.195 92.0035C178.115 92.6046 173.518 95.3067 170.522 99.4537L171.333 100.039ZM163.952 113.01C165.936 108.433 168.411 104.084 171.333 100.039L170.522 99.4537C167.558 103.557 165.047 107.969 163.034 112.613L163.952 113.01ZM189.5 110.027C189.5 110.988 188.643 111.834 187.5 111.834V112.834C189.118 112.834 190.5 111.615 190.5 110.027H189.5ZM187.5 108.22C188.643 108.22 189.5 109.066 189.5 110.027H190.5C190.5 108.44 189.118 107.22 187.5 107.22V108.22ZM185.5 110.027C185.5 109.066 186.357 108.22 187.5 108.22V107.22C185.882 107.22 184.5 108.44 184.5 110.027H185.5ZM187.5 111.834C186.357 111.834 185.5 110.988 185.5 110.027H184.5C184.5 111.615 185.882 112.834 187.5 112.834V111.834Z" fill="black" mask="url(#path-2-inside-1_104_6)"/>
<path d="M104.75 291.5C104.75 303.778 94.351 313.75 81.5 313.75C68.649 313.75 58.25 303.778 58.25 291.5C58.25 279.222 68.649 269.25 81.5 269.25C94.351 269.25 104.75 279.222 104.75 291.5Z" fill="url(#paint2_linear_104_6)" stroke="black" stroke-width="0.5"/>
<path d="M97.75 291C97.75 299.124 90.4976 305.75 81.5 305.75C72.5024 305.75 65.25 299.124 65.25 291C65.25 282.876 72.5024 276.25 81.5 276.25C90.4976 276.25 97.75 282.876 97.75 291Z" fill="url(#paint3_linear_104_6)" stroke="black" stroke-width="0.5"/>
<circle cx="81.5" cy="272.5" r="3.25" fill="url(#paint4_linear_104_6)" stroke="black" stroke-width="0.5"/>
<path d="M314.75 291.5C314.75 303.778 304.351 313.75 291.5 313.75C278.649 313.75 268.25 303.778 268.25 291.5C268.25 279.222 278.649 269.25 291.5 269.25C304.351 269.25 314.75 279.222 314.75 291.5Z" fill="url(#paint5_linear_104_6)" stroke="black" stroke-width="0.5"/>
<path d="M307.75 291C307.75 299.124 300.498 305.75 291.5 305.75C282.502 305.75 275.25 299.124 275.25 291C275.25 282.876 282.502 276.25 291.5 276.25C300.498 276.25 307.75 282.876 307.75 291Z" fill="url(#paint6_linear_104_6)" stroke="black" stroke-width="0.5"/>
<circle cx="291.5" cy="272.5" r="3.25" fill="url(#paint7_linear_104_6)" stroke="black" stroke-width="0.5"/>
<circle cx="188" cy="115" r="114.75" fill="url(#paint8_linear_104_6)" stroke="black" stroke-width="0.5"/>
<defs>
<linearGradient id="paint0_linear_104_6" x1="0" y1="252.5" x2="375" y2="252.5" gradientUnits="userSpaceOnUse">
<stop stop-color="#D5DEE7"/>
<stop offset="0.5" stop-color="#E8EBF2"/>
<stop offset="1" stop-color="#E2E7ED"/>
</linearGradient>
<linearGradient id="paint1_linear_104_6" x1="159.5" y1="133.584" x2="214.5" y2="133.584" gradientUnits="userSpaceOnUse">
<stop stop-color="#D5DEE7"/>
<stop offset="0.5" stop-color="#E8EBF2"/>
<stop offset="1" stop-color="#E2E7ED"/>
</linearGradient>
<linearGradient id="paint2_linear_104_6" x1="58" y1="291.5" x2="105" y2="291.5" gradientUnits="userSpaceOnUse">
<stop offset="0.01" stop-color="#D5D4D0"/>
<stop offset="0.53926" stop-color="#D5D4D0"/>
<stop offset="0.914275" stop-color="#EEEEEC"/>
</linearGradient>
<linearGradient id="paint3_linear_104_6" x1="65" y1="291" x2="98" y2="291" gradientUnits="userSpaceOnUse">
<stop offset="0.01" stop-color="#D5D4D0"/>
<stop offset="0.0101" stop-color="#D5D4D0"/>
<stop offset="0.898649" stop-color="#EEEEEC"/>
</linearGradient>
<linearGradient id="paint4_linear_104_6" x1="78" y1="272.5" x2="85" y2="272.5" gradientUnits="userSpaceOnUse">
<stop stop-color="#D5D4D0"/>
<stop offset="0.01" stop-color="#D5D4D0"/>
<stop offset="0.768436" stop-color="#EEEEEC"/>
</linearGradient>
<linearGradient id="paint5_linear_104_6" x1="268" y1="291.5" x2="315" y2="291.5" gradientUnits="userSpaceOnUse">
<stop offset="0.01" stop-color="#D5D4D0"/>
<stop offset="0.53926" stop-color="#D5D4D0"/>
<stop offset="0.914275" stop-color="#EEEEEC"/>
</linearGradient>
<linearGradient id="paint6_linear_104_6" x1="275" y1="291" x2="308" y2="291" gradientUnits="userSpaceOnUse">
<stop offset="0.01" stop-color="#D5D4D0"/>
<stop offset="0.0101" stop-color="#D5D4D0"/>
<stop offset="0.898649" stop-color="#EEEEEC"/>
</linearGradient>
<linearGradient id="paint7_linear_104_6" x1="288" y1="272.5" x2="295" y2="272.5" gradientUnits="userSpaceOnUse">
<stop stop-color="#D5D4D0"/>
<stop offset="0.01" stop-color="#D5D4D0"/>
<stop offset="0.768436" stop-color="#EEEEEC"/>
</linearGradient>
<linearGradient id="paint8_linear_104_6" x1="73" y1="115" x2="303" y2="115" gradientUnits="userSpaceOnUse">
<stop stop-color="#F3E7E9" stop-opacity="0.35"/>
<stop offset="0.99" stop-color="#E3EEFF"/>
<stop offset="1" stop-color="#E3EEFF"/>
</linearGradient>
</defs>
</svg>
