<svg width="473" height="132" viewBox="0 0 473 132" fill="none" xmlns="http://www.w3.org/2000/svg">
<rect x="-0.25" y="-0.25" width="89.5" height="26.5" transform="matrix(0 -1 -1 0 419.5 131.5)" fill="#BEEBFF" stroke="black" stroke-width="0.5"/>
<line y1="-0.5" x2="11" y2="-0.5" transform="matrix(1 0 0 -1 393 114.5)" stroke="black"/>
<line y1="-0.5" x2="11" y2="-0.5" transform="matrix(1 0 0 -1 393 104.5)" stroke="black"/>
<line y1="-0.5" x2="11" y2="-0.5" transform="matrix(1 0 0 -1 393 94.5)" stroke="black"/>
<line x1="408" y1="112" x2="408" y2="117" stroke="black"/>
<line x1="408" y1="92" x2="408" y2="97" stroke="black"/>
<path d="M410.5 104C410.5 105.657 409.381 107 408 107C406.619 107 405.5 105.657 405.5 104C405.5 102.343 406.619 101 408 101C409.381 101 410.5 102.343 410.5 104ZM406.727 104C406.727 104.844 407.297 105.528 408 105.528C408.703 105.528 409.273 104.844 409.273 104C409.273 103.156 408.703 102.472 408 102.472C407.297 102.472 406.727 103.156 406.727 104Z" fill="black"/>
<path d="M53.25 131.75L53.25 42.25H79.75V131.75H53.25Z" fill="#BEEBFF" stroke="black" stroke-width="0.5"/>
<path d="M79.5 114.5H68.5" stroke="black"/>
<path d="M79.5 105H68.5" stroke="black"/>
<path d="M79.5 95H68.5" stroke="black"/>
<line x1="64.5" y1="93" x2="64.5" y2="98" stroke="black"/>
<line x1="64.5" y1="112" x2="64.5" y2="117" stroke="black"/>
<path d="M67 105C67 106.657 65.8807 108 64.5 108C63.1193 108 62 106.657 62 105C62 103.343 63.1193 102 64.5 102C65.8807 102 67 103.343 67 105ZM63.2269 105C63.2269 105.844 63.7969 106.528 64.5 106.528C65.2031 106.528 65.7731 105.844 65.7731 105C65.7731 104.156 65.2031 103.472 64.5 103.472C63.7969 103.472 63.2269 104.156 63.2269 105Z" fill="black"/>
<path d="M446 0.25H472.25V131.75H419.75V26.5C419.75 12.0025 431.503 0.25 446 0.25Z" fill="url(#paint0_linear_105_14)" stroke="black" stroke-width="0.5"/>
<path d="M27 0.25H0.75V131.75H53.25V26.5C53.25 12.0025 41.4975 0.25 27 0.25Z" fill="url(#paint1_linear_105_14)" stroke="black" stroke-width="0.5"/>
<mask id="path-17-inside-1_105_14" fill="white">
<path d="M40 79C40 86.1797 34.1797 92 27 92C19.8203 92 14 86.1797 14 79C14 71.8203 19.8203 66 27 66C34.1797 66 40 71.8203 40 79ZM18.4706 79C18.4706 83.7107 22.2893 87.5294 27 87.5294C31.7107 87.5294 35.5294 83.7107 35.5294 79C35.5294 74.2893 31.7107 70.4706 27 70.4706C22.2893 70.4706 18.4706 74.2893 18.4706 79Z"/>
</mask>
<path d="M40 79C40 86.1797 34.1797 92 27 92C19.8203 92 14 86.1797 14 79C14 71.8203 19.8203 66 27 66C34.1797 66 40 71.8203 40 79ZM18.4706 79C18.4706 83.7107 22.2893 87.5294 27 87.5294C31.7107 87.5294 35.5294 83.7107 35.5294 79C35.5294 74.2893 31.7107 70.4706 27 70.4706C22.2893 70.4706 18.4706 74.2893 18.4706 79Z" fill="#3A8BEB" stroke="black" mask="url(#path-17-inside-1_105_14)"/>
<path d="M46.4064 69.7788L42.2265 71.2493C40.9925 71.6835 39.8172 72.2692 38.7277 72.9931C36.3858 74.5492 34.1761 76.2956 32.1212 78.2148L25.9805 83.95L8.80849 83.95L14.1781 82.3144C18.8792 80.8823 23.4033 78.9237 27.6643 76.4757L32.2624 73.834L34.0163 72.9355C37.8627 70.965 42.0979 69.8888 46.4064 69.7788Z" fill="#3A8BEB" stroke="black" stroke-width="0.5"/>
<path d="M9.41151 106.323L10.8704 99.25H14.75V110.75H12.5727L12.2498 103.353L11.7537 103.321L10.4565 110.75H9.16667H7.86375L6.07643 103.305L5.58333 103.364V110.75H3.25V99.25H7.13853L8.92425 106.334L9.41151 106.323Z" fill="#3A8BEB" stroke="black" stroke-width="0.5"/>
<mask id="path-20-inside-2_105_14" fill="white">
<path fill-rule="evenodd" clip-rule="evenodd" d="M24.4225 99H22.5915H20.3944L16 111H20.2113V109.125H22.5915H24.6056V111H29L24.4225 99ZM22.5915 102.562H22.2254L20.9437 106.5H24.0563L22.5915 102.562Z"/>
</mask>
<path fill-rule="evenodd" clip-rule="evenodd" d="M24.4225 99H22.5915H20.3944L16 111H20.2113V109.125H22.5915H24.6056V111H29L24.4225 99ZM22.5915 102.562H22.2254L20.9437 106.5H24.0563L22.5915 102.562Z" fill="#3A8BEB"/>
<path d="M24.4225 99L24.8897 98.8218L24.7669 98.5H24.4225V99ZM20.3944 99V98.5H20.045L19.9249 98.8281L20.3944 99ZM16 111L15.5305 110.828L15.2844 111.5H16V111ZM20.2113 111V111.5H20.7113V111H20.2113ZM20.2113 109.125V108.625H19.7113V109.125H20.2113ZM24.6056 109.125H25.1056V108.625H24.6056V109.125ZM24.6056 111H24.1056V111.5H24.6056V111ZM29 111V111.5H29.7259L29.4672 110.822L29 111ZM22.2254 102.562V102.062H21.8623L21.7499 102.408L22.2254 102.562ZM22.5915 102.562L23.0602 102.388L22.939 102.062H22.5915V102.562ZM20.9437 106.5L20.4682 106.345L20.2551 107H20.9437V106.5ZM24.0563 106.5V107H24.7758L24.525 106.326L24.0563 106.5ZM22.5915 99.5H24.4225V98.5H22.5915V99.5ZM20.3944 99.5H22.5915V98.5H20.3944V99.5ZM16.4695 111.172L20.8639 99.1719L19.9249 98.8281L15.5305 110.828L16.4695 111.172ZM20.2113 110.5H16V111.5H20.2113V110.5ZM19.7113 109.125V111H20.7113V109.125H19.7113ZM22.5915 108.625H20.2113V109.625H22.5915V108.625ZM24.6056 108.625H22.5915V109.625H24.6056V108.625ZM25.1056 111V109.125H24.1056V111H25.1056ZM29 110.5H24.6056V111.5H29V110.5ZM23.9554 99.1782L28.5328 111.178L29.4672 110.822L24.8897 98.8218L23.9554 99.1782ZM22.2254 103.062H22.5915V102.062H22.2254V103.062ZM21.4191 106.655L22.7008 102.717L21.7499 102.408L20.4682 106.345L21.4191 106.655ZM24.0563 106H20.9437V107H24.0563V106ZM22.1229 102.737L23.5877 106.674L24.525 106.326L23.0602 102.388L22.1229 102.737Z" fill="black" mask="url(#path-20-inside-2_105_14)"/>
<path d="M31.6667 101.75H28.25V99.25H38.75V101.75H35.3333H35.0833V102V110.75H31.9167V102V101.75H31.6667Z" fill="#3A8BEB" stroke="black" stroke-width="0.5"/>
<path d="M43.4083 110.75H40.25V99.25H43.2984V105.562V106.509L43.7658 105.686L47.4197 99.25H50.75V110.75H47.7016V104.625V103.738L47.2384 104.494L43.4083 110.75Z" fill="#3A8BEB" stroke="black" stroke-width="0.5"/>
<defs>
<linearGradient id="paint0_linear_105_14" x1="419" y1="66" x2="472" y2="66" gradientUnits="userSpaceOnUse">
<stop stop-color="#D5DEE7"/>
<stop offset="0.5" stop-color="#E8EBF2"/>
<stop offset="1" stop-color="#E2E7ED"/>
</linearGradient>
<linearGradient id="paint1_linear_105_14" x1="54.0001" y1="66" x2="1.00006" y2="66" gradientUnits="userSpaceOnUse">
<stop stop-color="#D5DEE7"/>
<stop offset="0.5" stop-color="#E8EBF2"/>
<stop offset="1" stop-color="#E2E7ED"/>
</linearGradient>
</defs>
</svg>
