<svg width="93" height="38" viewBox="0 0 93 38" fill="none" xmlns="http://www.w3.org/2000/svg">
<path d="M73.6261 9.5V0.25H92.75V24.75H46.5H46.215L46.2521 25.0325L46.4599 26.6155C46.8537 29.6152 45.7557 32.618 43.5198 34.6562C43.4167 34.7502 43.304 34.8331 43.1837 34.9037L43.0432 34.986C42.1722 35.4964 41.2091 35.8301 40.209 35.968L34.5316 36.7509L24.7304 37.2503L24.7292 37.2504L15.7848 37.7496L7.32371 37.2538C2.95837 34.8228 0.25 30.2173 0.25 25.2177V25C0.25 20.066 2.65177 15.4408 6.68773 12.6026L8.60448 11.2547L17.5504 11.7856C33.9803 12.7606 50.4635 12.3267 66.8194 10.4885L73.4041 9.74844L73.6261 9.72348V9.5Z" fill="url(#paint0_linear_113_5)" stroke="black" stroke-width="0.5"/>
<defs>
<linearGradient id="paint0_linear_113_5" x1="0.853211" y1="12" x2="93" y2="12" gradientUnits="userSpaceOnUse">
<stop stop-color="#D5DEE7"/>
<stop offset="0.5" stop-color="#E8EBF2"/>
<stop offset="1" stop-color="#E2E7ED"/>
</linearGradient>
</defs>
</svg>
